<svg width="253" height="40" viewBox="0 0 253 40" fill="none" xmlns="http://www.w3.org/2000/svg">
<path d="M2.98688 15V12.78H6.64688C7.30021 12.78 7.80688 12.58 8.16688 12.18C8.54021 11.78 8.72688 11.3067 8.72688 10.76C8.72688 10.3867 8.64688 10.0467 8.48688 9.74C8.32688 9.43333 8.08688 9.19333 7.76688 9.02C7.46021 8.83333 7.08688 8.74 6.64688 8.74H2.98688V6.54H6.34688C6.90688 6.54 7.35354 6.4 7.68688 6.12C8.03354 5.84 8.20688 5.42 8.20688 4.86C8.20688 4.28667 8.03354 3.86 7.68688 3.58C7.35354 3.3 6.90688 3.16 6.34688 3.16H2.98688V0.94H6.66688C7.60021 0.94 8.38021 1.11333 9.00688 1.46C9.64688 1.79333 10.1269 2.24 10.4469 2.8C10.7669 3.34667 10.9269 3.94667 10.9269 4.6C10.9269 5.4 10.6802 6.09333 10.1869 6.68C9.70688 7.25333 9.00021 7.68 8.06688 7.96L8.18688 7.08C9.22688 7.37333 10.0269 7.86 10.5869 8.54C11.1602 9.20667 11.4469 10.0133 11.4469 10.96C11.4469 11.7067 11.2602 12.3867 10.8869 13C10.5269 13.6 9.99354 14.0867 9.28688 14.46C8.59354 14.82 7.74688 15 6.74688 15H2.98688ZM0.986875 15V0.94H3.68688V15H0.986875ZM17.4441 15.2C16.5907 15.2 15.8307 15.02 15.1641 14.66C14.5107 14.3 13.9974 13.8 13.6241 13.16C13.2507 12.52 13.0641 11.78 13.0641 10.94V5.34H15.7041V10.88C15.7041 11.28 15.7707 11.6267 15.9041 11.92C16.0374 12.2 16.2374 12.4133 16.5041 12.56C16.7707 12.7067 17.0841 12.78 17.4441 12.78C17.9907 12.78 18.4174 12.6133 18.7241 12.28C19.0307 11.9467 19.1841 11.48 19.1841 10.88V5.34H21.8041V10.94C21.8041 11.7933 21.6174 12.54 21.2441 13.18C20.8841 13.82 20.3707 14.32 19.7041 14.68C19.0507 15.0267 18.2974 15.2 17.4441 15.2ZM26.9305 15.08L22.8905 5.34H25.7305L28.4105 12.78H27.4505L30.2305 5.34H33.0905L28.7905 15.06L26.9305 15.08ZM24.2505 19.04L27.1905 12.82L28.7905 15.06L27.0305 19.04H24.2505ZM41.7716 15V1.24H44.5116V15H41.7716ZM37.2916 3.36V0.94H48.9916V3.36H37.2916ZM48.5975 15V5.34H51.2175V15H48.5975ZM51.2175 9.66L50.1975 8.98C50.3175 7.79333 50.6642 6.86 51.2375 6.18C51.8108 5.48667 52.6375 5.14 53.7175 5.14C54.1842 5.14 54.6042 5.22 54.9775 5.38C55.3508 5.52667 55.6908 5.77333 55.9975 6.12L54.3575 8C54.2108 7.84 54.0308 7.72 53.8175 7.64C53.6175 7.56 53.3842 7.52 53.1175 7.52C52.5575 7.52 52.0975 7.7 51.7375 8.06C51.3908 8.40667 51.2175 8.94 51.2175 9.66ZM61.2644 15.2C60.251 15.2 59.351 14.9867 58.5644 14.56C57.7777 14.12 57.151 13.52 56.6844 12.76C56.231 12 56.0044 11.1333 56.0044 10.16C56.0044 9.2 56.2244 8.34667 56.6644 7.6C57.1177 6.84 57.731 6.24 58.5044 5.8C59.2777 5.34667 60.1377 5.12 61.0844 5.12C62.0177 5.12 62.8377 5.33333 63.5444 5.76C64.2644 6.17333 64.8244 6.74667 65.2244 7.48C65.6377 8.2 65.8444 9.02 65.8444 9.94C65.8444 10.1133 65.831 10.2933 65.8044 10.48C65.791 10.6533 65.7577 10.8533 65.7044 11.08L57.5844 11.1V9.14L64.4844 9.12L63.4244 9.94C63.3977 9.36667 63.291 8.88667 63.1044 8.5C62.931 8.11333 62.671 7.82 62.3244 7.62C61.991 7.40667 61.5777 7.3 61.0844 7.3C60.5644 7.3 60.111 7.42 59.7244 7.66C59.3377 7.88667 59.0377 8.21333 58.8244 8.64C58.6244 9.05333 58.5244 9.54667 58.5244 10.12C58.5244 10.7067 58.631 11.22 58.8444 11.66C59.071 12.0867 59.391 12.42 59.8044 12.66C60.2177 12.8867 60.6977 13 61.2444 13C61.7377 13 62.1844 12.92 62.5844 12.76C62.9844 12.5867 63.331 12.3333 63.6244 12L65.1644 13.54C64.6977 14.0867 64.1244 14.5 63.4444 14.78C62.7777 15.06 62.051 15.2 61.2644 15.2ZM73.9647 15V9.46C73.9647 8.88667 73.7847 8.42 73.4247 8.06C73.0647 7.7 72.598 7.52 72.0247 7.52C71.6514 7.52 71.318 7.6 71.0247 7.76C70.7314 7.92 70.498 8.14667 70.3247 8.44C70.1647 8.73333 70.0847 9.07333 70.0847 9.46L69.0647 8.94C69.0647 8.18 69.2247 7.52 69.5447 6.96C69.878 6.38667 70.3314 5.94 70.9047 5.62C71.4914 5.3 72.1514 5.14 72.8847 5.14C73.5914 5.14 74.2247 5.32 74.7847 5.68C75.3447 6.02667 75.7847 6.48667 76.1047 7.06C76.4247 7.62 76.5847 8.22667 76.5847 8.88V15H73.9647ZM67.4647 15V5.34H70.0847V15H67.4647ZM82.7752 15.2C81.8818 15.2 81.0818 14.98 80.3752 14.54C79.6685 14.1 79.1085 13.5 78.6952 12.74C78.2952 11.98 78.0952 11.1267 78.0952 10.18C78.0952 9.22 78.2952 8.36 78.6952 7.6C79.1085 6.84 79.6618 6.24 80.3552 5.8C81.0618 5.36 81.8685 5.14 82.7752 5.14C83.4685 5.14 84.0885 5.28 84.6352 5.56C85.1952 5.84 85.6418 6.23333 85.9752 6.74C86.3218 7.23333 86.5085 7.79333 86.5352 8.42V11.86C86.5085 12.4867 86.3285 13.0533 85.9952 13.56C85.6618 14.0667 85.2152 14.4667 84.6552 14.76C84.0952 15.0533 83.4685 15.2 82.7752 15.2ZM83.2152 12.78C83.7085 12.78 84.1352 12.6733 84.4952 12.46C84.8685 12.2333 85.1552 11.9267 85.3552 11.54C85.5685 11.14 85.6752 10.68 85.6752 10.16C85.6752 9.65333 85.5685 9.20667 85.3552 8.82C85.1552 8.42 84.8685 8.11333 84.4952 7.9C84.1352 7.67333 83.7152 7.56 83.2352 7.56C82.7418 7.56 82.3085 7.67333 81.9352 7.9C81.5752 8.12667 81.2885 8.43333 81.0752 8.82C80.8752 9.20667 80.7752 9.65333 80.7752 10.16C80.7752 10.68 80.8752 11.14 81.0752 11.54C81.2885 11.9267 81.5818 12.2333 81.9552 12.46C82.3285 12.6733 82.7485 12.78 83.2152 12.78ZM88.1352 15H85.5352V12.4L85.9552 10.04L85.5152 7.72V0.539999H88.1352V15ZM90.453 15V5.34H93.093V15H90.453ZM91.773 3.78C91.3463 3.78 90.993 3.64 90.713 3.36C90.433 3.06667 90.293 2.70667 90.293 2.28C90.293 1.86667 90.433 1.51333 90.713 1.22C90.993 0.926666 91.3463 0.779999 91.773 0.779999C92.213 0.779999 92.5663 0.926666 92.833 1.22C93.113 1.51333 93.253 1.86667 93.253 2.28C93.253 2.70667 93.113 3.06667 92.833 3.36C92.5663 3.64 92.213 3.78 91.773 3.78ZM101.914 15V9.46C101.914 8.88667 101.734 8.42 101.374 8.06C101.014 7.7 100.547 7.52 99.9739 7.52C99.6006 7.52 99.2672 7.6 98.9739 7.76C98.6806 7.92 98.4472 8.14667 98.2739 8.44C98.1139 8.73333 98.0339 9.07333 98.0339 9.46L97.0139 8.94C97.0139 8.18 97.1739 7.52 97.4939 6.96C97.8272 6.38667 98.2806 5.94 98.8539 5.62C99.4406 5.3 100.101 5.14 100.834 5.14C101.541 5.14 102.174 5.32 102.734 5.68C103.294 6.02667 103.734 6.48667 104.054 7.06C104.374 7.62 104.534 8.22667 104.534 8.88V15H101.914ZM95.4139 15V5.34H98.0339V15H95.4139ZM110.684 19.28C109.658 19.28 108.751 19.0933 107.964 18.72C107.178 18.36 106.551 17.8467 106.084 17.18L107.744 15.52C108.118 15.96 108.531 16.2933 108.984 16.52C109.451 16.76 110.011 16.88 110.664 16.88C111.478 16.88 112.118 16.6733 112.584 16.26C113.064 15.8467 113.304 15.2733 113.304 14.54V12.12L113.744 10L113.324 7.88V5.34H115.924V14.5C115.924 15.46 115.698 16.2933 115.244 17C114.804 17.72 114.191 18.28 113.404 18.68C112.618 19.08 111.711 19.28 110.684 19.28ZM110.564 14.74C109.698 14.74 108.918 14.5333 108.224 14.12C107.531 13.6933 106.984 13.1133 106.584 12.38C106.198 11.6467 106.004 10.8267 106.004 9.92C106.004 9.01333 106.198 8.2 106.584 7.48C106.984 6.76 107.531 6.19333 108.224 5.78C108.918 5.35333 109.698 5.14 110.564 5.14C111.284 5.14 111.918 5.28 112.464 5.56C113.024 5.84 113.464 6.22667 113.784 6.72C114.104 7.2 114.278 7.76667 114.304 8.42V11.46C114.278 12.1 114.098 12.6733 113.764 13.18C113.444 13.6733 113.004 14.06 112.444 14.34C111.898 14.6067 111.271 14.74 110.564 14.74ZM111.084 12.36C111.564 12.36 111.978 12.26 112.324 12.06C112.684 11.8467 112.964 11.56 113.164 11.2C113.364 10.8267 113.464 10.4067 113.464 9.94C113.464 9.46 113.364 9.04 113.164 8.68C112.964 8.32 112.684 8.04 112.324 7.84C111.978 7.62667 111.564 7.52 111.084 7.52C110.604 7.52 110.184 7.62667 109.824 7.84C109.464 8.04 109.184 8.32667 108.984 8.7C108.784 9.06 108.684 9.47333 108.684 9.94C108.684 10.3933 108.784 10.8067 108.984 11.18C109.184 11.54 109.464 11.8267 109.824 12.04C110.184 12.2533 110.604 12.36 111.084 12.36ZM124.413 9.78V7.56H127.673C128.099 7.56 128.486 7.47333 128.833 7.3C129.179 7.12667 129.453 6.88 129.653 6.56C129.853 6.22667 129.953 5.82667 129.953 5.36C129.953 4.90667 129.853 4.51333 129.653 4.18C129.453 3.84667 129.179 3.59333 128.833 3.42C128.486 3.24667 128.099 3.16 127.673 3.16H124.413V0.94H127.953C128.846 0.94 129.646 1.12 130.353 1.48C131.073 1.84 131.639 2.35333 132.053 3.02C132.466 3.67333 132.673 4.45333 132.673 5.36C132.673 6.26667 132.466 7.05333 132.053 7.72C131.639 8.37333 131.073 8.88 130.353 9.24C129.646 9.6 128.846 9.78 127.953 9.78H124.413ZM122.413 15V0.94H125.133V15H122.413ZM134.457 15V5.34H137.077V15H134.457ZM137.077 9.66L136.057 8.98C136.177 7.79333 136.524 6.86 137.097 6.18C137.67 5.48667 138.497 5.14 139.577 5.14C140.044 5.14 140.464 5.22 140.837 5.38C141.21 5.52667 141.55 5.77333 141.857 6.12L140.217 8C140.07 7.84 139.89 7.72 139.677 7.64C139.477 7.56 139.244 7.52 138.977 7.52C138.417 7.52 137.957 7.7 137.597 8.06C137.25 8.40667 137.077 8.94 137.077 9.66ZM147.044 15.2C146.07 15.2 145.19 14.98 144.404 14.54C143.63 14.0867 143.01 13.48 142.544 12.72C142.09 11.9467 141.864 11.0867 141.864 10.14C141.864 9.19333 142.09 8.34667 142.544 7.6C142.997 6.84 143.617 6.24 144.404 5.8C145.19 5.34667 146.064 5.12 147.024 5.12C148.01 5.12 148.89 5.34667 149.664 5.8C150.45 6.24 151.07 6.84 151.524 7.6C151.977 8.34667 152.204 9.19333 152.204 10.14C152.204 11.0867 151.977 11.9467 151.524 12.72C151.07 13.48 150.45 14.0867 149.664 14.54C148.89 14.98 148.017 15.2 147.044 15.2ZM147.024 12.76C147.517 12.76 147.95 12.6533 148.324 12.44C148.71 12.2133 149.004 11.9067 149.204 11.52C149.417 11.12 149.524 10.6667 149.524 10.16C149.524 9.65333 149.417 9.20667 149.204 8.82C148.99 8.43333 148.697 8.13333 148.324 7.92C147.95 7.69333 147.517 7.58 147.024 7.58C146.544 7.58 146.117 7.69333 145.744 7.92C145.37 8.13333 145.077 8.43333 144.864 8.82C144.65 9.20667 144.544 9.65333 144.544 10.16C144.544 10.6667 144.65 11.12 144.864 11.52C145.077 11.9067 145.37 12.2133 145.744 12.44C146.117 12.6533 146.544 12.76 147.024 12.76ZM157.97 15.2C157.077 15.2 156.277 14.98 155.57 14.54C154.864 14.1 154.304 13.5 153.89 12.74C153.49 11.98 153.29 11.1267 153.29 10.18C153.29 9.22 153.49 8.36 153.89 7.6C154.304 6.84 154.857 6.24 155.55 5.8C156.257 5.36 157.064 5.14 157.97 5.14C158.664 5.14 159.284 5.28 159.83 5.56C160.39 5.84 160.837 6.23333 161.17 6.74C161.517 7.23333 161.704 7.79333 161.73 8.42V11.86C161.704 12.4867 161.524 13.0533 161.19 13.56C160.857 14.0667 160.41 14.4667 159.85 14.76C159.29 15.0533 158.664 15.2 157.97 15.2ZM158.41 12.78C158.904 12.78 159.33 12.6733 159.69 12.46C160.064 12.2333 160.35 11.9267 160.55 11.54C160.764 11.14 160.87 10.68 160.87 10.16C160.87 9.65333 160.764 9.20667 160.55 8.82C160.35 8.42 160.064 8.11333 159.69 7.9C159.33 7.67333 158.91 7.56 158.43 7.56C157.937 7.56 157.504 7.67333 157.13 7.9C156.77 8.12667 156.484 8.43333 156.27 8.82C156.07 9.20667 155.97 9.65333 155.97 10.16C155.97 10.68 156.07 11.14 156.27 11.54C156.484 11.9267 156.777 12.2333 157.15 12.46C157.524 12.6733 157.944 12.78 158.41 12.78ZM163.33 15H160.73V12.4L161.15 10.04L160.71 7.72V0.539999H163.33V15ZM169.768 15.2C168.915 15.2 168.155 15.02 167.488 14.66C166.835 14.3 166.322 13.8 165.948 13.16C165.575 12.52 165.388 11.78 165.388 10.94V5.34H168.028V10.88C168.028 11.28 168.095 11.6267 168.228 11.92C168.362 12.2 168.562 12.4133 168.828 12.56C169.095 12.7067 169.408 12.78 169.768 12.78C170.315 12.78 170.742 12.6133 171.048 12.28C171.355 11.9467 171.508 11.48 171.508 10.88V5.34H174.128V10.94C174.128 11.7933 173.942 12.54 173.568 13.18C173.208 13.82 172.695 14.32 172.028 14.68C171.375 15.0267 170.622 15.2 169.768 15.2ZM180.775 15.2C179.788 15.2 178.901 14.98 178.115 14.54C177.328 14.1 176.708 13.5 176.255 12.74C175.801 11.98 175.575 11.1267 175.575 10.18C175.575 9.22 175.801 8.36 176.255 7.6C176.708 6.84 177.328 6.24 178.115 5.8C178.915 5.34667 179.801 5.12 180.775 5.12C181.535 5.12 182.235 5.26 182.875 5.54C183.515 5.82 184.068 6.22 184.535 6.74L182.855 8.44C182.601 8.16 182.295 7.94667 181.935 7.8C181.588 7.65333 181.201 7.58 180.775 7.58C180.295 7.58 179.861 7.69333 179.475 7.92C179.101 8.13333 178.801 8.43333 178.575 8.82C178.361 9.19333 178.255 9.64 178.255 10.16C178.255 10.6667 178.361 11.12 178.575 11.52C178.801 11.9067 179.101 12.2133 179.475 12.44C179.861 12.6533 180.295 12.76 180.775 12.76C181.215 12.76 181.608 12.6867 181.955 12.54C182.315 12.38 182.621 12.1533 182.875 11.86L184.575 13.56C184.081 14.0933 183.515 14.5 182.875 14.78C182.235 15.06 181.535 15.2 180.775 15.2ZM187.322 15V1.32H189.942V15H187.322ZM185.062 7.64V5.34H192.202V7.64H185.062ZM196.8 15.22C196.254 15.22 195.714 15.1467 195.18 15C194.66 14.8533 194.18 14.6533 193.74 14.4C193.3 14.1333 192.92 13.8133 192.6 13.44L194.16 11.86C194.494 12.2333 194.88 12.5133 195.32 12.7C195.76 12.8867 196.247 12.98 196.78 12.98C197.207 12.98 197.527 12.92 197.74 12.8C197.967 12.68 198.08 12.5 198.08 12.26C198.08 11.9933 197.96 11.7867 197.72 11.64C197.494 11.4933 197.194 11.3733 196.82 11.28C196.447 11.1733 196.054 11.06 195.64 10.94C195.24 10.8067 194.854 10.64 194.48 10.44C194.107 10.2267 193.8 9.94 193.56 9.58C193.334 9.20667 193.22 8.72667 193.22 8.14C193.22 7.52667 193.367 6.99333 193.66 6.54C193.967 6.08667 194.4 5.73333 194.96 5.48C195.52 5.22667 196.18 5.1 196.94 5.1C197.74 5.1 198.46 5.24 199.1 5.52C199.754 5.8 200.294 6.22 200.72 6.78L199.14 8.36C198.847 8 198.514 7.74 198.14 7.58C197.78 7.42 197.387 7.34 196.96 7.34C196.574 7.34 196.274 7.4 196.06 7.52C195.86 7.64 195.76 7.80667 195.76 8.02C195.76 8.26 195.874 8.44667 196.1 8.58C196.34 8.71333 196.647 8.83333 197.02 8.94C197.394 9.03333 197.78 9.14667 198.18 9.28C198.594 9.4 198.98 9.57333 199.34 9.8C199.714 10.0267 200.014 10.3267 200.24 10.7C200.48 11.0733 200.6 11.5533 200.6 12.14C200.6 13.0867 200.26 13.84 199.58 14.4C198.9 14.9467 197.974 15.22 196.8 15.22ZM206.553 15V0.94H209.273V15H206.553ZM208.553 9.24V6.82H215.633V9.24H208.553ZM208.553 3.34V0.94H215.973V3.34H208.553ZM217.836 15V5.34H220.456V15H217.836ZM220.456 9.66L219.436 8.98C219.556 7.79333 219.902 6.86 220.476 6.18C221.049 5.48667 221.876 5.14 222.956 5.14C223.422 5.14 223.842 5.22 224.216 5.38C224.589 5.52667 224.929 5.77333 225.236 6.12L223.596 8C223.449 7.84 223.269 7.72 223.056 7.64C222.856 7.56 222.622 7.52 222.356 7.52C221.796 7.52 221.336 7.7 220.976 8.06C220.629 8.40667 220.456 8.94 220.456 9.66ZM230.423 15.2C229.449 15.2 228.569 14.98 227.783 14.54C227.009 14.0867 226.389 13.48 225.923 12.72C225.469 11.9467 225.243 11.0867 225.243 10.14C225.243 9.19333 225.469 8.34667 225.923 7.6C226.376 6.84 226.996 6.24 227.783 5.8C228.569 5.34667 229.443 5.12 230.403 5.12C231.389 5.12 232.269 5.34667 233.043 5.8C233.829 6.24 234.449 6.84 234.903 7.6C235.356 8.34667 235.583 9.19333 235.583 10.14C235.583 11.0867 235.356 11.9467 234.903 12.72C234.449 13.48 233.829 14.0867 233.043 14.54C232.269 14.98 231.396 15.2 230.423 15.2ZM230.403 12.76C230.896 12.76 231.329 12.6533 231.703 12.44C232.089 12.2133 232.383 11.9067 232.583 11.52C232.796 11.12 232.903 10.6667 232.903 10.16C232.903 9.65333 232.796 9.20667 232.583 8.82C232.369 8.43333 232.076 8.13333 231.703 7.92C231.329 7.69333 230.896 7.58 230.403 7.58C229.923 7.58 229.496 7.69333 229.123 7.92C228.749 8.13333 228.456 8.43333 228.243 8.82C228.029 9.20667 227.923 9.65333 227.923 10.16C227.923 10.6667 228.029 11.12 228.243 11.52C228.456 11.9067 228.749 12.2133 229.123 12.44C229.496 12.6533 229.923 12.76 230.403 12.76ZM237.269 15V5.34H239.889V15H237.269ZM243.569 15V9.3C243.569 8.74 243.389 8.30667 243.029 8C242.683 7.68 242.249 7.52 241.729 7.52C241.383 7.52 241.069 7.59333 240.789 7.74C240.509 7.87333 240.289 8.07333 240.129 8.34C239.969 8.60667 239.889 8.92667 239.889 9.3L238.869 8.8C238.869 8.05333 239.029 7.40667 239.349 6.86C239.683 6.31333 240.129 5.89333 240.689 5.6C241.249 5.29333 241.883 5.14 242.589 5.14C243.256 5.14 243.863 5.29333 244.409 5.6C244.956 5.89333 245.389 6.31333 245.709 6.86C246.029 7.39333 246.189 8.04 246.189 8.8V15H243.569ZM249.869 15V9.3C249.869 8.74 249.689 8.30667 249.329 8C248.983 7.68 248.549 7.52 248.029 7.52C247.696 7.52 247.383 7.59333 247.089 7.74C246.809 7.87333 246.589 8.07333 246.429 8.34C246.269 8.60667 246.189 8.92667 246.189 9.3L244.689 8.94C244.743 8.16667 244.949 7.5 245.309 6.94C245.669 6.36667 246.143 5.92667 246.729 5.62C247.316 5.3 247.969 5.14 248.689 5.14C249.409 5.14 250.056 5.29333 250.629 5.6C251.203 5.89333 251.656 6.32 251.989 6.88C252.323 7.44 252.489 8.10667 252.489 8.88V15H249.869ZM63.0802 39V25.24H65.8202V39H63.0802ZM58.6002 27.36V24.94H70.3002V27.36H58.6002ZM69.9061 39V29.34H72.5261V39H69.9061ZM72.5261 33.66L71.5061 32.98C71.6261 31.7933 71.9728 30.86 72.5461 30.18C73.1194 29.4867 73.9461 29.14 75.0261 29.14C75.4928 29.14 75.9128 29.22 76.2861 29.38C76.6594 29.5267 76.9994 29.7733 77.3061 30.12L75.6661 32C75.5194 31.84 75.3394 31.72 75.1261 31.64C74.9261 31.56 74.6928 31.52 74.4261 31.52C73.8661 31.52 73.4061 31.7 73.0461 32.06C72.6994 32.4067 72.5261 32.94 72.5261 33.66ZM82.3464 39.2C81.4931 39.2 80.7331 39.02 80.0664 38.66C79.4131 38.3 78.8997 37.8 78.5264 37.16C78.1531 36.52 77.9664 35.78 77.9664 34.94V29.34H80.6064V34.88C80.6064 35.28 80.6731 35.6267 80.8064 35.92C80.9397 36.2 81.1397 36.4133 81.4064 36.56C81.6731 36.7067 81.9864 36.78 82.3464 36.78C82.8931 36.78 83.3197 36.6133 83.6264 36.28C83.9331 35.9467 84.0864 35.48 84.0864 34.88V29.34H86.7064V34.94C86.7064 35.7933 86.5197 36.54 86.1464 37.18C85.7864 37.82 85.2731 38.32 84.6064 38.68C83.9531 39.0267 83.1997 39.2 82.3464 39.2ZM92.1128 39.22C91.5661 39.22 91.0261 39.1467 90.4928 39C89.9728 38.8533 89.4928 38.6533 89.0528 38.4C88.6128 38.1333 88.2328 37.8133 87.9128 37.44L89.4728 35.86C89.8061 36.2333 90.1928 36.5133 90.6328 36.7C91.0728 36.8867 91.5595 36.98 92.0928 36.98C92.5195 36.98 92.8395 36.92 93.0528 36.8C93.2795 36.68 93.3928 36.5 93.3928 36.26C93.3928 35.9933 93.2728 35.7867 93.0328 35.64C92.8061 35.4933 92.5061 35.3733 92.1328 35.28C91.7595 35.1733 91.3661 35.06 90.9528 34.94C90.5528 34.8067 90.1661 34.64 89.7928 34.44C89.4195 34.2267 89.1128 33.94 88.8728 33.58C88.6461 33.2067 88.5328 32.7267 88.5328 32.14C88.5328 31.5267 88.6795 30.9933 88.9728 30.54C89.2795 30.0867 89.7128 29.7333 90.2728 29.48C90.8328 29.2267 91.4928 29.1 92.2528 29.1C93.0528 29.1 93.7728 29.24 94.4128 29.52C95.0661 29.8 95.6061 30.22 96.0328 30.78L94.4528 32.36C94.1595 32 93.8261 31.74 93.4528 31.58C93.0928 31.42 92.6995 31.34 92.2728 31.34C91.8861 31.34 91.5861 31.4 91.3728 31.52C91.1728 31.64 91.0728 31.8067 91.0728 32.02C91.0728 32.26 91.1861 32.4467 91.4128 32.58C91.6528 32.7133 91.9595 32.8333 92.3328 32.94C92.7061 33.0333 93.0928 33.1467 93.4928 33.28C93.9061 33.4 94.2928 33.5733 94.6528 33.8C95.0261 34.0267 95.3261 34.3267 95.5528 34.7C95.7928 35.0733 95.9128 35.5533 95.9128 36.14C95.9128 37.0867 95.5728 37.84 94.8928 38.4C94.2128 38.9467 93.2861 39.22 92.1128 39.22ZM99.0995 39V25.32H101.72V39H99.0995ZM96.8395 31.64V29.34H103.98V31.64H96.8395ZM109.839 39.2C108.825 39.2 107.925 38.9867 107.139 38.56C106.352 38.12 105.725 37.52 105.259 36.76C104.805 36 104.579 35.1333 104.579 34.16C104.579 33.2 104.799 32.3467 105.239 31.6C105.692 30.84 106.305 30.24 107.079 29.8C107.852 29.3467 108.712 29.12 109.659 29.12C110.592 29.12 111.412 29.3333 112.119 29.76C112.839 30.1733 113.399 30.7467 113.799 31.48C114.212 32.2 114.419 33.02 114.419 33.94C114.419 34.1133 114.405 34.2933 114.379 34.48C114.365 34.6533 114.332 34.8533 114.279 35.08L106.159 35.1V33.14L113.059 33.12L111.999 33.94C111.972 33.3667 111.865 32.8867 111.679 32.5C111.505 32.1133 111.245 31.82 110.899 31.62C110.565 31.4067 110.152 31.3 109.659 31.3C109.139 31.3 108.685 31.42 108.299 31.66C107.912 31.8867 107.612 32.2133 107.399 32.64C107.199 33.0533 107.099 33.5467 107.099 34.12C107.099 34.7067 107.205 35.22 107.419 35.66C107.645 36.0867 107.965 36.42 108.379 36.66C108.792 36.8867 109.272 37 109.819 37C110.312 37 110.759 36.92 111.159 36.76C111.559 36.5867 111.905 36.3333 112.199 36L113.739 37.54C113.272 38.0867 112.699 38.5 112.019 38.78C111.352 39.06 110.625 39.2 109.839 39.2ZM120.119 39.2C119.226 39.2 118.426 38.98 117.719 38.54C117.012 38.1 116.452 37.5 116.039 36.74C115.639 35.98 115.439 35.1267 115.439 34.18C115.439 33.22 115.639 32.36 116.039 31.6C116.452 30.84 117.006 30.24 117.699 29.8C118.406 29.36 119.212 29.14 120.119 29.14C120.812 29.14 121.432 29.28 121.979 29.56C122.539 29.84 122.986 30.2333 123.319 30.74C123.666 31.2333 123.852 31.7933 123.879 32.42V35.86C123.852 36.4867 123.672 37.0533 123.339 37.56C123.006 38.0667 122.559 38.4667 121.999 38.76C121.439 39.0533 120.812 39.2 120.119 39.2ZM120.559 36.78C121.052 36.78 121.479 36.6733 121.839 36.46C122.212 36.2333 122.499 35.9267 122.699 35.54C122.912 35.14 123.019 34.68 123.019 34.16C123.019 33.6533 122.912 33.2067 122.699 32.82C122.499 32.42 122.212 32.1133 121.839 31.9C121.479 31.6733 121.059 31.56 120.579 31.56C120.086 31.56 119.652 31.6733 119.279 31.9C118.919 32.1267 118.632 32.4333 118.419 32.82C118.219 33.2067 118.119 33.6533 118.119 34.16C118.119 34.68 118.219 35.14 118.419 35.54C118.632 35.9267 118.926 36.2333 119.299 36.46C119.672 36.6733 120.092 36.78 120.559 36.78ZM125.479 39H122.879V36.4L123.299 34.04L122.859 31.72V24.54H125.479V39ZM133.983 39V36.78H137.643C138.296 36.78 138.803 36.58 139.163 36.18C139.536 35.78 139.723 35.3067 139.723 34.76C139.723 34.3867 139.643 34.0467 139.483 33.74C139.323 33.4333 139.083 33.1933 138.763 33.02C138.456 32.8333 138.083 32.74 137.643 32.74H133.983V30.54H137.343C137.903 30.54 138.35 30.4 138.683 30.12C139.03 29.84 139.203 29.42 139.203 28.86C139.203 28.2867 139.03 27.86 138.683 27.58C138.35 27.3 137.903 27.16 137.343 27.16H133.983V24.94H137.663C138.596 24.94 139.376 25.1133 140.003 25.46C140.643 25.7933 141.123 26.24 141.443 26.8C141.763 27.3467 141.923 27.9467 141.923 28.6C141.923 29.4 141.676 30.0933 141.183 30.68C140.703 31.2533 139.996 31.68 139.063 31.96L139.183 31.08C140.223 31.3733 141.023 31.86 141.583 32.54C142.156 33.2067 142.443 34.0133 142.443 34.96C142.443 35.7067 142.256 36.3867 141.883 37C141.523 37.6 140.99 38.0867 140.283 38.46C139.59 38.82 138.743 39 137.743 39H133.983ZM131.983 39V24.94H134.683V39H131.983ZM144.32 39V29.34H146.94V39H144.32ZM146.94 33.66L145.92 32.98C146.04 31.7933 146.387 30.86 146.96 30.18C147.533 29.4867 148.36 29.14 149.44 29.14C149.907 29.14 150.327 29.22 150.7 29.38C151.073 29.5267 151.413 29.7733 151.72 30.12L150.08 32C149.933 31.84 149.753 31.72 149.54 31.64C149.34 31.56 149.107 31.52 148.84 31.52C148.28 31.52 147.82 31.7 147.46 32.06C147.113 32.4067 146.94 32.94 146.94 33.66ZM156.407 39.2C155.527 39.2 154.734 38.98 154.027 38.54C153.32 38.1 152.767 37.5 152.367 36.74C151.967 35.98 151.767 35.1267 151.767 34.18C151.767 33.22 151.967 32.36 152.367 31.6C152.767 30.84 153.32 30.24 154.027 29.8C154.734 29.36 155.527 29.14 156.407 29.14C157.1 29.14 157.72 29.28 158.267 29.56C158.814 29.84 159.247 30.2333 159.567 30.74C159.9 31.2333 160.08 31.7933 160.107 32.42V35.9C160.08 36.54 159.9 37.1067 159.567 37.6C159.247 38.0933 158.814 38.4867 158.267 38.78C157.72 39.06 157.1 39.2 156.407 39.2ZM156.887 36.78C157.62 36.78 158.214 36.54 158.667 36.06C159.12 35.5667 159.347 34.9333 159.347 34.16C159.347 33.6533 159.24 33.2067 159.027 32.82C158.827 32.42 158.54 32.1133 158.167 31.9C157.807 31.6733 157.38 31.56 156.887 31.56C156.407 31.56 155.98 31.6733 155.607 31.9C155.247 32.1133 154.96 32.42 154.747 32.82C154.547 33.2067 154.447 33.6533 154.447 34.16C154.447 34.68 154.547 35.14 154.747 35.54C154.96 35.9267 155.247 36.2333 155.607 36.46C155.98 36.6733 156.407 36.78 156.887 36.78ZM159.207 39V36.4L159.627 34.04L159.207 31.72V29.34H161.807V39H159.207ZM170.625 39V33.46C170.625 32.8867 170.445 32.42 170.085 32.06C169.725 31.7 169.258 31.52 168.685 31.52C168.312 31.52 167.978 31.6 167.685 31.76C167.392 31.92 167.158 32.1467 166.985 32.44C166.825 32.7333 166.745 33.0733 166.745 33.46L165.725 32.94C165.725 32.18 165.885 31.52 166.205 30.96C166.538 30.3867 166.992 29.94 167.565 29.62C168.152 29.3 168.812 29.14 169.545 29.14C170.252 29.14 170.885 29.32 171.445 29.68C172.005 30.0267 172.445 30.4867 172.765 31.06C173.085 31.62 173.245 32.2267 173.245 32.88V39H170.625ZM164.125 39V29.34H166.745V39H164.125ZM179.435 39.2C178.542 39.2 177.742 38.98 177.035 38.54C176.329 38.1 175.769 37.5 175.355 36.74C174.955 35.98 174.755 35.1267 174.755 34.18C174.755 33.22 174.955 32.36 175.355 31.6C175.769 30.84 176.322 30.24 177.015 29.8C177.722 29.36 178.529 29.14 179.435 29.14C180.129 29.14 180.749 29.28 181.295 29.56C181.855 29.84 182.302 30.2333 182.635 30.74C182.982 31.2333 183.169 31.7933 183.195 32.42V35.86C183.169 36.4867 182.989 37.0533 182.655 37.56C182.322 38.0667 181.875 38.4667 181.315 38.76C180.755 39.0533 180.129 39.2 179.435 39.2ZM179.875 36.78C180.369 36.78 180.795 36.6733 181.155 36.46C181.529 36.2333 181.815 35.9267 182.015 35.54C182.229 35.14 182.335 34.68 182.335 34.16C182.335 33.6533 182.229 33.2067 182.015 32.82C181.815 32.42 181.529 32.1133 181.155 31.9C180.795 31.6733 180.375 31.56 179.895 31.56C179.402 31.56 178.969 31.6733 178.595 31.9C178.235 32.1267 177.949 32.4333 177.735 32.82C177.535 33.2067 177.435 33.6533 177.435 34.16C177.435 34.68 177.535 35.14 177.735 35.54C177.949 35.9267 178.242 36.2333 178.615 36.46C178.989 36.6733 179.409 36.78 179.875 36.78ZM184.795 39H182.195V36.4L182.615 34.04L182.175 31.72V24.54H184.795V39ZM190.433 39.22C189.886 39.22 189.346 39.1467 188.813 39C188.293 38.8533 187.813 38.6533 187.373 38.4C186.933 38.1333 186.553 37.8133 186.233 37.44L187.793 35.86C188.126 36.2333 188.513 36.5133 188.953 36.7C189.393 36.8867 189.88 36.98 190.413 36.98C190.84 36.98 191.16 36.92 191.373 36.8C191.6 36.68 191.713 36.5 191.713 36.26C191.713 35.9933 191.593 35.7867 191.353 35.64C191.126 35.4933 190.826 35.3733 190.453 35.28C190.08 35.1733 189.686 35.06 189.273 34.94C188.873 34.8067 188.486 34.64 188.113 34.44C187.74 34.2267 187.433 33.94 187.193 33.58C186.966 33.2067 186.853 32.7267 186.853 32.14C186.853 31.5267 187 30.9933 187.293 30.54C187.6 30.0867 188.033 29.7333 188.593 29.48C189.153 29.2267 189.813 29.1 190.573 29.1C191.373 29.1 192.093 29.24 192.733 29.52C193.386 29.8 193.926 30.22 194.353 30.78L192.773 32.36C192.48 32 192.146 31.74 191.773 31.58C191.413 31.42 191.02 31.34 190.593 31.34C190.206 31.34 189.906 31.4 189.693 31.52C189.493 31.64 189.393 31.8067 189.393 32.02C189.393 32.26 189.506 32.4467 189.733 32.58C189.973 32.7133 190.28 32.8333 190.653 32.94C191.026 33.0333 191.413 33.1467 191.813 33.28C192.226 33.4 192.613 33.5733 192.973 33.8C193.346 34.0267 193.646 34.3267 193.873 34.7C194.113 35.0733 194.233 35.5533 194.233 36.14C194.233 37.0867 193.893 37.84 193.213 38.4C192.533 38.9467 191.606 39.22 190.433 39.22Z" fill="black"/>
</svg>
