<svg width="253" height="68" viewBox="0 0 253 68" fill="none" xmlns="http://www.w3.org/2000/svg">
<path d="M5.1743 15.2C4.04096 15.2 3.06763 15.0067 2.2543 14.62C1.4543 14.2333 0.72763 13.6533 0.0742969 12.88L1.8743 11.08C2.28763 11.6267 2.76763 12.0533 3.3143 12.36C3.86096 12.6533 4.52763 12.8 5.3143 12.8C6.02096 12.8 6.58096 12.66 6.9943 12.38C7.42096 12.1 7.6343 11.7133 7.6343 11.22C7.6343 10.7933 7.5143 10.4467 7.2743 10.18C7.0343 9.91333 6.7143 9.68667 6.3143 9.5C5.92763 9.31333 5.4943 9.14667 5.0143 9C4.54763 8.84 4.0743 8.66 3.5943 8.46C3.12763 8.26 2.6943 8.01333 2.2943 7.72C1.90763 7.41333 1.5943 7.02667 1.3543 6.56C1.1143 6.08 0.994297 5.48 0.994297 4.76C0.994297 3.90667 1.20096 3.18 1.6143 2.58C2.02763 1.98 2.5943 1.52 3.3143 1.2C4.0343 0.879999 4.84763 0.719999 5.7543 0.719999C6.7143 0.719999 7.58096 0.899999 8.3543 1.26C9.12763 1.62 9.76096 2.08667 10.2543 2.66L8.4543 4.46C8.04096 4.00667 7.6143 3.67333 7.1743 3.46C6.74763 3.24667 6.26096 3.14 5.7143 3.14C5.08763 3.14 4.5943 3.26 4.2343 3.5C3.8743 3.74 3.6943 4.08667 3.6943 4.54C3.6943 4.92667 3.8143 5.24 4.0543 5.48C4.2943 5.72 4.60763 5.92667 4.9943 6.1C5.3943 6.27333 5.82763 6.44 6.2943 6.6C6.7743 6.76 7.24763 6.94 7.7143 7.14C8.1943 7.34 8.62763 7.6 9.0143 7.92C9.4143 8.24 9.7343 8.65333 9.9743 9.16C10.2143 9.65333 10.3343 10.2667 10.3343 11C10.3343 12.3067 9.8743 13.3333 8.9543 14.08C8.0343 14.8267 6.7743 15.2 5.1743 15.2ZM16.7429 15.2C15.7296 15.2 14.8296 14.9867 14.0429 14.56C13.2562 14.12 12.6296 13.52 12.1629 12.76C11.7096 12 11.4829 11.1333 11.4829 10.16C11.4829 9.2 11.7029 8.34667 12.1429 7.6C12.5962 6.84 13.2096 6.24 13.9829 5.8C14.7562 5.34667 15.6162 5.12 16.5629 5.12C17.4962 5.12 18.3162 5.33333 19.0229 5.76C19.7429 6.17333 20.3029 6.74667 20.7029 7.48C21.1162 8.2 21.3229 9.02 21.3229 9.94C21.3229 10.1133 21.3096 10.2933 21.2829 10.48C21.2696 10.6533 21.2362 10.8533 21.1829 11.08L13.0629 11.1V9.14L19.9629 9.12L18.9029 9.94C18.8762 9.36667 18.7696 8.88667 18.5829 8.5C18.4096 8.11333 18.1496 7.82 17.8029 7.62C17.4696 7.40667 17.0562 7.3 16.5629 7.3C16.0429 7.3 15.5896 7.42 15.2029 7.66C14.8162 7.88667 14.5162 8.21333 14.3029 8.64C14.1029 9.05333 14.0029 9.54667 14.0029 10.12C14.0029 10.7067 14.1096 11.22 14.3229 11.66C14.5496 12.0867 14.8696 12.42 15.2829 12.66C15.6962 12.8867 16.1762 13 16.7229 13C17.2162 13 17.6629 12.92 18.0629 12.76C18.4629 12.5867 18.8096 12.3333 19.1029 12L20.6429 13.54C20.1762 14.0867 19.6029 14.5 18.9229 14.78C18.2562 15.06 17.5296 15.2 16.7429 15.2ZM22.9432 15V0.539999H25.5632V15H22.9432ZM27.8846 15V0.539999H30.5046V15H27.8846ZM40.8059 9.58L35.3659 0.94H38.5059L42.7259 7.86H40.9259L45.1459 0.94H48.2459L42.7459 9.58H40.8059ZM40.4459 15V8.12H43.1859V15H40.4459ZM51.3895 15.2C50.4161 15.2 49.5361 14.98 48.7495 14.54C47.9761 14.0867 47.3561 13.48 46.8895 12.72C46.4361 11.9467 46.2095 11.0867 46.2095 10.14C46.2095 9.19333 46.4361 8.34667 46.8895 7.6C47.3428 6.84 47.9628 6.24 48.7495 5.8C49.5361 5.34667 50.4095 5.12 51.3695 5.12C52.3561 5.12 53.2361 5.34667 54.0095 5.8C54.7961 6.24 55.4161 6.84 55.8695 7.6C56.3228 8.34667 56.5495 9.19333 56.5495 10.14C56.5495 11.0867 56.3228 11.9467 55.8695 12.72C55.4161 13.48 54.7961 14.0867 54.0095 14.54C53.2361 14.98 52.3628 15.2 51.3895 15.2ZM51.3695 12.76C51.8628 12.76 52.2961 12.6533 52.6695 12.44C53.0561 12.2133 53.3495 11.9067 53.5495 11.52C53.7628 11.12 53.8695 10.6667 53.8695 10.16C53.8695 9.65333 53.7628 9.20667 53.5495 8.82C53.3361 8.43333 53.0428 8.13333 52.6695 7.92C52.2961 7.69333 51.8628 7.58 51.3695 7.58C50.8895 7.58 50.4628 7.69333 50.0895 7.92C49.7161 8.13333 49.4228 8.43333 49.2095 8.82C48.9961 9.20667 48.8895 9.65333 48.8895 10.16C48.8895 10.6667 48.9961 11.12 49.2095 11.52C49.4228 11.9067 49.7161 12.2133 50.0895 12.44C50.4628 12.6533 50.8895 12.76 51.3695 12.76ZM62.3562 15.2C61.5028 15.2 60.7428 15.02 60.0762 14.66C59.4228 14.3 58.9095 13.8 58.5362 13.16C58.1628 12.52 57.9762 11.78 57.9762 10.94V5.34H60.6162V10.88C60.6162 11.28 60.6828 11.6267 60.8162 11.92C60.9495 12.2 61.1495 12.4133 61.4162 12.56C61.6828 12.7067 61.9962 12.78 62.3562 12.78C62.9028 12.78 63.3295 12.6133 63.6362 12.28C63.9428 11.9467 64.0962 11.48 64.0962 10.88V5.34H66.7162V10.94C66.7162 11.7933 66.5295 12.54 66.1562 13.18C65.7962 13.82 65.2828 14.32 64.6162 14.68C63.9628 15.0267 63.2095 15.2 62.3562 15.2ZM68.8026 15V5.34H71.4226V15H68.8026ZM71.4226 9.66L70.4026 8.98C70.5226 7.79333 70.8692 6.86 71.4426 6.18C72.0159 5.48667 72.8426 5.14 73.9226 5.14C74.3892 5.14 74.8092 5.22 75.1826 5.38C75.5559 5.52667 75.8959 5.77333 76.2026 6.12L74.5626 8C74.4159 7.84 74.2359 7.72 74.0226 7.64C73.8226 7.56 73.5892 7.52 73.3226 7.52C72.7626 7.52 72.3026 7.7 71.9426 8.06C71.5959 8.40667 71.4226 8.94 71.4226 9.66ZM83.6607 9.78V7.56H86.9207C87.3474 7.56 87.734 7.47333 88.0807 7.3C88.4274 7.12667 88.7007 6.88 88.9007 6.56C89.1007 6.22667 89.2007 5.82667 89.2007 5.36C89.2007 4.90667 89.1007 4.51333 88.9007 4.18C88.7007 3.84667 88.4274 3.59333 88.0807 3.42C87.734 3.24667 87.3474 3.16 86.9207 3.16H83.6607V0.94H87.2007C88.094 0.94 88.894 1.12 89.6007 1.48C90.3207 1.84 90.8874 2.35333 91.3007 3.02C91.714 3.67333 91.9207 4.45333 91.9207 5.36C91.9207 6.26667 91.714 7.05333 91.3007 7.72C90.8874 8.37333 90.3207 8.88 89.6007 9.24C88.894 9.6 88.094 9.78 87.2007 9.78H83.6607ZM81.6607 15V0.94H84.3807V15H81.6607ZM93.7049 15V5.34H96.3249V15H93.7049ZM96.3249 9.66L95.3049 8.98C95.4249 7.79333 95.7716 6.86 96.3449 6.18C96.9183 5.48667 97.7449 5.14 98.8249 5.14C99.2916 5.14 99.7116 5.22 100.085 5.38C100.458 5.52667 100.798 5.77333 101.105 6.12L99.4649 8C99.3183 7.84 99.1383 7.72 98.9249 7.64C98.7249 7.56 98.4916 7.52 98.2249 7.52C97.6649 7.52 97.2049 7.7 96.8449 8.06C96.4983 8.40667 96.3249 8.94 96.3249 9.66ZM106.292 15.2C105.318 15.2 104.438 14.98 103.652 14.54C102.878 14.0867 102.258 13.48 101.792 12.72C101.338 11.9467 101.112 11.0867 101.112 10.14C101.112 9.19333 101.338 8.34667 101.792 7.6C102.245 6.84 102.865 6.24 103.652 5.8C104.438 5.34667 105.312 5.12 106.272 5.12C107.258 5.12 108.138 5.34667 108.912 5.8C109.698 6.24 110.318 6.84 110.772 7.6C111.225 8.34667 111.452 9.19333 111.452 10.14C111.452 11.0867 111.225 11.9467 110.772 12.72C110.318 13.48 109.698 14.0867 108.912 14.54C108.138 14.98 107.265 15.2 106.292 15.2ZM106.272 12.76C106.765 12.76 107.198 12.6533 107.572 12.44C107.958 12.2133 108.252 11.9067 108.452 11.52C108.665 11.12 108.772 10.6667 108.772 10.16C108.772 9.65333 108.665 9.20667 108.452 8.82C108.238 8.43333 107.945 8.13333 107.572 7.92C107.198 7.69333 106.765 7.58 106.272 7.58C105.792 7.58 105.365 7.69333 104.992 7.92C104.618 8.13333 104.325 8.43333 104.112 8.82C103.898 9.20667 103.792 9.65333 103.792 10.16C103.792 10.6667 103.898 11.12 104.112 11.52C104.325 11.9067 104.618 12.2133 104.992 12.44C105.365 12.6533 105.792 12.76 106.272 12.76ZM117.219 15.2C116.325 15.2 115.525 14.98 114.819 14.54C114.112 14.1 113.552 13.5 113.139 12.74C112.739 11.98 112.539 11.1267 112.539 10.18C112.539 9.22 112.739 8.36 113.139 7.6C113.552 6.84 114.105 6.24 114.799 5.8C115.505 5.36 116.312 5.14 117.219 5.14C117.912 5.14 118.532 5.28 119.079 5.56C119.639 5.84 120.085 6.23333 120.419 6.74C120.765 7.23333 120.952 7.79333 120.979 8.42V11.86C120.952 12.4867 120.772 13.0533 120.439 13.56C120.105 14.0667 119.659 14.4667 119.099 14.76C118.539 15.0533 117.912 15.2 117.219 15.2ZM117.659 12.78C118.152 12.78 118.579 12.6733 118.939 12.46C119.312 12.2333 119.599 11.9267 119.799 11.54C120.012 11.14 120.119 10.68 120.119 10.16C120.119 9.65333 120.012 9.20667 119.799 8.82C119.599 8.42 119.312 8.11333 118.939 7.9C118.579 7.67333 118.159 7.56 117.679 7.56C117.185 7.56 116.752 7.67333 116.379 7.9C116.019 8.12667 115.732 8.43333 115.519 8.82C115.319 9.20667 115.219 9.65333 115.219 10.16C115.219 10.68 115.319 11.14 115.519 11.54C115.732 11.9267 116.025 12.2333 116.399 12.46C116.772 12.6733 117.192 12.78 117.659 12.78ZM122.579 15H119.979V12.4L120.399 10.04L119.959 7.72V0.539999H122.579V15ZM129.016 15.2C128.163 15.2 127.403 15.02 126.736 14.66C126.083 14.3 125.57 13.8 125.196 13.16C124.823 12.52 124.636 11.78 124.636 10.94V5.34H127.276V10.88C127.276 11.28 127.343 11.6267 127.476 11.92C127.61 12.2 127.81 12.4133 128.076 12.56C128.343 12.7067 128.656 12.78 129.016 12.78C129.563 12.78 129.99 12.6133 130.296 12.28C130.603 11.9467 130.756 11.48 130.756 10.88V5.34H133.376V10.94C133.376 11.7933 133.19 12.54 132.816 13.18C132.456 13.82 131.943 14.32 131.276 14.68C130.623 15.0267 129.87 15.2 129.016 15.2ZM140.023 15.2C139.036 15.2 138.149 14.98 137.363 14.54C136.576 14.1 135.956 13.5 135.503 12.74C135.049 11.98 134.823 11.1267 134.823 10.18C134.823 9.22 135.049 8.36 135.503 7.6C135.956 6.84 136.576 6.24 137.363 5.8C138.163 5.34667 139.049 5.12 140.023 5.12C140.783 5.12 141.483 5.26 142.123 5.54C142.763 5.82 143.316 6.22 143.783 6.74L142.103 8.44C141.849 8.16 141.543 7.94667 141.183 7.8C140.836 7.65333 140.449 7.58 140.023 7.58C139.543 7.58 139.109 7.69333 138.723 7.92C138.349 8.13333 138.049 8.43333 137.823 8.82C137.609 9.19333 137.503 9.64 137.503 10.16C137.503 10.6667 137.609 11.12 137.823 11.52C138.049 11.9067 138.349 12.2133 138.723 12.44C139.109 12.6533 139.543 12.76 140.023 12.76C140.463 12.76 140.856 12.6867 141.203 12.54C141.563 12.38 141.869 12.1533 142.123 11.86L143.823 13.56C143.329 14.0933 142.763 14.5 142.123 14.78C141.483 15.06 140.783 15.2 140.023 15.2ZM146.57 15V1.32H149.19V15H146.57ZM144.31 7.64V5.34H151.45V7.64H144.31ZM156.048 15.22C155.502 15.22 154.962 15.1467 154.428 15C153.908 14.8533 153.428 14.6533 152.988 14.4C152.548 14.1333 152.168 13.8133 151.848 13.44L153.408 11.86C153.742 12.2333 154.128 12.5133 154.568 12.7C155.008 12.8867 155.495 12.98 156.028 12.98C156.455 12.98 156.775 12.92 156.988 12.8C157.215 12.68 157.328 12.5 157.328 12.26C157.328 11.9933 157.208 11.7867 156.968 11.64C156.742 11.4933 156.442 11.3733 156.068 11.28C155.695 11.1733 155.302 11.06 154.888 10.94C154.488 10.8067 154.102 10.64 153.728 10.44C153.355 10.2267 153.048 9.94 152.808 9.58C152.582 9.20667 152.468 8.72667 152.468 8.14C152.468 7.52667 152.615 6.99333 152.908 6.54C153.215 6.08667 153.648 5.73333 154.208 5.48C154.768 5.22667 155.428 5.1 156.188 5.1C156.988 5.1 157.708 5.24 158.348 5.52C159.002 5.8 159.542 6.22 159.968 6.78L158.388 8.36C158.095 8 157.762 7.74 157.388 7.58C157.028 7.42 156.635 7.34 156.208 7.34C155.822 7.34 155.522 7.4 155.308 7.52C155.108 7.64 155.008 7.80667 155.008 8.02C155.008 8.26 155.122 8.44667 155.348 8.58C155.588 8.71333 155.895 8.83333 156.268 8.94C156.642 9.03333 157.028 9.14667 157.428 9.28C157.842 9.4 158.228 9.57333 158.588 9.8C158.962 10.0267 159.262 10.3267 159.488 10.7C159.728 11.0733 159.848 11.5533 159.848 12.14C159.848 13.0867 159.508 13.84 158.828 14.4C158.148 14.9467 157.222 15.22 156.048 15.22ZM172.321 15.2C171.295 15.2 170.341 15.02 169.461 14.66C168.581 14.2867 167.808 13.7733 167.141 13.12C166.488 12.4533 165.981 11.68 165.621 10.8C165.275 9.92 165.101 8.97333 165.101 7.96C165.101 6.94667 165.275 6 165.621 5.12C165.981 4.24 166.488 3.47333 167.141 2.82C167.808 2.16667 168.575 1.65333 169.441 1.28C170.321 0.906666 171.281 0.719999 172.321 0.719999C173.441 0.719999 174.428 0.906666 175.281 1.28C176.135 1.64 176.888 2.14 177.541 2.78L175.701 4.62C175.315 4.19333 174.841 3.86 174.281 3.62C173.721 3.38 173.068 3.26 172.321 3.26C171.668 3.26 171.068 3.37333 170.521 3.6C169.988 3.81333 169.521 4.13333 169.121 4.56C168.721 4.97333 168.415 5.47333 168.201 6.06C167.988 6.63333 167.881 7.26667 167.881 7.96C167.881 8.66667 167.988 9.30667 168.201 9.88C168.415 10.4533 168.721 10.9533 169.121 11.38C169.521 11.7933 169.988 12.1133 170.521 12.34C171.068 12.5667 171.668 12.68 172.321 12.68C173.108 12.68 173.781 12.56 174.341 12.32C174.915 12.08 175.395 11.74 175.781 11.3L177.621 13.14C176.968 13.7933 176.208 14.3 175.341 14.66C174.475 15.02 173.468 15.2 172.321 15.2ZM183.018 15.2C182.138 15.2 181.345 14.98 180.638 14.54C179.932 14.1 179.378 13.5 178.978 12.74C178.578 11.98 178.378 11.1267 178.378 10.18C178.378 9.22 178.578 8.36 178.978 7.6C179.378 6.84 179.932 6.24 180.638 5.8C181.345 5.36 182.138 5.14 183.018 5.14C183.712 5.14 184.332 5.28 184.878 5.56C185.425 5.84 185.858 6.23333 186.178 6.74C186.512 7.23333 186.692 7.79333 186.718 8.42V11.9C186.692 12.54 186.512 13.1067 186.178 13.6C185.858 14.0933 185.425 14.4867 184.878 14.78C184.332 15.06 183.712 15.2 183.018 15.2ZM183.498 12.78C184.232 12.78 184.825 12.54 185.278 12.06C185.732 11.5667 185.958 10.9333 185.958 10.16C185.958 9.65333 185.852 9.20667 185.638 8.82C185.438 8.42 185.152 8.11333 184.778 7.9C184.418 7.67333 183.992 7.56 183.498 7.56C183.018 7.56 182.592 7.67333 182.218 7.9C181.858 8.11333 181.572 8.42 181.358 8.82C181.158 9.20667 181.058 9.65333 181.058 10.16C181.058 10.68 181.158 11.14 181.358 11.54C181.572 11.9267 181.858 12.2333 182.218 12.46C182.592 12.6733 183.018 12.78 183.498 12.78ZM185.818 15V12.4L186.238 10.04L185.818 7.72V5.34H188.418V15H185.818ZM197.236 15V9.46C197.236 8.88667 197.056 8.42 196.696 8.06C196.336 7.7 195.87 7.52 195.296 7.52C194.923 7.52 194.59 7.6 194.296 7.76C194.003 7.92 193.77 8.14667 193.596 8.44C193.436 8.73333 193.356 9.07333 193.356 9.46L192.336 8.94C192.336 8.18 192.496 7.52 192.816 6.96C193.15 6.38667 193.603 5.94 194.176 5.62C194.763 5.3 195.423 5.14 196.156 5.14C196.863 5.14 197.496 5.32 198.056 5.68C198.616 6.02667 199.056 6.48667 199.376 7.06C199.696 7.62 199.856 8.22667 199.856 8.88V15H197.236ZM190.736 15V5.34H193.356V15H190.736ZM210.233 15.2C209.1 15.2 208.126 15.0067 207.313 14.62C206.513 14.2333 205.786 13.6533 205.133 12.88L206.933 11.08C207.346 11.6267 207.826 12.0533 208.373 12.36C208.92 12.6533 209.586 12.8 210.373 12.8C211.08 12.8 211.64 12.66 212.053 12.38C212.48 12.1 212.693 11.7133 212.693 11.22C212.693 10.7933 212.573 10.4467 212.333 10.18C212.093 9.91333 211.773 9.68667 211.373 9.5C210.986 9.31333 210.553 9.14667 210.073 9C209.606 8.84 209.133 8.66 208.653 8.46C208.186 8.26 207.753 8.01333 207.353 7.72C206.966 7.41333 206.653 7.02667 206.413 6.56C206.173 6.08 206.053 5.48 206.053 4.76C206.053 3.90667 206.26 3.18 206.673 2.58C207.086 1.98 207.653 1.52 208.373 1.2C209.093 0.879999 209.906 0.719999 210.813 0.719999C211.773 0.719999 212.64 0.899999 213.413 1.26C214.186 1.62 214.82 2.08667 215.313 2.66L213.513 4.46C213.1 4.00667 212.673 3.67333 212.233 3.46C211.806 3.24667 211.32 3.14 210.773 3.14C210.146 3.14 209.653 3.26 209.293 3.5C208.933 3.74 208.753 4.08667 208.753 4.54C208.753 4.92667 208.873 5.24 209.113 5.48C209.353 5.72 209.666 5.92667 210.053 6.1C210.453 6.27333 210.886 6.44 211.353 6.6C211.833 6.76 212.306 6.94 212.773 7.14C213.253 7.34 213.686 7.6 214.073 7.92C214.473 8.24 214.793 8.65333 215.033 9.16C215.273 9.65333 215.393 10.2667 215.393 11C215.393 12.3067 214.933 13.3333 214.013 14.08C213.093 14.8267 211.833 15.2 210.233 15.2ZM221.721 15.2C220.748 15.2 219.868 14.98 219.081 14.54C218.308 14.0867 217.688 13.48 217.221 12.72C216.768 11.9467 216.541 11.0867 216.541 10.14C216.541 9.19333 216.768 8.34667 217.221 7.6C217.675 6.84 218.295 6.24 219.081 5.8C219.868 5.34667 220.741 5.12 221.701 5.12C222.688 5.12 223.568 5.34667 224.341 5.8C225.128 6.24 225.748 6.84 226.201 7.6C226.655 8.34667 226.881 9.19333 226.881 10.14C226.881 11.0867 226.655 11.9467 226.201 12.72C225.748 13.48 225.128 14.0867 224.341 14.54C223.568 14.98 222.695 15.2 221.721 15.2ZM221.701 12.76C222.195 12.76 222.628 12.6533 223.001 12.44C223.388 12.2133 223.681 11.9067 223.881 11.52C224.095 11.12 224.201 10.6667 224.201 10.16C224.201 9.65333 224.095 9.20667 223.881 8.82C223.668 8.43333 223.375 8.13333 223.001 7.92C222.628 7.69333 222.195 7.58 221.701 7.58C221.221 7.58 220.795 7.69333 220.421 7.92C220.048 8.13333 219.755 8.43333 219.541 8.82C219.328 9.20667 219.221 9.65333 219.221 10.16C219.221 10.6667 219.328 11.12 219.541 11.52C219.755 11.9067 220.048 12.2133 220.421 12.44C220.795 12.6533 221.221 12.76 221.701 12.76ZM228.568 15V0.539999H231.188V15H228.568ZM236.65 15L232.39 5.34H235.27L238.33 13.3H236.91L239.99 5.34H242.77L238.53 15H236.65ZM248.305 15.2C247.292 15.2 246.392 14.9867 245.605 14.56C244.819 14.12 244.192 13.52 243.725 12.76C243.272 12 243.045 11.1333 243.045 10.16C243.045 9.2 243.265 8.34667 243.705 7.6C244.159 6.84 244.772 6.24 245.545 5.8C246.319 5.34667 247.179 5.12 248.125 5.12C249.059 5.12 249.879 5.33333 250.585 5.76C251.305 6.17333 251.865 6.74667 252.265 7.48C252.679 8.2 252.885 9.02 252.885 9.94C252.885 10.1133 252.872 10.2933 252.845 10.48C252.832 10.6533 252.799 10.8533 252.745 11.08L244.625 11.1V9.14L251.525 9.12L250.465 9.94C250.439 9.36667 250.332 8.88667 250.145 8.5C249.972 8.11333 249.712 7.82 249.365 7.62C249.032 7.40667 248.619 7.3 248.125 7.3C247.605 7.3 247.152 7.42 246.765 7.66C246.379 7.88667 246.079 8.21333 245.865 8.64C245.665 9.05333 245.565 9.54667 245.565 10.12C245.565 10.7067 245.672 11.22 245.885 11.66C246.112 12.0867 246.432 12.42 246.845 12.66C247.259 12.8867 247.739 13 248.285 13C248.779 13 249.225 12.92 249.625 12.76C250.025 12.5867 250.372 12.3333 250.665 12L252.205 13.54C251.739 14.0867 251.165 14.5 250.485 14.78C249.819 15.06 249.092 15.2 248.305 15.2ZM17.4074 33.58L11.9674 24.94H15.1074L19.3274 31.86H17.5274L21.7474 24.94H24.8474L19.3474 33.58H17.4074ZM17.0474 39V32.12H19.7874V39H17.0474ZM27.991 39.2C27.0177 39.2 26.1377 38.98 25.351 38.54C24.5777 38.0867 23.9577 37.48 23.491 36.72C23.0377 35.9467 22.811 35.0867 22.811 34.14C22.811 33.1933 23.0377 32.3467 23.491 31.6C23.9443 30.84 24.5643 30.24 25.351 29.8C26.1377 29.3467 27.011 29.12 27.971 29.12C28.9577 29.12 29.8377 29.3467 30.611 29.8C31.3977 30.24 32.0177 30.84 32.471 31.6C32.9243 32.3467 33.151 33.1933 33.151 34.14C33.151 35.0867 32.9243 35.9467 32.471 36.72C32.0177 37.48 31.3977 38.0867 30.611 38.54C29.8377 38.98 28.9643 39.2 27.991 39.2ZM27.971 36.76C28.4643 36.76 28.8977 36.6533 29.271 36.44C29.6577 36.2133 29.951 35.9067 30.151 35.52C30.3643 35.12 30.471 34.6667 30.471 34.16C30.471 33.6533 30.3643 33.2067 30.151 32.82C29.9377 32.4333 29.6443 32.1333 29.271 31.92C28.8977 31.6933 28.4643 31.58 27.971 31.58C27.491 31.58 27.0643 31.6933 26.691 31.92C26.3177 32.1333 26.0243 32.4333 25.811 32.82C25.5977 33.2067 25.491 33.6533 25.491 34.16C25.491 34.6667 25.5977 35.12 25.811 35.52C26.0243 35.9067 26.3177 36.2133 26.691 36.44C27.0643 36.6533 27.491 36.76 27.971 36.76ZM38.9577 39.2C38.1044 39.2 37.3444 39.02 36.6777 38.66C36.0244 38.3 35.5111 37.8 35.1377 37.16C34.7644 36.52 34.5777 35.78 34.5777 34.94V29.34H37.2177V34.88C37.2177 35.28 37.2844 35.6267 37.4177 35.92C37.5511 36.2 37.7511 36.4133 38.0177 36.56C38.2844 36.7067 38.5977 36.78 38.9577 36.78C39.5044 36.78 39.9311 36.6133 40.2377 36.28C40.5444 35.9467 40.6977 35.48 40.6977 34.88V29.34H43.3177V34.94C43.3177 35.7933 43.1311 36.54 42.7577 37.18C42.3977 37.82 41.8844 38.32 41.2177 38.68C40.5644 39.0267 39.8111 39.2 38.9577 39.2ZM45.4041 39V29.34H48.0241V39H45.4041ZM48.0241 33.66L47.0041 32.98C47.1241 31.7933 47.4708 30.86 48.0441 30.18C48.6175 29.4867 49.4441 29.14 50.5241 29.14C50.9908 29.14 51.4108 29.22 51.7841 29.38C52.1575 29.5267 52.4975 29.7733 52.8041 30.12L51.1641 32C51.0175 31.84 50.8375 31.72 50.6241 31.64C50.4241 31.56 50.1908 31.52 49.9241 31.52C49.3641 31.52 48.9041 31.7 48.5441 32.06C48.1975 32.4067 48.0241 32.94 48.0241 33.66ZM64.7823 39.2C63.7556 39.2 62.8023 39.02 61.9223 38.66C61.0423 38.2867 60.2689 37.7733 59.6023 37.12C58.9489 36.4533 58.4423 35.68 58.0823 34.8C57.7356 33.92 57.5623 32.9733 57.5623 31.96C57.5623 30.9467 57.7356 30 58.0823 29.12C58.4423 28.24 58.9489 27.4733 59.6023 26.82C60.2689 26.1667 61.0356 25.6533 61.9023 25.28C62.7823 24.9067 63.7423 24.72 64.7823 24.72C65.9023 24.72 66.8889 24.9067 67.7423 25.28C68.5956 25.64 69.3489 26.14 70.0023 26.78L68.1623 28.62C67.7756 28.1933 67.3023 27.86 66.7423 27.62C66.1823 27.38 65.5289 27.26 64.7823 27.26C64.1289 27.26 63.5289 27.3733 62.9823 27.6C62.4489 27.8133 61.9823 28.1333 61.5823 28.56C61.1823 28.9733 60.8756 29.4733 60.6623 30.06C60.4489 30.6333 60.3423 31.2667 60.3423 31.96C60.3423 32.6667 60.4489 33.3067 60.6623 33.88C60.8756 34.4533 61.1823 34.9533 61.5823 35.38C61.9823 35.7933 62.4489 36.1133 62.9823 36.34C63.5289 36.5667 64.1289 36.68 64.7823 36.68C65.5689 36.68 66.2423 36.56 66.8023 36.32C67.3756 36.08 67.8556 35.74 68.2423 35.3L70.0823 37.14C69.4289 37.7933 68.6689 38.3 67.8023 38.66C66.9356 39.02 65.9289 39.2 64.7823 39.2ZM71.6932 39V24.54H74.3132V39H71.6932ZM76.6346 39V29.34H79.2746V39H76.6346ZM77.9546 27.78C77.5279 27.78 77.1746 27.64 76.8946 27.36C76.6146 27.0667 76.4746 26.7067 76.4746 26.28C76.4746 25.8667 76.6146 25.5133 76.8946 25.22C77.1746 24.9267 77.5279 24.78 77.9546 24.78C78.3946 24.78 78.7479 24.9267 79.0146 25.22C79.2946 25.5133 79.4346 25.8667 79.4346 26.28C79.4346 26.7067 79.2946 27.0667 79.0146 27.36C78.7479 27.64 78.3946 27.78 77.9546 27.78ZM86.2155 39.2C85.2022 39.2 84.3022 38.9867 83.5155 38.56C82.7289 38.12 82.1022 37.52 81.6355 36.76C81.1822 36 80.9555 35.1333 80.9555 34.16C80.9555 33.2 81.1755 32.3467 81.6155 31.6C82.0689 30.84 82.6822 30.24 83.4555 29.8C84.2289 29.3467 85.0889 29.12 86.0355 29.12C86.9689 29.12 87.7889 29.3333 88.4955 29.76C89.2155 30.1733 89.7755 30.7467 90.1755 31.48C90.5889 32.2 90.7955 33.02 90.7955 33.94C90.7955 34.1133 90.7822 34.2933 90.7555 34.48C90.7422 34.6533 90.7089 34.8533 90.6555 35.08L82.5355 35.1V33.14L89.4355 33.12L88.3755 33.94C88.3489 33.3667 88.2422 32.8867 88.0555 32.5C87.8822 32.1133 87.6222 31.82 87.2755 31.62C86.9422 31.4067 86.5289 31.3 86.0355 31.3C85.5155 31.3 85.0622 31.42 84.6755 31.66C84.2889 31.8867 83.9889 32.2133 83.7755 32.64C83.5755 33.0533 83.4755 33.5467 83.4755 34.12C83.4755 34.7067 83.5822 35.22 83.7955 35.66C84.0222 36.0867 84.3422 36.42 84.7555 36.66C85.1689 36.8867 85.6489 37 86.1955 37C86.6889 37 87.1355 36.92 87.5355 36.76C87.9355 36.5867 88.2822 36.3333 88.5755 36L90.1155 37.54C89.6489 38.0867 89.0755 38.5 88.3955 38.78C87.7289 39.06 87.0022 39.2 86.2155 39.2ZM98.9159 39V33.46C98.9159 32.8867 98.7359 32.42 98.3759 32.06C98.0159 31.7 97.5492 31.52 96.9759 31.52C96.6025 31.52 96.2692 31.6 95.9759 31.76C95.6825 31.92 95.4492 32.1467 95.2759 32.44C95.1159 32.7333 95.0359 33.0733 95.0359 33.46L94.0159 32.94C94.0159 32.18 94.1759 31.52 94.4959 30.96C94.8292 30.3867 95.2825 29.94 95.8559 29.62C96.4425 29.3 97.1025 29.14 97.8359 29.14C98.5425 29.14 99.1759 29.32 99.7359 29.68C100.296 30.0267 100.736 30.4867 101.056 31.06C101.376 31.62 101.536 32.2267 101.536 32.88V39H98.9159ZM92.4159 39V29.34H95.0359V39H92.4159ZM104.949 39V25.32H107.569V39H104.949ZM102.689 31.64V29.34H109.829V31.64H102.689ZM111.492 30.22L112.892 27.6L113.732 27.36C113.639 27.5467 113.532 27.7 113.412 27.82C113.292 27.9267 113.152 27.98 112.992 27.98C112.646 27.98 112.326 27.84 112.032 27.56C111.752 27.2667 111.612 26.9 111.612 26.46C111.612 25.98 111.772 25.5733 112.092 25.24C112.412 24.9067 112.806 24.74 113.272 24.74C113.726 24.74 114.119 24.9067 114.452 25.24C114.786 25.5733 114.952 25.98 114.952 26.46C114.952 26.6467 114.912 26.8733 114.832 27.14C114.752 27.3933 114.606 27.72 114.392 28.12L112.852 30.96L111.492 30.22ZM118.998 39.22C118.451 39.22 117.911 39.1467 117.378 39C116.858 38.8533 116.378 38.6533 115.938 38.4C115.498 38.1333 115.118 37.8133 114.798 37.44L116.358 35.86C116.691 36.2333 117.078 36.5133 117.518 36.7C117.958 36.8867 118.444 36.98 118.978 36.98C119.404 36.98 119.724 36.92 119.938 36.8C120.164 36.68 120.278 36.5 120.278 36.26C120.278 35.9933 120.158 35.7867 119.918 35.64C119.691 35.4933 119.391 35.3733 119.018 35.28C118.644 35.1733 118.251 35.06 117.838 34.94C117.438 34.8067 117.051 34.64 116.678 34.44C116.304 34.2267 115.998 33.94 115.758 33.58C115.531 33.2067 115.418 32.7267 115.418 32.14C115.418 31.5267 115.564 30.9933 115.858 30.54C116.164 30.0867 116.598 29.7333 117.158 29.48C117.718 29.2267 118.378 29.1 119.138 29.1C119.938 29.1 120.658 29.24 121.298 29.52C121.951 29.8 122.491 30.22 122.918 30.78L121.338 32.36C121.044 32 120.711 31.74 120.338 31.58C119.978 31.42 119.584 31.34 119.158 31.34C118.771 31.34 118.471 31.4 118.258 31.52C118.058 31.64 117.958 31.8067 117.958 32.02C117.958 32.26 118.071 32.4467 118.298 32.58C118.538 32.7133 118.844 32.8333 119.218 32.94C119.591 33.0333 119.978 33.1467 120.378 33.28C120.791 33.4 121.178 33.5733 121.538 33.8C121.911 34.0267 122.211 34.3267 122.438 34.7C122.678 35.0733 122.798 35.5533 122.798 36.14C122.798 37.0867 122.458 37.84 121.778 38.4C121.098 38.9467 120.171 39.22 118.998 39.22ZM130.751 33.78V31.56H134.011C134.437 31.56 134.824 31.4733 135.171 31.3C135.517 31.1267 135.791 30.88 135.991 30.56C136.191 30.2267 136.291 29.8267 136.291 29.36C136.291 28.9067 136.191 28.5133 135.991 28.18C135.791 27.8467 135.517 27.5933 135.171 27.42C134.824 27.2467 134.437 27.16 134.011 27.16H130.751V24.94H134.291C135.184 24.94 135.984 25.12 136.691 25.48C137.411 25.84 137.977 26.3533 138.391 27.02C138.804 27.6733 139.011 28.4533 139.011 29.36C139.011 30.2667 138.804 31.0533 138.391 31.72C137.977 32.3733 137.411 32.88 136.691 33.24C135.984 33.6 135.184 33.78 134.291 33.78H130.751ZM128.751 39V24.94H131.471V39H128.751ZM140.795 39V29.34H143.415V39H140.795ZM143.415 33.66L142.395 32.98C142.515 31.7933 142.861 30.86 143.435 30.18C144.008 29.4867 144.835 29.14 145.915 29.14C146.381 29.14 146.801 29.22 147.175 29.38C147.548 29.5267 147.888 29.7733 148.195 30.12L146.555 32C146.408 31.84 146.228 31.72 146.015 31.64C145.815 31.56 145.581 31.52 145.315 31.52C144.755 31.52 144.295 31.7 143.935 32.06C143.588 32.4067 143.415 32.94 143.415 33.66ZM153.382 39.2C152.408 39.2 151.528 38.98 150.742 38.54C149.968 38.0867 149.348 37.48 148.882 36.72C148.428 35.9467 148.202 35.0867 148.202 34.14C148.202 33.1933 148.428 32.3467 148.882 31.6C149.335 30.84 149.955 30.24 150.742 29.8C151.528 29.3467 152.402 29.12 153.362 29.12C154.348 29.12 155.228 29.3467 156.002 29.8C156.788 30.24 157.408 30.84 157.862 31.6C158.315 32.3467 158.542 33.1933 158.542 34.14C158.542 35.0867 158.315 35.9467 157.862 36.72C157.408 37.48 156.788 38.0867 156.002 38.54C155.228 38.98 154.355 39.2 153.382 39.2ZM153.362 36.76C153.855 36.76 154.288 36.6533 154.662 36.44C155.048 36.2133 155.342 35.9067 155.542 35.52C155.755 35.12 155.862 34.6667 155.862 34.16C155.862 33.6533 155.755 33.2067 155.542 32.82C155.328 32.4333 155.035 32.1333 154.662 31.92C154.288 31.6933 153.855 31.58 153.362 31.58C152.882 31.58 152.455 31.6933 152.082 31.92C151.708 32.1333 151.415 32.4333 151.202 32.82C150.988 33.2067 150.882 33.6533 150.882 34.16C150.882 34.6667 150.988 35.12 151.202 35.52C151.415 35.9067 151.708 36.2133 152.082 36.44C152.455 36.6533 152.882 36.76 153.362 36.76ZM165.588 39.2C164.895 39.2 164.268 39.0533 163.708 38.76C163.148 38.4667 162.702 38.0667 162.368 37.56C162.035 37.0533 161.855 36.4867 161.828 35.86V32.42C161.855 31.7933 162.035 31.2333 162.368 30.74C162.715 30.2333 163.168 29.84 163.728 29.56C164.288 29.28 164.908 29.14 165.588 29.14C166.482 29.14 167.282 29.36 167.988 29.8C168.695 30.24 169.248 30.84 169.648 31.6C170.062 32.36 170.268 33.22 170.268 34.18C170.268 35.1267 170.062 35.98 169.648 36.74C169.248 37.5 168.695 38.1 167.988 38.54C167.282 38.98 166.482 39.2 165.588 39.2ZM165.148 36.78C165.628 36.78 166.048 36.6733 166.408 36.46C166.782 36.2333 167.068 35.9267 167.268 35.54C167.482 35.14 167.588 34.68 167.588 34.16C167.588 33.6533 167.482 33.2067 167.268 32.82C167.068 32.42 166.782 32.1133 166.408 31.9C166.035 31.6733 165.608 31.56 165.128 31.56C164.648 31.56 164.222 31.6733 163.848 31.9C163.488 32.1133 163.202 32.42 162.988 32.82C162.788 33.2067 162.688 33.6533 162.688 34.16C162.688 34.68 162.788 35.14 162.988 35.54C163.202 35.9267 163.495 36.2333 163.868 36.46C164.242 36.6733 164.668 36.78 165.148 36.78ZM160.228 39V24.54H162.848V31.72L162.408 34.04L162.828 36.4V39H160.228ZM171.986 39V24.54H174.606V39H171.986ZM181.548 39.2C180.534 39.2 179.634 38.9867 178.848 38.56C178.061 38.12 177.434 37.52 176.968 36.76C176.514 36 176.288 35.1333 176.288 34.16C176.288 33.2 176.508 32.3467 176.948 31.6C177.401 30.84 178.014 30.24 178.788 29.8C179.561 29.3467 180.421 29.12 181.368 29.12C182.301 29.12 183.121 29.3333 183.828 29.76C184.548 30.1733 185.108 30.7467 185.508 31.48C185.921 32.2 186.128 33.02 186.128 33.94C186.128 34.1133 186.114 34.2933 186.088 34.48C186.074 34.6533 186.041 34.8533 185.988 35.08L177.868 35.1V33.14L184.768 33.12L183.708 33.94C183.681 33.3667 183.574 32.8867 183.388 32.5C183.214 32.1133 182.954 31.82 182.608 31.62C182.274 31.4067 181.861 31.3 181.368 31.3C180.848 31.3 180.394 31.42 180.008 31.66C179.621 31.8867 179.321 32.2133 179.108 32.64C178.908 33.0533 178.808 33.5467 178.808 34.12C178.808 34.7067 178.914 35.22 179.128 35.66C179.354 36.0867 179.674 36.42 180.088 36.66C180.501 36.8867 180.981 37 181.528 37C182.021 37 182.468 36.92 182.868 36.76C183.268 36.5867 183.614 36.3333 183.908 36L185.448 37.54C184.981 38.0867 184.408 38.5 183.728 38.78C183.061 39.06 182.334 39.2 181.548 39.2ZM187.748 39V29.34H190.368V39H187.748ZM194.048 39V33.3C194.048 32.74 193.868 32.3067 193.508 32C193.161 31.68 192.728 31.52 192.208 31.52C191.861 31.52 191.548 31.5933 191.268 31.74C190.988 31.8733 190.768 32.0733 190.608 32.34C190.448 32.6067 190.368 32.9267 190.368 33.3L189.348 32.8C189.348 32.0533 189.508 31.4067 189.828 30.86C190.161 30.3133 190.608 29.8933 191.168 29.6C191.728 29.2933 192.361 29.14 193.068 29.14C193.735 29.14 194.341 29.2933 194.888 29.6C195.435 29.8933 195.868 30.3133 196.188 30.86C196.508 31.3933 196.668 32.04 196.668 32.8V39H194.048ZM200.348 39V33.3C200.348 32.74 200.168 32.3067 199.808 32C199.461 31.68 199.028 31.52 198.508 31.52C198.175 31.52 197.861 31.5933 197.568 31.74C197.288 31.8733 197.068 32.0733 196.908 32.34C196.748 32.6067 196.668 32.9267 196.668 33.3L195.168 32.94C195.221 32.1667 195.428 31.5 195.788 30.94C196.148 30.3667 196.621 29.9267 197.208 29.62C197.795 29.3 198.448 29.14 199.168 29.14C199.888 29.14 200.535 29.2933 201.108 29.6C201.681 29.8933 202.135 30.32 202.468 30.88C202.801 31.44 202.968 32.1067 202.968 32.88V39H200.348ZM208.412 39.22C207.865 39.22 207.325 39.1467 206.792 39C206.272 38.8533 205.792 38.6533 205.352 38.4C204.912 38.1333 204.532 37.8133 204.212 37.44L205.772 35.86C206.105 36.2333 206.492 36.5133 206.932 36.7C207.372 36.8867 207.858 36.98 208.392 36.98C208.818 36.98 209.138 36.92 209.352 36.8C209.578 36.68 209.692 36.5 209.692 36.26C209.692 35.9933 209.572 35.7867 209.332 35.64C209.105 35.4933 208.805 35.3733 208.432 35.28C208.058 35.1733 207.665 35.06 207.252 34.94C206.852 34.8067 206.465 34.64 206.092 34.44C205.718 34.2267 205.412 33.94 205.172 33.58C204.945 33.2067 204.832 32.7267 204.832 32.14C204.832 31.5267 204.978 30.9933 205.272 30.54C205.578 30.0867 206.012 29.7333 206.572 29.48C207.132 29.2267 207.792 29.1 208.552 29.1C209.352 29.1 210.072 29.24 210.712 29.52C211.365 29.8 211.905 30.22 212.332 30.78L210.752 32.36C210.458 32 210.125 31.74 209.752 31.58C209.392 31.42 208.998 31.34 208.572 31.34C208.185 31.34 207.885 31.4 207.672 31.52C207.472 31.64 207.372 31.8067 207.372 32.02C207.372 32.26 207.485 32.4467 207.712 32.58C207.952 32.7133 208.258 32.8333 208.632 32.94C209.005 33.0333 209.392 33.1467 209.792 33.28C210.205 33.4 210.592 33.5733 210.952 33.8C211.325 34.0267 211.625 34.3267 211.852 34.7C212.092 35.0733 212.212 35.5533 212.212 36.14C212.212 37.0867 211.872 37.84 211.192 38.4C210.512 38.9467 209.585 39.22 208.412 39.22ZM224.745 39.22C223.718 39.22 222.758 39.0333 221.865 38.66C220.985 38.2867 220.211 37.7733 219.545 37.12C218.891 36.4533 218.378 35.68 218.005 34.8C217.631 33.9067 217.445 32.9533 217.445 31.94C217.445 30.9267 217.625 29.9867 217.985 29.12C218.358 28.24 218.871 27.4733 219.525 26.82C220.191 26.1533 220.965 25.64 221.845 25.28C222.725 24.9067 223.678 24.72 224.705 24.72C225.745 24.72 226.705 24.9067 227.585 25.28C228.465 25.64 229.231 26.1533 229.885 26.82C230.551 27.4733 231.071 28.24 231.445 29.12C231.818 30 232.005 30.9467 232.005 31.96C232.005 32.9733 231.818 33.92 231.445 34.8C231.071 35.68 230.551 36.4533 229.885 37.12C229.231 37.7733 228.465 38.2867 227.585 38.66C226.718 39.0333 225.771 39.22 224.745 39.22ZM224.705 36.68C225.611 36.68 226.398 36.48 227.065 36.08C227.731 35.68 228.251 35.1267 228.625 34.42C229.011 33.7133 229.205 32.8867 229.205 31.94C229.205 31.2467 229.098 30.6133 228.885 30.04C228.671 29.4667 228.365 28.9733 227.965 28.56C227.565 28.1333 227.091 27.8067 226.545 27.58C225.998 27.3533 225.385 27.24 224.705 27.24C223.825 27.24 223.045 27.44 222.365 27.84C221.698 28.2267 221.171 28.7733 220.785 29.48C220.411 30.1867 220.225 31.0067 220.225 31.94C220.225 32.6467 220.331 33.2933 220.545 33.88C220.771 34.4667 221.078 34.9667 221.465 35.38C221.865 35.7933 222.338 36.1133 222.885 36.34C223.445 36.5667 224.051 36.68 224.705 36.68ZM233.881 39V29.34H236.501V39H233.881ZM236.501 33.66L235.481 32.98C235.601 31.7933 235.947 30.86 236.521 30.18C237.094 29.4867 237.921 29.14 239.001 29.14C239.467 29.14 239.887 29.22 240.261 29.38C240.634 29.5267 240.974 29.7733 241.281 30.12L239.641 32C239.494 31.84 239.314 31.72 239.101 31.64C238.901 31.56 238.667 31.52 238.401 31.52C237.841 31.52 237.381 31.7 237.021 32.06C236.674 32.4067 236.501 32.94 236.501 33.66ZM39.6588 63V48.94H42.3788V63H39.6588ZM44.9842 63V53.34H47.6042V63H44.9842ZM51.2842 63V57.3C51.2842 56.74 51.1042 56.3067 50.7442 56C50.3976 55.68 49.9642 55.52 49.4442 55.52C49.0976 55.52 48.7842 55.5933 48.5042 55.74C48.2242 55.8733 48.0042 56.0733 47.8442 56.34C47.6842 56.6067 47.6042 56.9267 47.6042 57.3L46.5842 56.8C46.5842 56.0533 46.7442 55.4067 47.0642 54.86C47.3976 54.3133 47.8442 53.8933 48.4042 53.6C48.9642 53.2933 49.5976 53.14 50.3042 53.14C50.9709 53.14 51.5776 53.2933 52.1242 53.6C52.6709 53.8933 53.1042 54.3133 53.4242 54.86C53.7442 55.3933 53.9042 56.04 53.9042 56.8V63H51.2842ZM57.5842 63V57.3C57.5842 56.74 57.4042 56.3067 57.0442 56C56.6976 55.68 56.2642 55.52 55.7442 55.52C55.4109 55.52 55.0976 55.5933 54.8042 55.74C54.5242 55.8733 54.3042 56.0733 54.1442 56.34C53.9842 56.6067 53.9042 56.9267 53.9042 57.3L52.4042 56.94C52.4576 56.1667 52.6642 55.5 53.0242 54.94C53.3842 54.3667 53.8576 53.9267 54.4442 53.62C55.0309 53.3 55.6842 53.14 56.4042 53.14C57.1242 53.14 57.7709 53.2933 58.3442 53.6C58.9176 53.8933 59.3709 54.32 59.7042 54.88C60.0376 55.44 60.2042 56.1067 60.2042 56.88V63H57.5842ZM67.688 63.2C66.9946 63.2 66.368 63.06 65.808 62.78C65.248 62.4867 64.8013 62.0933 64.468 61.6C64.1346 61.1067 63.9546 60.54 63.928 59.9V56.48C63.9546 55.84 64.1346 55.2733 64.468 54.78C64.8146 54.2733 65.2613 53.8733 65.808 53.58C66.368 53.2867 66.9946 53.14 67.688 53.14C68.5813 53.14 69.3813 53.36 70.088 53.8C70.7946 54.24 71.348 54.84 71.748 55.6C72.1613 56.36 72.368 57.22 72.368 58.18C72.368 59.1267 72.1613 59.98 71.748 60.74C71.348 61.5 70.7946 62.1 70.088 62.54C69.3813 62.98 68.5813 63.2 67.688 63.2ZM67.228 60.78C67.708 60.78 68.1346 60.6733 68.508 60.46C68.8813 60.2333 69.168 59.9267 69.368 59.54C69.5813 59.14 69.688 58.68 69.688 58.16C69.688 57.6533 69.5813 57.2067 69.368 56.82C69.168 56.42 68.8813 56.1133 68.508 55.9C68.1346 55.6733 67.708 55.56 67.228 55.56C66.7613 55.56 66.3413 55.6733 65.968 55.9C65.5946 56.1133 65.3013 56.42 65.088 56.82C64.888 57.2067 64.788 57.6533 64.788 58.16C64.788 58.68 64.888 59.14 65.088 59.54C65.3013 59.9267 65.588 60.2333 65.948 60.46C66.3213 60.6733 66.748 60.78 67.228 60.78ZM62.328 67.04V53.34H64.948V55.88L64.508 58.22L64.928 60.56V67.04H62.328ZM74.0858 63V53.34H76.7058V63H74.0858ZM76.7058 57.66L75.6858 56.98C75.8058 55.7933 76.1524 54.86 76.7258 54.18C77.2991 53.4867 78.1258 53.14 79.2058 53.14C79.6724 53.14 80.0924 53.22 80.4658 53.38C80.8391 53.5267 81.1791 53.7733 81.4858 54.12L79.8458 56C79.6991 55.84 79.5191 55.72 79.3058 55.64C79.1058 55.56 78.8724 55.52 78.6058 55.52C78.0458 55.52 77.5858 55.7 77.2258 56.06C76.8791 56.4067 76.7058 56.94 76.7058 57.66ZM86.6727 63.2C85.6993 63.2 84.8193 62.98 84.0327 62.54C83.2593 62.0867 82.6393 61.48 82.1727 60.72C81.7193 59.9467 81.4927 59.0867 81.4927 58.14C81.4927 57.1933 81.7193 56.3467 82.1727 55.6C82.626 54.84 83.246 54.24 84.0327 53.8C84.8193 53.3467 85.6927 53.12 86.6527 53.12C87.6393 53.12 88.5193 53.3467 89.2927 53.8C90.0793 54.24 90.6993 54.84 91.1527 55.6C91.606 56.3467 91.8327 57.1933 91.8327 58.14C91.8327 59.0867 91.606 59.9467 91.1527 60.72C90.6993 61.48 90.0793 62.0867 89.2927 62.54C88.5193 62.98 87.646 63.2 86.6727 63.2ZM86.6527 60.76C87.146 60.76 87.5793 60.6533 87.9527 60.44C88.3393 60.2133 88.6327 59.9067 88.8327 59.52C89.046 59.12 89.1527 58.6667 89.1527 58.16C89.1527 57.6533 89.046 57.2067 88.8327 56.82C88.6193 56.4333 88.326 56.1333 87.9527 55.92C87.5793 55.6933 87.146 55.58 86.6527 55.58C86.1727 55.58 85.746 55.6933 85.3727 55.92C84.9993 56.1333 84.706 56.4333 84.4927 56.82C84.2793 57.2067 84.1727 57.6533 84.1727 58.16C84.1727 58.6667 84.2793 59.12 84.4927 59.52C84.706 59.9067 84.9993 60.2133 85.3727 60.44C85.746 60.6533 86.1727 60.76 86.6527 60.76ZM96.3664 63L92.1064 53.34H94.9864L98.0464 61.3H96.6264L99.7064 53.34H102.486L98.2464 63H96.3664ZM108.022 63.2C107.009 63.2 106.109 62.9867 105.322 62.56C104.536 62.12 103.909 61.52 103.442 60.76C102.989 60 102.762 59.1333 102.762 58.16C102.762 57.2 102.982 56.3467 103.422 55.6C103.876 54.84 104.489 54.24 105.262 53.8C106.036 53.3467 106.896 53.12 107.842 53.12C108.776 53.12 109.596 53.3333 110.302 53.76C111.022 54.1733 111.582 54.7467 111.982 55.48C112.396 56.2 112.602 57.02 112.602 57.94C112.602 58.1133 112.589 58.2933 112.562 58.48C112.549 58.6533 112.516 58.8533 112.462 59.08L104.342 59.1V57.14L111.242 57.12L110.182 57.94C110.156 57.3667 110.049 56.8867 109.862 56.5C109.689 56.1133 109.429 55.82 109.082 55.62C108.749 55.4067 108.336 55.3 107.842 55.3C107.322 55.3 106.869 55.42 106.482 55.66C106.096 55.8867 105.796 56.2133 105.582 56.64C105.382 57.0533 105.282 57.5467 105.282 58.12C105.282 58.7067 105.389 59.22 105.602 59.66C105.829 60.0867 106.149 60.42 106.562 60.66C106.976 60.8867 107.456 61 108.002 61C108.496 61 108.942 60.92 109.342 60.76C109.742 60.5867 110.089 60.3333 110.382 60L111.922 61.54C111.456 62.0867 110.882 62.5 110.202 62.78C109.536 63.06 108.809 63.2 108.022 63.2ZM121.576 63V49.24H124.316V63H121.576ZM117.096 51.36V48.94H128.796V51.36H117.096ZM136.894 63V57.46C136.894 56.8867 136.714 56.42 136.354 56.06C135.994 55.7 135.528 55.52 134.954 55.52C134.581 55.52 134.248 55.6 133.954 55.76C133.661 55.92 133.428 56.1467 133.254 56.44C133.094 56.7333 133.014 57.0733 133.014 57.46L131.994 56.94C131.994 56.18 132.154 55.52 132.474 54.96C132.794 54.3867 133.234 53.94 133.794 53.62C134.368 53.3 135.021 53.14 135.754 53.14C136.488 53.14 137.134 53.3 137.694 53.62C138.268 53.94 138.714 54.38 139.034 54.94C139.354 55.5 139.514 56.1467 139.514 56.88V63H136.894ZM130.394 63V48.54H133.014V63H130.394ZM146.245 63.2C145.232 63.2 144.332 62.9867 143.545 62.56C142.758 62.12 142.132 61.52 141.665 60.76C141.212 60 140.985 59.1333 140.985 58.16C140.985 57.2 141.205 56.3467 141.645 55.6C142.098 54.84 142.712 54.24 143.485 53.8C144.258 53.3467 145.118 53.12 146.065 53.12C146.998 53.12 147.818 53.3333 148.525 53.76C149.245 54.1733 149.805 54.7467 150.205 55.48C150.618 56.2 150.825 57.02 150.825 57.94C150.825 58.1133 150.812 58.2933 150.785 58.48C150.772 58.6533 150.738 58.8533 150.685 59.08L142.565 59.1V57.14L149.465 57.12L148.405 57.94C148.378 57.3667 148.272 56.8867 148.085 56.5C147.912 56.1133 147.652 55.82 147.305 55.62C146.972 55.4067 146.558 55.3 146.065 55.3C145.545 55.3 145.092 55.42 144.705 55.66C144.318 55.8867 144.018 56.2133 143.805 56.64C143.605 57.0533 143.505 57.5467 143.505 58.12C143.505 58.7067 143.612 59.22 143.825 59.66C144.052 60.0867 144.372 60.42 144.785 60.66C145.198 60.8867 145.678 61 146.225 61C146.718 61 147.165 60.92 147.565 60.76C147.965 60.5867 148.312 60.3333 148.605 60L150.145 61.54C149.678 62.0867 149.105 62.5 148.425 62.78C147.758 63.06 147.032 63.2 146.245 63.2ZM152.445 63V53.34H155.085V63H152.445ZM153.765 51.78C153.338 51.78 152.985 51.64 152.705 51.36C152.425 51.0667 152.285 50.7067 152.285 50.28C152.285 49.8667 152.425 49.5133 152.705 49.22C152.985 48.9267 153.338 48.78 153.765 48.78C154.205 48.78 154.558 48.9267 154.825 49.22C155.105 49.5133 155.245 49.8667 155.245 50.28C155.245 50.7067 155.105 51.0667 154.825 51.36C154.558 51.64 154.205 51.78 153.765 51.78ZM157.406 63V53.34H160.026V63H157.406ZM160.026 57.66L159.006 56.98C159.126 55.7933 159.473 54.86 160.046 54.18C160.619 53.4867 161.446 53.14 162.526 53.14C162.993 53.14 163.413 53.22 163.786 53.38C164.159 53.5267 164.499 53.7733 164.806 54.12L163.166 56C163.019 55.84 162.839 55.72 162.626 55.64C162.426 55.56 162.193 55.52 161.926 55.52C161.366 55.52 160.906 55.7 160.546 56.06C160.199 56.4067 160.026 56.94 160.026 57.66ZM170.264 63V48.94H172.984V63H170.264ZM172.264 63V60.58H179.424V63H172.264ZM181.098 63V53.34H183.738V63H181.098ZM182.418 51.78C181.991 51.78 181.638 51.64 181.358 51.36C181.078 51.0667 180.938 50.7067 180.938 50.28C180.938 49.8667 181.078 49.5133 181.358 49.22C181.638 48.9267 181.991 48.78 182.418 48.78C182.858 48.78 183.211 48.9267 183.478 49.22C183.758 49.5133 183.898 49.8667 183.898 50.28C183.898 50.7067 183.758 51.0667 183.478 51.36C183.211 51.64 182.858 51.78 182.418 51.78ZM189.198 63L184.938 53.34H187.818L190.878 61.3H189.458L192.538 53.34H195.318L191.078 63H189.198ZM200.854 63.2C199.841 63.2 198.941 62.9867 198.154 62.56C197.368 62.12 196.741 61.52 196.274 60.76C195.821 60 195.594 59.1333 195.594 58.16C195.594 57.2 195.814 56.3467 196.254 55.6C196.708 54.84 197.321 54.24 198.094 53.8C198.868 53.3467 199.728 53.12 200.674 53.12C201.608 53.12 202.428 53.3333 203.134 53.76C203.854 54.1733 204.414 54.7467 204.814 55.48C205.228 56.2 205.434 57.02 205.434 57.94C205.434 58.1133 205.421 58.2933 205.394 58.48C205.381 58.6533 205.348 58.8533 205.294 59.08L197.174 59.1V57.14L204.074 57.12L203.014 57.94C202.988 57.3667 202.881 56.8867 202.694 56.5C202.521 56.1133 202.261 55.82 201.914 55.62C201.581 55.4067 201.168 55.3 200.674 55.3C200.154 55.3 199.701 55.42 199.314 55.66C198.928 55.8867 198.628 56.2133 198.414 56.64C198.214 57.0533 198.114 57.5467 198.114 58.12C198.114 58.7067 198.221 59.22 198.434 59.66C198.661 60.0867 198.981 60.42 199.394 60.66C199.808 60.8867 200.288 61 200.834 61C201.328 61 201.774 60.92 202.174 60.76C202.574 60.5867 202.921 60.3333 203.214 60L204.754 61.54C204.288 62.0867 203.714 62.5 203.034 62.78C202.368 63.06 201.641 63.2 200.854 63.2ZM210.375 63.22C209.828 63.22 209.288 63.1467 208.755 63C208.235 62.8533 207.755 62.6533 207.315 62.4C206.875 62.1333 206.495 61.8133 206.175 61.44L207.735 59.86C208.068 60.2333 208.455 60.5133 208.895 60.7C209.335 60.8867 209.821 60.98 210.355 60.98C210.781 60.98 211.101 60.92 211.315 60.8C211.541 60.68 211.655 60.5 211.655 60.26C211.655 59.9933 211.535 59.7867 211.295 59.64C211.068 59.4933 210.768 59.3733 210.395 59.28C210.021 59.1733 209.628 59.06 209.215 58.94C208.815 58.8067 208.428 58.64 208.055 58.44C207.681 58.2267 207.375 57.94 207.135 57.58C206.908 57.2067 206.795 56.7267 206.795 56.14C206.795 55.5267 206.941 54.9933 207.235 54.54C207.541 54.0867 207.975 53.7333 208.535 53.48C209.095 53.2267 209.755 53.1 210.515 53.1C211.315 53.1 212.035 53.24 212.675 53.52C213.328 53.8 213.868 54.22 214.295 54.78L212.715 56.36C212.421 56 212.088 55.74 211.715 55.58C211.355 55.42 210.961 55.34 210.535 55.34C210.148 55.34 209.848 55.4 209.635 55.52C209.435 55.64 209.335 55.8067 209.335 56.02C209.335 56.26 209.448 56.4467 209.675 56.58C209.915 56.7133 210.221 56.8333 210.595 56.94C210.968 57.0333 211.355 57.1467 211.755 57.28C212.168 57.4 212.555 57.5733 212.915 57.8C213.288 58.0267 213.588 58.3267 213.815 58.7C214.055 59.0733 214.175 59.5533 214.175 60.14C214.175 61.0867 213.835 61.84 213.155 62.4C212.475 62.9467 211.548 63.22 210.375 63.22Z" fill="black"/>
</svg>
