<svg width="278" height="64" viewBox="0 0 278 64" fill="none" xmlns="http://www.w3.org/2000/svg">
<path d="M0.359922 15V0.94H3.07992V15H0.359922ZM9.17992 15V0.94H11.8999V15H9.17992ZM2.07992 8.94V6.54H9.93992V8.94H2.07992ZM19.114 15.2C18.1007 15.2 17.2007 14.9867 16.414 14.56C15.6273 14.12 15.0007 13.52 14.534 12.76C14.0807 12 13.854 11.1333 13.854 10.16C13.854 9.2 14.074 8.34667 14.514 7.6C14.9673 6.84 15.5807 6.24 16.354 5.8C17.1273 5.34667 17.9873 5.12 18.934 5.12C19.8673 5.12 20.6873 5.33333 21.394 5.76C22.114 6.17333 22.674 6.74667 23.074 7.48C23.4873 8.2 23.694 9.02 23.694 9.94C23.694 10.1133 23.6807 10.2933 23.654 10.48C23.6407 10.6533 23.6073 10.8533 23.554 11.08L15.434 11.1V9.14L22.334 9.12L21.274 9.94C21.2473 9.36667 21.1407 8.88667 20.954 8.5C20.7807 8.11333 20.5207 7.82 20.174 7.62C19.8407 7.40667 19.4273 7.3 18.934 7.3C18.414 7.3 17.9607 7.42 17.574 7.66C17.1873 7.88667 16.8873 8.21333 16.674 8.64C16.474 9.05333 16.374 9.54667 16.374 10.12C16.374 10.7067 16.4807 11.22 16.694 11.66C16.9207 12.0867 17.2407 12.42 17.654 12.66C18.0673 12.8867 18.5473 13 19.094 13C19.5873 13 20.034 12.92 20.434 12.76C20.834 12.5867 21.1807 12.3333 21.474 12L23.014 13.54C22.5473 14.0867 21.974 14.5 21.294 14.78C20.6273 15.06 19.9007 15.2 19.114 15.2ZM25.3143 15V0.539999H27.9343V15H25.3143ZM35.6157 15.2C34.9224 15.2 34.2957 15.06 33.7357 14.78C33.1757 14.4867 32.729 14.0933 32.3957 13.6C32.0624 13.1067 31.8824 12.54 31.8557 11.9V8.48C31.8824 7.84 32.0624 7.27333 32.3957 6.78C32.7424 6.27333 33.189 5.87333 33.7357 5.58C34.2957 5.28667 34.9224 5.14 35.6157 5.14C36.509 5.14 37.309 5.36 38.0157 5.8C38.7224 6.24 39.2757 6.84 39.6757 7.6C40.089 8.36 40.2957 9.22 40.2957 10.18C40.2957 11.1267 40.089 11.98 39.6757 12.74C39.2757 13.5 38.7224 14.1 38.0157 14.54C37.309 14.98 36.509 15.2 35.6157 15.2ZM35.1557 12.78C35.6357 12.78 36.0624 12.6733 36.4357 12.46C36.809 12.2333 37.0957 11.9267 37.2957 11.54C37.509 11.14 37.6157 10.68 37.6157 10.16C37.6157 9.65333 37.509 9.20667 37.2957 8.82C37.0957 8.42 36.809 8.11333 36.4357 7.9C36.0624 7.67333 35.6357 7.56 35.1557 7.56C34.689 7.56 34.269 7.67333 33.8957 7.9C33.5224 8.11333 33.229 8.42 33.0157 8.82C32.8157 9.20667 32.7157 9.65333 32.7157 10.16C32.7157 10.68 32.8157 11.14 33.0157 11.54C33.229 11.9267 33.5157 12.2333 33.8757 12.46C34.249 12.6733 34.6757 12.78 35.1557 12.78ZM30.2557 19.04V5.34H32.8757V7.88L32.4357 10.22L32.8557 12.56V19.04H30.2557ZM49.9934 9.58L44.5534 0.94H47.6934L51.9134 7.86H50.1134L54.3334 0.94H57.4334L51.9334 9.58H49.9934ZM49.6334 15V8.12H52.3734V15H49.6334ZM60.577 15.2C59.6036 15.2 58.7236 14.98 57.937 14.54C57.1636 14.0867 56.5436 13.48 56.077 12.72C55.6236 11.9467 55.397 11.0867 55.397 10.14C55.397 9.19333 55.6236 8.34667 56.077 7.6C56.5303 6.84 57.1503 6.24 57.937 5.8C58.7236 5.34667 59.597 5.12 60.557 5.12C61.5436 5.12 62.4236 5.34667 63.197 5.8C63.9836 6.24 64.6036 6.84 65.057 7.6C65.5103 8.34667 65.737 9.19333 65.737 10.14C65.737 11.0867 65.5103 11.9467 65.057 12.72C64.6036 13.48 63.9836 14.0867 63.197 14.54C62.4236 14.98 61.5503 15.2 60.577 15.2ZM60.557 12.76C61.0503 12.76 61.4836 12.6533 61.857 12.44C62.2436 12.2133 62.537 11.9067 62.737 11.52C62.9503 11.12 63.057 10.6667 63.057 10.16C63.057 9.65333 62.9503 9.20667 62.737 8.82C62.5236 8.43333 62.2303 8.13333 61.857 7.92C61.4836 7.69333 61.0503 7.58 60.557 7.58C60.077 7.58 59.6503 7.69333 59.277 7.92C58.9036 8.13333 58.6103 8.43333 58.397 8.82C58.1836 9.20667 58.077 9.65333 58.077 10.16C58.077 10.6667 58.1836 11.12 58.397 11.52C58.6103 11.9067 58.9036 12.2133 59.277 12.44C59.6503 12.6533 60.077 12.76 60.557 12.76ZM71.5437 15.2C70.6903 15.2 69.9303 15.02 69.2637 14.66C68.6103 14.3 68.097 13.8 67.7237 13.16C67.3503 12.52 67.1637 11.78 67.1637 10.94V5.34H69.8037V10.88C69.8037 11.28 69.8703 11.6267 70.0037 11.92C70.137 12.2 70.337 12.4133 70.6037 12.56C70.8703 12.7067 71.1837 12.78 71.5437 12.78C72.0903 12.78 72.517 12.6133 72.8237 12.28C73.1303 11.9467 73.2837 11.48 73.2837 10.88V5.34H75.9037V10.94C75.9037 11.7933 75.717 12.54 75.3437 13.18C74.9837 13.82 74.4703 14.32 73.8037 14.68C73.1503 15.0267 72.397 15.2 71.5437 15.2ZM77.9901 15V5.34H80.6101V15H77.9901ZM80.6101 9.66L79.5901 8.98C79.7101 7.79333 80.0567 6.86 80.6301 6.18C81.2034 5.48667 82.0301 5.14 83.1101 5.14C83.5767 5.14 83.9967 5.22 84.3701 5.38C84.7434 5.52667 85.0834 5.77333 85.3901 6.12L83.7501 8C83.6034 7.84 83.4234 7.72 83.2101 7.64C83.0101 7.56 82.7767 7.52 82.5101 7.52C81.9501 7.52 81.4901 7.7 81.1301 8.06C80.7834 8.40667 80.6101 8.94 80.6101 9.66ZM97.3682 15.2C96.3415 15.2 95.3882 15.02 94.5082 14.66C93.6282 14.2867 92.8549 13.7733 92.1882 13.12C91.5349 12.4533 91.0282 11.68 90.6682 10.8C90.3215 9.92 90.1482 8.97333 90.1482 7.96C90.1482 6.94667 90.3215 6 90.6682 5.12C91.0282 4.24 91.5349 3.47333 92.1882 2.82C92.8549 2.16667 93.6215 1.65333 94.4882 1.28C95.3682 0.906666 96.3282 0.719999 97.3682 0.719999C98.4882 0.719999 99.4749 0.906666 100.328 1.28C101.182 1.64 101.935 2.14 102.588 2.78L100.748 4.62C100.362 4.19333 99.8882 3.86 99.3282 3.62C98.7682 3.38 98.1149 3.26 97.3682 3.26C96.7149 3.26 96.1149 3.37333 95.5682 3.6C95.0349 3.81333 94.5682 4.13333 94.1682 4.56C93.7682 4.97333 93.4615 5.47333 93.2482 6.06C93.0349 6.63333 92.9282 7.26667 92.9282 7.96C92.9282 8.66667 93.0349 9.30667 93.2482 9.88C93.4615 10.4533 93.7682 10.9533 94.1682 11.38C94.5682 11.7933 95.0349 12.1133 95.5682 12.34C96.1149 12.5667 96.7149 12.68 97.3682 12.68C98.1549 12.68 98.8282 12.56 99.3882 12.32C99.9615 12.08 100.442 11.74 100.828 11.3L102.668 13.14C102.015 13.7933 101.255 14.3 100.388 14.66C99.5215 15.02 98.5149 15.2 97.3682 15.2ZM104.279 15V0.539999H106.899V15H104.279ZM109.221 15V5.34H111.861V15H109.221ZM110.541 3.78C110.114 3.78 109.761 3.64 109.481 3.36C109.201 3.06667 109.061 2.70667 109.061 2.28C109.061 1.86667 109.201 1.51333 109.481 1.22C109.761 0.926666 110.114 0.779999 110.541 0.779999C110.981 0.779999 111.334 0.926666 111.601 1.22C111.881 1.51333 112.021 1.86667 112.021 2.28C112.021 2.70667 111.881 3.06667 111.601 3.36C111.334 3.64 110.981 3.78 110.541 3.78ZM118.801 15.2C117.788 15.2 116.888 14.9867 116.101 14.56C115.315 14.12 114.688 13.52 114.221 12.76C113.768 12 113.541 11.1333 113.541 10.16C113.541 9.2 113.761 8.34667 114.201 7.6C114.655 6.84 115.268 6.24 116.041 5.8C116.815 5.34667 117.675 5.12 118.621 5.12C119.555 5.12 120.375 5.33333 121.081 5.76C121.801 6.17333 122.361 6.74667 122.761 7.48C123.175 8.2 123.381 9.02 123.381 9.94C123.381 10.1133 123.368 10.2933 123.341 10.48C123.328 10.6533 123.295 10.8533 123.241 11.08L115.121 11.1V9.14L122.021 9.12L120.961 9.94C120.935 9.36667 120.828 8.88667 120.641 8.5C120.468 8.11333 120.208 7.82 119.861 7.62C119.528 7.40667 119.115 7.3 118.621 7.3C118.101 7.3 117.648 7.42 117.261 7.66C116.875 7.88667 116.575 8.21333 116.361 8.64C116.161 9.05333 116.061 9.54667 116.061 10.12C116.061 10.7067 116.168 11.22 116.381 11.66C116.608 12.0867 116.928 12.42 117.341 12.66C117.755 12.8867 118.235 13 118.781 13C119.275 13 119.721 12.92 120.121 12.76C120.521 12.5867 120.868 12.3333 121.161 12L122.701 13.54C122.235 14.0867 121.661 14.5 120.981 14.78C120.315 15.06 119.588 15.2 118.801 15.2ZM131.502 15V9.46C131.502 8.88667 131.322 8.42 130.962 8.06C130.602 7.7 130.135 7.52 129.562 7.52C129.188 7.52 128.855 7.6 128.562 7.76C128.268 7.92 128.035 8.14667 127.862 8.44C127.702 8.73333 127.622 9.07333 127.622 9.46L126.602 8.94C126.602 8.18 126.762 7.52 127.082 6.96C127.415 6.38667 127.868 5.94 128.442 5.62C129.028 5.3 129.688 5.14 130.422 5.14C131.128 5.14 131.762 5.32 132.322 5.68C132.882 6.02667 133.322 6.48667 133.642 7.06C133.962 7.62 134.122 8.22667 134.122 8.88V15H131.502ZM125.002 15V5.34H127.622V15H125.002ZM137.535 15V1.32H140.155V15H137.535ZM135.275 7.64V5.34H142.415V7.64H135.275ZM148.075 15V0.94H150.795V15H148.075ZM150.075 9.24V6.82H157.155V9.24H150.075ZM150.075 3.34V0.94H157.495V3.34H150.075ZM163.645 15.2C162.632 15.2 161.732 14.9867 160.945 14.56C160.159 14.12 159.532 13.52 159.065 12.76C158.612 12 158.385 11.1333 158.385 10.16C158.385 9.2 158.605 8.34667 159.045 7.6C159.499 6.84 160.112 6.24 160.885 5.8C161.659 5.34667 162.519 5.12 163.465 5.12C164.399 5.12 165.219 5.33333 165.925 5.76C166.645 6.17333 167.205 6.74667 167.605 7.48C168.019 8.2 168.225 9.02 168.225 9.94C168.225 10.1133 168.212 10.2933 168.185 10.48C168.172 10.6533 168.139 10.8533 168.085 11.08L159.965 11.1V9.14L166.865 9.12L165.805 9.94C165.779 9.36667 165.672 8.88667 165.485 8.5C165.312 8.11333 165.052 7.82 164.705 7.62C164.372 7.40667 163.959 7.3 163.465 7.3C162.945 7.3 162.492 7.42 162.105 7.66C161.719 7.88667 161.419 8.21333 161.205 8.64C161.005 9.05333 160.905 9.54667 160.905 10.12C160.905 10.7067 161.012 11.22 161.225 11.66C161.452 12.0867 161.772 12.42 162.185 12.66C162.599 12.8867 163.079 13 163.625 13C164.119 13 164.565 12.92 164.965 12.76C165.365 12.5867 165.712 12.3333 166.005 12L167.545 13.54C167.079 14.0867 166.505 14.5 165.825 14.78C165.159 15.06 164.432 15.2 163.645 15.2ZM174.466 15.2C173.452 15.2 172.552 14.9867 171.766 14.56C170.979 14.12 170.352 13.52 169.886 12.76C169.432 12 169.206 11.1333 169.206 10.16C169.206 9.2 169.426 8.34667 169.866 7.6C170.319 6.84 170.932 6.24 171.706 5.8C172.479 5.34667 173.339 5.12 174.286 5.12C175.219 5.12 176.039 5.33333 176.746 5.76C177.466 6.17333 178.026 6.74667 178.426 7.48C178.839 8.2 179.046 9.02 179.046 9.94C179.046 10.1133 179.032 10.2933 179.006 10.48C178.992 10.6533 178.959 10.8533 178.906 11.08L170.786 11.1V9.14L177.686 9.12L176.626 9.94C176.599 9.36667 176.492 8.88667 176.306 8.5C176.132 8.11333 175.872 7.82 175.526 7.62C175.192 7.40667 174.779 7.3 174.286 7.3C173.766 7.3 173.312 7.42 172.926 7.66C172.539 7.88667 172.239 8.21333 172.026 8.64C171.826 9.05333 171.726 9.54667 171.726 10.12C171.726 10.7067 171.832 11.22 172.046 11.66C172.272 12.0867 172.592 12.42 173.006 12.66C173.419 12.8867 173.899 13 174.446 13C174.939 13 175.386 12.92 175.786 12.76C176.186 12.5867 176.532 12.3333 176.826 12L178.366 13.54C177.899 14.0867 177.326 14.5 176.646 14.78C175.979 15.06 175.252 15.2 174.466 15.2ZM180.666 15V0.539999H183.286V15H180.666ZM196.314 15.2C195.287 15.2 194.334 15.02 193.454 14.66C192.574 14.2867 191.8 13.7733 191.134 13.12C190.48 12.4533 189.974 11.68 189.614 10.8C189.267 9.92 189.094 8.97333 189.094 7.96C189.094 6.94667 189.267 6 189.614 5.12C189.974 4.24 190.48 3.47333 191.134 2.82C191.8 2.16667 192.567 1.65333 193.434 1.28C194.314 0.906666 195.274 0.719999 196.314 0.719999C197.434 0.719999 198.42 0.906666 199.274 1.28C200.127 1.64 200.88 2.14 201.534 2.78L199.694 4.62C199.307 4.19333 198.834 3.86 198.274 3.62C197.714 3.38 197.06 3.26 196.314 3.26C195.66 3.26 195.06 3.37333 194.514 3.6C193.98 3.81333 193.514 4.13333 193.114 4.56C192.714 4.97333 192.407 5.47333 192.194 6.06C191.98 6.63333 191.874 7.26667 191.874 7.96C191.874 8.66667 191.98 9.30667 192.194 9.88C192.407 10.4533 192.714 10.9533 193.114 11.38C193.514 11.7933 193.98 12.1133 194.514 12.34C195.06 12.5667 195.66 12.68 196.314 12.68C197.1 12.68 197.774 12.56 198.334 12.32C198.907 12.08 199.387 11.74 199.774 11.3L201.614 13.14C200.96 13.7933 200.2 14.3 199.334 14.66C198.467 15.02 197.46 15.2 196.314 15.2ZM207.511 15.2C206.537 15.2 205.657 14.98 204.871 14.54C204.097 14.0867 203.477 13.48 203.011 12.72C202.557 11.9467 202.331 11.0867 202.331 10.14C202.331 9.19333 202.557 8.34667 203.011 7.6C203.464 6.84 204.084 6.24 204.871 5.8C205.657 5.34667 206.531 5.12 207.491 5.12C208.477 5.12 209.357 5.34667 210.131 5.8C210.917 6.24 211.537 6.84 211.991 7.6C212.444 8.34667 212.671 9.19333 212.671 10.14C212.671 11.0867 212.444 11.9467 211.991 12.72C211.537 13.48 210.917 14.0867 210.131 14.54C209.357 14.98 208.484 15.2 207.511 15.2ZM207.491 12.76C207.984 12.76 208.417 12.6533 208.791 12.44C209.177 12.2133 209.471 11.9067 209.671 11.52C209.884 11.12 209.991 10.6667 209.991 10.16C209.991 9.65333 209.884 9.20667 209.671 8.82C209.457 8.43333 209.164 8.13333 208.791 7.92C208.417 7.69333 207.984 7.58 207.491 7.58C207.011 7.58 206.584 7.69333 206.211 7.92C205.837 8.13333 205.544 8.43333 205.331 8.82C205.117 9.20667 205.011 9.65333 205.011 10.16C205.011 10.6667 205.117 11.12 205.331 11.52C205.544 11.9067 205.837 12.2133 206.211 12.44C206.584 12.6533 207.011 12.76 207.491 12.76ZM220.857 15V9.46C220.857 8.88667 220.677 8.42 220.317 8.06C219.957 7.7 219.491 7.52 218.917 7.52C218.544 7.52 218.211 7.6 217.917 7.76C217.624 7.92 217.391 8.14667 217.217 8.44C217.057 8.73333 216.977 9.07333 216.977 9.46L215.957 8.94C215.957 8.18 216.117 7.52 216.437 6.96C216.771 6.38667 217.224 5.94 217.797 5.62C218.384 5.3 219.044 5.14 219.777 5.14C220.484 5.14 221.117 5.32 221.677 5.68C222.237 6.02667 222.677 6.48667 222.997 7.06C223.317 7.62 223.477 8.22667 223.477 8.88V15H220.857ZM214.357 15V5.34H216.977V15H214.357ZM226.751 15V4C226.751 3.30667 226.904 2.68667 227.211 2.14C227.517 1.58 227.944 1.14 228.491 0.819999C229.051 0.486666 229.711 0.319999 230.471 0.319999C230.951 0.319999 231.377 0.393333 231.751 0.539999C232.137 0.686666 232.504 0.9 232.851 1.18L231.351 3.02C231.231 2.92667 231.097 2.86 230.951 2.82C230.817 2.76667 230.657 2.74 230.471 2.74C230.124 2.74 229.851 2.84667 229.651 3.06C229.464 3.26 229.371 3.54 229.371 3.9V15H226.751ZM224.511 7.64V5.34H234.091V7.64H224.511ZM232.831 15V5.34H235.451V15H232.831ZM234.131 4.56C233.717 4.56 233.371 4.42 233.091 4.14C232.824 3.86 232.691 3.51333 232.691 3.1C232.691 2.68667 232.824 2.34 233.091 2.06C233.371 1.78 233.717 1.64 234.131 1.64C234.557 1.64 234.904 1.78 235.171 2.06C235.437 2.34 235.571 2.68667 235.571 3.1C235.571 3.51333 235.437 3.86 235.171 4.14C234.904 4.42 234.557 4.56 234.131 4.56ZM241.855 15.2C240.962 15.2 240.162 14.98 239.455 14.54C238.749 14.1 238.189 13.5 237.775 12.74C237.375 11.98 237.175 11.1267 237.175 10.18C237.175 9.22 237.375 8.36 237.775 7.6C238.189 6.84 238.742 6.24 239.435 5.8C240.142 5.36 240.949 5.14 241.855 5.14C242.549 5.14 243.169 5.28 243.715 5.56C244.275 5.84 244.722 6.23333 245.055 6.74C245.402 7.23333 245.589 7.79333 245.615 8.42V11.86C245.589 12.4867 245.409 13.0533 245.075 13.56C244.742 14.0667 244.295 14.4667 243.735 14.76C243.175 15.0533 242.549 15.2 241.855 15.2ZM242.295 12.78C242.789 12.78 243.215 12.6733 243.575 12.46C243.949 12.2333 244.235 11.9267 244.435 11.54C244.649 11.14 244.755 10.68 244.755 10.16C244.755 9.65333 244.649 9.20667 244.435 8.82C244.235 8.42 243.949 8.11333 243.575 7.9C243.215 7.67333 242.795 7.56 242.315 7.56C241.822 7.56 241.389 7.67333 241.015 7.9C240.655 8.12667 240.369 8.43333 240.155 8.82C239.955 9.20667 239.855 9.65333 239.855 10.16C239.855 10.68 239.955 11.14 240.155 11.54C240.369 11.9267 240.662 12.2333 241.035 12.46C241.409 12.6733 241.829 12.78 242.295 12.78ZM247.215 15H244.615V12.4L245.035 10.04L244.595 7.72V0.539999H247.215V15ZM254.153 15.2C253.14 15.2 252.24 14.9867 251.453 14.56C250.666 14.12 250.04 13.52 249.573 12.76C249.12 12 248.893 11.1333 248.893 10.16C248.893 9.2 249.113 8.34667 249.553 7.6C250.006 6.84 250.62 6.24 251.393 5.8C252.166 5.34667 253.026 5.12 253.973 5.12C254.906 5.12 255.726 5.33333 256.433 5.76C257.153 6.17333 257.713 6.74667 258.113 7.48C258.526 8.2 258.733 9.02 258.733 9.94C258.733 10.1133 258.72 10.2933 258.693 10.48C258.68 10.6533 258.646 10.8533 258.593 11.08L250.473 11.1V9.14L257.373 9.12L256.313 9.94C256.286 9.36667 256.18 8.88667 255.993 8.5C255.82 8.11333 255.56 7.82 255.213 7.62C254.88 7.40667 254.466 7.3 253.973 7.3C253.453 7.3 253 7.42 252.613 7.66C252.226 7.88667 251.926 8.21333 251.713 8.64C251.513 9.05333 251.413 9.54667 251.413 10.12C251.413 10.7067 251.52 11.22 251.733 11.66C251.96 12.0867 252.28 12.42 252.693 12.66C253.106 12.8867 253.586 13 254.133 13C254.626 13 255.073 12.92 255.473 12.76C255.873 12.5867 256.22 12.3333 256.513 12L258.053 13.54C257.586 14.0867 257.013 14.5 256.333 14.78C255.666 15.06 254.94 15.2 254.153 15.2ZM266.853 15V9.46C266.853 8.88667 266.673 8.42 266.313 8.06C265.953 7.7 265.487 7.52 264.913 7.52C264.54 7.52 264.207 7.6 263.913 7.76C263.62 7.92 263.387 8.14667 263.213 8.44C263.053 8.73333 262.973 9.07333 262.973 9.46L261.953 8.94C261.953 8.18 262.113 7.52 262.433 6.96C262.767 6.38667 263.22 5.94 263.793 5.62C264.38 5.3 265.04 5.14 265.773 5.14C266.48 5.14 267.113 5.32 267.673 5.68C268.233 6.02667 268.673 6.48667 268.993 7.06C269.313 7.62 269.473 8.22667 269.473 8.88V15H266.853ZM260.353 15V5.34H262.973V15H260.353ZM272.887 15V1.32H275.507V15H272.887ZM270.627 7.64V5.34H277.767V7.64H270.627ZM30.9313 39L36.5913 24.94H38.8113L44.4513 39H41.5512L37.1913 27.46H38.1913L33.7713 39H30.9313ZM33.9313 36.38V34.1H41.4913V36.38H33.9313ZM52.4881 39V33.46C52.4881 32.8867 52.3081 32.42 51.9481 32.06C51.5881 31.7 51.1215 31.52 50.5481 31.52C50.1748 31.52 49.8415 31.6 49.5481 31.76C49.2548 31.92 49.0215 32.1467 48.8481 32.44C48.6881 32.7333 48.6081 33.0733 48.6081 33.46L47.5881 32.94C47.5881 32.18 47.7481 31.52 48.0681 30.96C48.4015 30.3867 48.8548 29.94 49.4281 29.62C50.0148 29.3 50.6748 29.14 51.4081 29.14C52.1148 29.14 52.7481 29.32 53.3081 29.68C53.8681 30.0267 54.3081 30.4867 54.6281 31.06C54.9481 31.62 55.1081 32.2267 55.1081 32.88V39H52.4881ZM45.9881 39V29.34H48.6081V39H45.9881ZM61.2986 39.2C60.4053 39.2 59.6053 38.98 58.8986 38.54C58.1919 38.1 57.6319 37.5 57.2186 36.74C56.8186 35.98 56.6186 35.1267 56.6186 34.18C56.6186 33.22 56.8186 32.36 57.2186 31.6C57.6319 30.84 58.1853 30.24 58.8786 29.8C59.5853 29.36 60.3919 29.14 61.2986 29.14C61.9919 29.14 62.6119 29.28 63.1586 29.56C63.7186 29.84 64.1653 30.2333 64.4986 30.74C64.8453 31.2333 65.0319 31.7933 65.0586 32.42V35.86C65.0319 36.4867 64.8519 37.0533 64.5186 37.56C64.1853 38.0667 63.7386 38.4667 63.1786 38.76C62.6186 39.0533 61.9919 39.2 61.2986 39.2ZM61.7386 36.78C62.2319 36.78 62.6586 36.6733 63.0186 36.46C63.3919 36.2333 63.6786 35.9267 63.8786 35.54C64.0919 35.14 64.1986 34.68 64.1986 34.16C64.1986 33.6533 64.0919 33.2067 63.8786 32.82C63.6786 32.42 63.3919 32.1133 63.0186 31.9C62.6586 31.6733 62.2386 31.56 61.7586 31.56C61.2653 31.56 60.8319 31.6733 60.4586 31.9C60.0986 32.1267 59.8119 32.4333 59.5986 32.82C59.3986 33.2067 59.2986 33.6533 59.2986 34.16C59.2986 34.68 59.3986 35.14 59.5986 35.54C59.8119 35.9267 60.1053 36.2333 60.4786 36.46C60.8519 36.6733 61.2719 36.78 61.7386 36.78ZM66.6586 39H64.0586V36.4L64.4786 34.04L64.0386 31.72V24.54H66.6586V39ZM75.1627 39V36.78H78.8227C79.476 36.78 79.9827 36.58 80.3427 36.18C80.716 35.78 80.9027 35.3067 80.9027 34.76C80.9027 34.3867 80.8227 34.0467 80.6627 33.74C80.5027 33.4333 80.2627 33.1933 79.9427 33.02C79.636 32.8333 79.2627 32.74 78.8227 32.74H75.1627V30.54H78.5227C79.0827 30.54 79.5293 30.4 79.8627 30.12C80.2093 29.84 80.3827 29.42 80.3827 28.86C80.3827 28.2867 80.2093 27.86 79.8627 27.58C79.5293 27.3 79.0827 27.16 78.5227 27.16H75.1627V24.94H78.8427C79.776 24.94 80.556 25.1133 81.1827 25.46C81.8227 25.7933 82.3027 26.24 82.6227 26.8C82.9427 27.3467 83.1027 27.9467 83.1027 28.6C83.1027 29.4 82.856 30.0933 82.3627 30.68C81.8827 31.2533 81.176 31.68 80.2427 31.96L80.3627 31.08C81.4027 31.3733 82.2027 31.86 82.7627 32.54C83.336 33.2067 83.6227 34.0133 83.6227 34.96C83.6227 35.7067 83.436 36.3867 83.0627 37C82.7027 37.6 82.1693 38.0867 81.4627 38.46C80.7693 38.82 79.9227 39 78.9227 39H75.1627ZM73.1627 39V24.94H75.8627V39H73.1627ZM90.1198 39.2C89.1065 39.2 88.2065 38.9867 87.4198 38.56C86.6332 38.12 86.0065 37.52 85.5398 36.76C85.0865 36 84.8598 35.1333 84.8598 34.16C84.8598 33.2 85.0798 32.3467 85.5198 31.6C85.9732 30.84 86.5865 30.24 87.3598 29.8C88.1332 29.3467 88.9932 29.12 89.9398 29.12C90.8732 29.12 91.6932 29.3333 92.3998 29.76C93.1198 30.1733 93.6798 30.7467 94.0798 31.48C94.4932 32.2 94.6998 33.02 94.6998 33.94C94.6998 34.1133 94.6865 34.2933 94.6598 34.48C94.6465 34.6533 94.6132 34.8533 94.5598 35.08L86.4398 35.1V33.14L93.3398 33.12L92.2798 33.94C92.2532 33.3667 92.1465 32.8867 91.9598 32.5C91.7865 32.1133 91.5265 31.82 91.1798 31.62C90.8465 31.4067 90.4332 31.3 89.9398 31.3C89.4198 31.3 88.9665 31.42 88.5798 31.66C88.1932 31.8867 87.8932 32.2133 87.6798 32.64C87.4798 33.0533 87.3798 33.5467 87.3798 34.12C87.3798 34.7067 87.4865 35.22 87.6998 35.66C87.9265 36.0867 88.2465 36.42 88.6598 36.66C89.0732 36.8867 89.5532 37 90.0998 37C90.5932 37 91.0398 36.92 91.4398 36.76C91.8398 36.5867 92.1865 36.3333 92.4798 36L94.0198 37.54C93.5532 38.0867 92.9798 38.5 92.2998 38.78C91.6332 39.06 90.9065 39.2 90.1198 39.2ZM100.36 39.2C99.4802 39.2 98.6868 38.98 97.9802 38.54C97.2735 38.1 96.7202 37.5 96.3202 36.74C95.9202 35.98 95.7202 35.1267 95.7202 34.18C95.7202 33.22 95.9202 32.36 96.3202 31.6C96.7202 30.84 97.2735 30.24 97.9802 29.8C98.6868 29.36 99.4802 29.14 100.36 29.14C101.053 29.14 101.673 29.28 102.22 29.56C102.767 29.84 103.2 30.2333 103.52 30.74C103.853 31.2333 104.033 31.7933 104.06 32.42V35.9C104.033 36.54 103.853 37.1067 103.52 37.6C103.2 38.0933 102.767 38.4867 102.22 38.78C101.673 39.06 101.053 39.2 100.36 39.2ZM100.84 36.78C101.573 36.78 102.167 36.54 102.62 36.06C103.073 35.5667 103.3 34.9333 103.3 34.16C103.3 33.6533 103.193 33.2067 102.98 32.82C102.78 32.42 102.493 32.1133 102.12 31.9C101.76 31.6733 101.333 31.56 100.84 31.56C100.36 31.56 99.9335 31.6733 99.5602 31.9C99.2002 32.1133 98.9135 32.42 98.7002 32.82C98.5002 33.2067 98.4002 33.6533 98.4002 34.16C98.4002 34.68 98.5002 35.14 98.7002 35.54C98.9135 35.9267 99.2002 36.2333 99.5602 36.46C99.9335 36.6733 100.36 36.78 100.84 36.78ZM103.16 39V36.4L103.58 34.04L103.16 31.72V29.34H105.76V39H103.16ZM112.198 39.2C111.345 39.2 110.585 39.02 109.918 38.66C109.265 38.3 108.751 37.8 108.378 37.16C108.005 36.52 107.818 35.78 107.818 34.94V29.34H110.458V34.88C110.458 35.28 110.525 35.6267 110.658 35.92C110.791 36.2 110.991 36.4133 111.258 36.56C111.525 36.7067 111.838 36.78 112.198 36.78C112.745 36.78 113.171 36.6133 113.478 36.28C113.785 35.9467 113.938 35.48 113.938 34.88V29.34H116.558V34.94C116.558 35.7933 116.371 36.54 115.998 37.18C115.638 37.82 115.125 38.32 114.458 38.68C113.805 39.0267 113.051 39.2 112.198 39.2ZM120.064 39V25.32H122.684V39H120.064ZM117.804 31.64V29.34H124.944V31.64H117.804ZM126.418 39V29.34H129.058V39H126.418ZM127.738 27.78C127.311 27.78 126.958 27.64 126.678 27.36C126.398 27.0667 126.258 26.7067 126.258 26.28C126.258 25.8667 126.398 25.5133 126.678 25.22C126.958 24.9267 127.311 24.78 127.738 24.78C128.178 24.78 128.531 24.9267 128.798 25.22C129.078 25.5133 129.218 25.8667 129.218 26.28C129.218 26.7067 129.078 27.0667 128.798 27.36C128.531 27.64 128.178 27.78 127.738 27.78ZM132.659 39V28.3C132.659 27.5267 132.825 26.8467 133.159 26.26C133.492 25.66 133.965 25.1867 134.579 24.84C135.192 24.4933 135.912 24.32 136.739 24.32C137.365 24.32 137.905 24.4267 138.359 24.64C138.812 24.8533 139.219 25.1467 139.579 25.52L137.919 27.2C137.772 27.0533 137.612 26.94 137.439 26.86C137.265 26.78 137.045 26.74 136.779 26.74C136.299 26.74 135.925 26.8733 135.659 27.14C135.405 27.3933 135.279 27.76 135.279 28.24V39H132.659ZM130.419 31.64V29.34H138.139V31.64H130.419ZM143.878 39.2C143.024 39.2 142.264 39.02 141.598 38.66C140.944 38.3 140.431 37.8 140.058 37.16C139.684 36.52 139.498 35.78 139.498 34.94V29.34H142.138V34.88C142.138 35.28 142.204 35.6267 142.338 35.92C142.471 36.2 142.671 36.4133 142.938 36.56C143.204 36.7067 143.518 36.78 143.878 36.78C144.424 36.78 144.851 36.6133 145.158 36.28C145.464 35.9467 145.618 35.48 145.618 34.88V29.34H148.238V34.94C148.238 35.7933 148.051 36.54 147.678 37.18C147.318 37.82 146.804 38.32 146.138 38.68C145.484 39.0267 144.731 39.2 143.878 39.2ZM150.324 39V24.54H152.944V39H150.324ZM163.012 39L158.452 24.94H161.132L164.512 35.76H163.612L166.932 24.94H168.952L172.272 35.76H171.352L174.752 24.94H177.432L172.852 39H170.832L167.492 28.2H168.372L165.052 39H163.012ZM179.015 39V29.34H181.655V39H179.015ZM180.335 27.78C179.909 27.78 179.555 27.64 179.275 27.36C178.995 27.0667 178.855 26.7067 178.855 26.28C178.855 25.8667 178.995 25.5133 179.275 25.22C179.555 24.9267 179.909 24.78 180.335 24.78C180.775 24.78 181.129 24.9267 181.395 25.22C181.675 25.5133 181.815 25.8667 181.815 26.28C181.815 26.7067 181.675 27.0667 181.395 27.36C181.129 27.64 180.775 27.78 180.335 27.78ZM185.396 39V25.32H188.016V39H185.396ZM183.136 31.64V29.34H190.276V31.64H183.136ZM198.25 39V33.46C198.25 32.8867 198.07 32.42 197.71 32.06C197.35 31.7 196.883 31.52 196.31 31.52C195.937 31.52 195.603 31.6 195.31 31.76C195.017 31.92 194.783 32.1467 194.61 32.44C194.45 32.7333 194.37 33.0733 194.37 33.46L193.35 32.94C193.35 32.18 193.51 31.52 193.83 30.96C194.15 30.3867 194.59 29.94 195.15 29.62C195.723 29.3 196.377 29.14 197.11 29.14C197.843 29.14 198.49 29.3 199.05 29.62C199.623 29.94 200.07 30.38 200.39 30.94C200.71 31.5 200.87 32.1467 200.87 32.88V39H198.25ZM191.75 39V24.54H194.37V39H191.75ZM210.96 33.58L205.52 24.94H208.66L212.88 31.86H211.08L215.3 24.94H218.4L212.9 33.58H210.96ZM210.6 39V32.12H213.34V39H210.6ZM221.544 39.2C220.57 39.2 219.69 38.98 218.904 38.54C218.13 38.0867 217.51 37.48 217.044 36.72C216.59 35.9467 216.364 35.0867 216.364 34.14C216.364 33.1933 216.59 32.3467 217.044 31.6C217.497 30.84 218.117 30.24 218.904 29.8C219.69 29.3467 220.564 29.12 221.524 29.12C222.51 29.12 223.39 29.3467 224.164 29.8C224.95 30.24 225.57 30.84 226.024 31.6C226.477 32.3467 226.704 33.1933 226.704 34.14C226.704 35.0867 226.477 35.9467 226.024 36.72C225.57 37.48 224.95 38.0867 224.164 38.54C223.39 38.98 222.517 39.2 221.544 39.2ZM221.524 36.76C222.017 36.76 222.45 36.6533 222.824 36.44C223.21 36.2133 223.504 35.9067 223.704 35.52C223.917 35.12 224.024 34.6667 224.024 34.16C224.024 33.6533 223.917 33.2067 223.704 32.82C223.49 32.4333 223.197 32.1333 222.824 31.92C222.45 31.6933 222.017 31.58 221.524 31.58C221.044 31.58 220.617 31.6933 220.244 31.92C219.87 32.1333 219.577 32.4333 219.364 32.82C219.15 33.2067 219.044 33.6533 219.044 34.16C219.044 34.6667 219.15 35.12 219.364 35.52C219.577 35.9067 219.87 36.2133 220.244 36.44C220.617 36.6533 221.044 36.76 221.524 36.76ZM232.51 39.2C231.657 39.2 230.897 39.02 230.23 38.66C229.577 38.3 229.064 37.8 228.69 37.16C228.317 36.52 228.13 35.78 228.13 34.94V29.34H230.77V34.88C230.77 35.28 230.837 35.6267 230.97 35.92C231.104 36.2 231.304 36.4133 231.57 36.56C231.837 36.7067 232.15 36.78 232.51 36.78C233.057 36.78 233.484 36.6133 233.79 36.28C234.097 35.9467 234.25 35.48 234.25 34.88V29.34H236.87V34.94C236.87 35.7933 236.684 36.54 236.31 37.18C235.95 37.82 235.437 38.32 234.77 38.68C234.117 39.0267 233.364 39.2 232.51 39.2ZM238.957 39V29.34H241.577V39H238.957ZM241.577 33.66L240.557 32.98C240.677 31.7933 241.024 30.86 241.597 30.18C242.17 29.4867 242.997 29.14 244.077 29.14C244.544 29.14 244.964 29.22 245.337 29.38C245.71 29.5267 246.05 29.7733 246.357 30.12L244.717 32C244.57 31.84 244.39 31.72 244.177 31.64C243.977 31.56 243.744 31.52 243.477 31.52C242.917 31.52 242.457 31.7 242.097 32.06C241.75 32.4067 241.577 32.94 241.577 33.66ZM57.3795 57.78V55.56H60.6395C61.0661 55.56 61.4528 55.4733 61.7995 55.3C62.1461 55.1267 62.4195 54.88 62.6195 54.56C62.8195 54.2267 62.9195 53.8267 62.9195 53.36C62.9195 52.9067 62.8195 52.5133 62.6195 52.18C62.4195 51.8467 62.1461 51.5933 61.7995 51.42C61.4528 51.2467 61.0661 51.16 60.6395 51.16H57.3795V48.94H60.9195C61.8128 48.94 62.6128 49.12 63.3195 49.48C64.0395 49.84 64.6061 50.3533 65.0195 51.02C65.4328 51.6733 65.6395 52.4533 65.6395 53.36C65.6395 54.2667 65.4328 55.0533 65.0195 55.72C64.6061 56.3733 64.0395 56.88 63.3195 57.24C62.6128 57.6 61.8128 57.78 60.9195 57.78H57.3795ZM55.3795 63V48.94H58.0995V63H55.3795ZM67.4237 63V53.34H70.0437V63H67.4237ZM70.0437 57.66L69.0237 56.98C69.1437 55.7933 69.4903 54.86 70.0637 54.18C70.637 53.4867 71.4637 53.14 72.5437 53.14C73.0103 53.14 73.4303 53.22 73.8037 53.38C74.177 53.5267 74.517 53.7733 74.8237 54.12L73.1837 56C73.037 55.84 72.857 55.72 72.6437 55.64C72.4437 55.56 72.2103 55.52 71.9437 55.52C71.3837 55.52 70.9237 55.7 70.5637 56.06C70.217 56.4067 70.0437 56.94 70.0437 57.66ZM80.0105 63.2C79.0372 63.2 78.1572 62.98 77.3705 62.54C76.5972 62.0867 75.9772 61.48 75.5105 60.72C75.0572 59.9467 74.8305 59.0867 74.8305 58.14C74.8305 57.1933 75.0572 56.3467 75.5105 55.6C75.9639 54.84 76.5839 54.24 77.3705 53.8C78.1572 53.3467 79.0305 53.12 79.9905 53.12C80.9772 53.12 81.8572 53.3467 82.6305 53.8C83.4172 54.24 84.0372 54.84 84.4905 55.6C84.9439 56.3467 85.1705 57.1933 85.1705 58.14C85.1705 59.0867 84.9439 59.9467 84.4905 60.72C84.0372 61.48 83.4172 62.0867 82.6305 62.54C81.8572 62.98 80.9839 63.2 80.0105 63.2ZM79.9905 60.76C80.4839 60.76 80.9172 60.6533 81.2905 60.44C81.6772 60.2133 81.9705 59.9067 82.1705 59.52C82.3839 59.12 82.4905 58.6667 82.4905 58.16C82.4905 57.6533 82.3839 57.2067 82.1705 56.82C81.9572 56.4333 81.6639 56.1333 81.2905 55.92C80.9172 55.6933 80.4839 55.58 79.9905 55.58C79.5105 55.58 79.0839 55.6933 78.7105 55.92C78.3372 56.1333 78.0439 56.4333 77.8305 56.82C77.6172 57.2067 77.5105 57.6533 77.5105 58.16C77.5105 58.6667 77.6172 59.12 77.8305 59.52C78.0439 59.9067 78.3372 60.2133 78.7105 60.44C79.0839 60.6533 79.5105 60.76 79.9905 60.76ZM87.9029 63V52.3C87.9029 51.5267 88.0696 50.8467 88.4029 50.26C88.7362 49.66 89.2096 49.1867 89.8229 48.84C90.4362 48.4933 91.1562 48.32 91.9829 48.32C92.6096 48.32 93.1496 48.4267 93.6029 48.64C94.0562 48.8533 94.4629 49.1467 94.8229 49.52L93.1629 51.2C93.0162 51.0533 92.8562 50.94 92.6829 50.86C92.5096 50.78 92.2896 50.74 92.0229 50.74C91.5429 50.74 91.1696 50.8733 90.9029 51.14C90.6496 51.3933 90.5229 51.76 90.5229 52.24V63H87.9029ZM85.6629 55.64V53.34H93.3829V55.64H85.6629ZM99.1726 63.2C98.1592 63.2 97.2592 62.9867 96.4726 62.56C95.6859 62.12 95.0592 61.52 94.5926 60.76C94.1392 60 93.9126 59.1333 93.9126 58.16C93.9126 57.2 94.1326 56.3467 94.5726 55.6C95.0259 54.84 95.6392 54.24 96.4126 53.8C97.1859 53.3467 98.0459 53.12 98.9926 53.12C99.9259 53.12 100.746 53.3333 101.453 53.76C102.173 54.1733 102.733 54.7467 103.133 55.48C103.546 56.2 103.753 57.02 103.753 57.94C103.753 58.1133 103.739 58.2933 103.713 58.48C103.699 58.6533 103.666 58.8533 103.613 59.08L95.4926 59.1V57.14L102.393 57.12L101.333 57.94C101.306 57.3667 101.199 56.8867 101.013 56.5C100.839 56.1133 100.579 55.82 100.233 55.62C99.8992 55.4067 99.4859 55.3 98.9926 55.3C98.4726 55.3 98.0192 55.42 97.6326 55.66C97.2459 55.8867 96.9459 56.2133 96.7326 56.64C96.5326 57.0533 96.4326 57.5467 96.4326 58.12C96.4326 58.7067 96.5392 59.22 96.7526 59.66C96.9792 60.0867 97.2992 60.42 97.7126 60.66C98.1259 60.8867 98.6059 61 99.1526 61C99.6459 61 100.093 60.92 100.493 60.76C100.893 60.5867 101.239 60.3333 101.533 60L103.073 61.54C102.606 62.0867 102.033 62.5 101.353 62.78C100.686 63.06 99.9592 63.2 99.1726 63.2ZM108.693 63.22C108.146 63.22 107.606 63.1467 107.073 63C106.553 62.8533 106.073 62.6533 105.633 62.4C105.193 62.1333 104.813 61.8133 104.493 61.44L106.053 59.86C106.386 60.2333 106.773 60.5133 107.213 60.7C107.653 60.8867 108.14 60.98 108.673 60.98C109.1 60.98 109.42 60.92 109.633 60.8C109.86 60.68 109.973 60.5 109.973 60.26C109.973 59.9933 109.853 59.7867 109.613 59.64C109.386 59.4933 109.086 59.3733 108.713 59.28C108.34 59.1733 107.946 59.06 107.533 58.94C107.133 58.8067 106.746 58.64 106.373 58.44C106 58.2267 105.693 57.94 105.453 57.58C105.226 57.2067 105.113 56.7267 105.113 56.14C105.113 55.5267 105.26 54.9933 105.553 54.54C105.86 54.0867 106.293 53.7333 106.853 53.48C107.413 53.2267 108.073 53.1 108.833 53.1C109.633 53.1 110.353 53.24 110.993 53.52C111.646 53.8 112.186 54.22 112.613 54.78L111.033 56.36C110.74 56 110.406 55.74 110.033 55.58C109.673 55.42 109.28 55.34 108.853 55.34C108.466 55.34 108.166 55.4 107.953 55.52C107.753 55.64 107.653 55.8067 107.653 56.02C107.653 56.26 107.766 56.4467 107.993 56.58C108.233 56.7133 108.54 56.8333 108.913 56.94C109.286 57.0333 109.673 57.1467 110.073 57.28C110.486 57.4 110.873 57.5733 111.233 57.8C111.606 58.0267 111.906 58.3267 112.133 58.7C112.373 59.0733 112.493 59.5533 112.493 60.14C112.493 61.0867 112.153 61.84 111.473 62.4C110.793 62.9467 109.866 63.22 108.693 63.22ZM117.58 63.22C117.033 63.22 116.493 63.1467 115.96 63C115.44 62.8533 114.96 62.6533 114.52 62.4C114.08 62.1333 113.7 61.8133 113.38 61.44L114.94 59.86C115.273 60.2333 115.66 60.5133 116.1 60.7C116.54 60.8867 117.026 60.98 117.56 60.98C117.986 60.98 118.306 60.92 118.52 60.8C118.746 60.68 118.86 60.5 118.86 60.26C118.86 59.9933 118.74 59.7867 118.5 59.64C118.273 59.4933 117.973 59.3733 117.6 59.28C117.226 59.1733 116.833 59.06 116.42 58.94C116.02 58.8067 115.633 58.64 115.26 58.44C114.886 58.2267 114.58 57.94 114.34 57.58C114.113 57.2067 114 56.7267 114 56.14C114 55.5267 114.146 54.9933 114.44 54.54C114.746 54.0867 115.18 53.7333 115.74 53.48C116.3 53.2267 116.96 53.1 117.72 53.1C118.52 53.1 119.24 53.24 119.88 53.52C120.533 53.8 121.073 54.22 121.5 54.78L119.92 56.36C119.626 56 119.293 55.74 118.92 55.58C118.56 55.42 118.166 55.34 117.74 55.34C117.353 55.34 117.053 55.4 116.84 55.52C116.64 55.64 116.54 55.8067 116.54 56.02C116.54 56.26 116.653 56.4467 116.88 56.58C117.12 56.7133 117.426 56.8333 117.8 56.94C118.173 57.0333 118.56 57.1467 118.96 57.28C119.373 57.4 119.76 57.5733 120.12 57.8C120.493 58.0267 120.793 58.3267 121.02 58.7C121.26 59.0733 121.38 59.5533 121.38 60.14C121.38 61.0867 121.04 61.84 120.36 62.4C119.68 62.9467 118.753 63.22 117.58 63.22ZM123.146 63V53.34H125.786V63H123.146ZM124.466 51.78C124.04 51.78 123.686 51.64 123.406 51.36C123.126 51.0667 122.986 50.7067 122.986 50.28C122.986 49.8667 123.126 49.5133 123.406 49.22C123.686 48.9267 124.04 48.78 124.466 48.78C124.906 48.78 125.26 48.9267 125.526 49.22C125.806 49.5133 125.946 49.8667 125.946 50.28C125.946 50.7067 125.806 51.0667 125.526 51.36C125.26 51.64 124.906 51.78 124.466 51.78ZM132.647 63.2C131.674 63.2 130.794 62.98 130.007 62.54C129.234 62.0867 128.614 61.48 128.147 60.72C127.694 59.9467 127.467 59.0867 127.467 58.14C127.467 57.1933 127.694 56.3467 128.147 55.6C128.601 54.84 129.221 54.24 130.007 53.8C130.794 53.3467 131.667 53.12 132.627 53.12C133.614 53.12 134.494 53.3467 135.267 53.8C136.054 54.24 136.674 54.84 137.127 55.6C137.581 56.3467 137.807 57.1933 137.807 58.14C137.807 59.0867 137.581 59.9467 137.127 60.72C136.674 61.48 136.054 62.0867 135.267 62.54C134.494 62.98 133.621 63.2 132.647 63.2ZM132.627 60.76C133.121 60.76 133.554 60.6533 133.927 60.44C134.314 60.2133 134.607 59.9067 134.807 59.52C135.021 59.12 135.127 58.6667 135.127 58.16C135.127 57.6533 135.021 57.2067 134.807 56.82C134.594 56.4333 134.301 56.1333 133.927 55.92C133.554 55.6933 133.121 55.58 132.627 55.58C132.147 55.58 131.721 55.6933 131.347 55.92C130.974 56.1333 130.681 56.4333 130.467 56.82C130.254 57.2067 130.147 57.6533 130.147 58.16C130.147 58.6667 130.254 59.12 130.467 59.52C130.681 59.9067 130.974 60.2133 131.347 60.44C131.721 60.6533 132.147 60.76 132.627 60.76ZM145.994 63V57.46C145.994 56.8867 145.814 56.42 145.454 56.06C145.094 55.7 144.627 55.52 144.054 55.52C143.681 55.52 143.347 55.6 143.054 55.76C142.761 55.92 142.527 56.1467 142.354 56.44C142.194 56.7333 142.114 57.0733 142.114 57.46L141.094 56.94C141.094 56.18 141.254 55.52 141.574 54.96C141.907 54.3867 142.361 53.94 142.934 53.62C143.521 53.3 144.181 53.14 144.914 53.14C145.621 53.14 146.254 53.32 146.814 53.68C147.374 54.0267 147.814 54.4867 148.134 55.06C148.454 55.62 148.614 56.2267 148.614 56.88V63H145.994ZM139.494 63V53.34H142.114V63H139.494ZM154.764 63.2C153.884 63.2 153.091 62.98 152.384 62.54C151.678 62.1 151.124 61.5 150.724 60.74C150.324 59.98 150.124 59.1267 150.124 58.18C150.124 57.22 150.324 56.36 150.724 55.6C151.124 54.84 151.678 54.24 152.384 53.8C153.091 53.36 153.884 53.14 154.764 53.14C155.458 53.14 156.078 53.28 156.624 53.56C157.171 53.84 157.604 54.2333 157.924 54.74C158.258 55.2333 158.438 55.7933 158.464 56.42V59.9C158.438 60.54 158.258 61.1067 157.924 61.6C157.604 62.0933 157.171 62.4867 156.624 62.78C156.078 63.06 155.458 63.2 154.764 63.2ZM155.244 60.78C155.978 60.78 156.571 60.54 157.024 60.06C157.478 59.5667 157.704 58.9333 157.704 58.16C157.704 57.6533 157.598 57.2067 157.384 56.82C157.184 56.42 156.898 56.1133 156.524 55.9C156.164 55.6733 155.738 55.56 155.244 55.56C154.764 55.56 154.338 55.6733 153.964 55.9C153.604 56.1133 153.318 56.42 153.104 56.82C152.904 57.2067 152.804 57.6533 152.804 58.16C152.804 58.68 152.904 59.14 153.104 59.54C153.318 59.9267 153.604 60.2333 153.964 60.46C154.338 60.6733 154.764 60.78 155.244 60.78ZM157.564 63V60.4L157.984 58.04L157.564 55.72V53.34H160.164V63H157.564ZM162.482 63V48.54H165.102V63H162.482ZM174.777 63V49.24H177.517V63H174.777ZM170.297 51.36V48.94H181.997V51.36H170.297ZM185.733 63.2C184.76 63.2 183.88 62.98 183.093 62.54C182.32 62.0867 181.7 61.48 181.233 60.72C180.78 59.9467 180.553 59.0867 180.553 58.14C180.553 57.1933 180.78 56.3467 181.233 55.6C181.687 54.84 182.307 54.24 183.093 53.8C183.88 53.3467 184.753 53.12 185.713 53.12C186.7 53.12 187.58 53.3467 188.353 53.8C189.14 54.24 189.76 54.84 190.213 55.6C190.667 56.3467 190.893 57.1933 190.893 58.14C190.893 59.0867 190.667 59.9467 190.213 60.72C189.76 61.48 189.14 62.0867 188.353 62.54C187.58 62.98 186.707 63.2 185.733 63.2ZM185.713 60.76C186.207 60.76 186.64 60.6533 187.013 60.44C187.4 60.2133 187.693 59.9067 187.893 59.52C188.107 59.12 188.213 58.6667 188.213 58.16C188.213 57.6533 188.107 57.2067 187.893 56.82C187.68 56.4333 187.387 56.1333 187.013 55.92C186.64 55.6933 186.207 55.58 185.713 55.58C185.233 55.58 184.807 55.6933 184.433 55.92C184.06 56.1333 183.767 56.4333 183.553 56.82C183.34 57.2067 183.233 57.6533 183.233 58.16C183.233 58.6667 183.34 59.12 183.553 59.52C183.767 59.9067 184.06 60.2133 184.433 60.44C184.807 60.6533 185.233 60.76 185.713 60.76ZM196.7 63.2C195.847 63.2 195.087 63.02 194.42 62.66C193.767 62.3 193.253 61.8 192.88 61.16C192.507 60.52 192.32 59.78 192.32 58.94V53.34H194.96V58.88C194.96 59.28 195.027 59.6267 195.16 59.92C195.293 60.2 195.493 60.4133 195.76 60.56C196.027 60.7067 196.34 60.78 196.7 60.78C197.247 60.78 197.673 60.6133 197.98 60.28C198.287 59.9467 198.44 59.48 198.44 58.88V53.34H201.06V58.94C201.06 59.7933 200.873 60.54 200.5 61.18C200.14 61.82 199.627 62.32 198.96 62.68C198.307 63.0267 197.553 63.2 196.7 63.2ZM207.706 63.2C206.72 63.2 205.833 62.98 205.046 62.54C204.26 62.1 203.64 61.5 203.186 60.74C202.733 59.98 202.506 59.1267 202.506 58.18C202.506 57.22 202.733 56.36 203.186 55.6C203.64 54.84 204.26 54.24 205.046 53.8C205.846 53.3467 206.733 53.12 207.706 53.12C208.466 53.12 209.166 53.26 209.806 53.54C210.446 53.82 211 54.22 211.466 54.74L209.786 56.44C209.533 56.16 209.226 55.9467 208.866 55.8C208.52 55.6533 208.133 55.58 207.706 55.58C207.226 55.58 206.793 55.6933 206.406 55.92C206.033 56.1333 205.733 56.4333 205.506 56.82C205.293 57.1933 205.186 57.64 205.186 58.16C205.186 58.6667 205.293 59.12 205.506 59.52C205.733 59.9067 206.033 60.2133 206.406 60.44C206.793 60.6533 207.226 60.76 207.706 60.76C208.146 60.76 208.54 60.6867 208.886 60.54C209.246 60.38 209.553 60.1533 209.806 59.86L211.506 61.56C211.013 62.0933 210.446 62.5 209.806 62.78C209.166 63.06 208.466 63.2 207.706 63.2ZM219.49 63V57.46C219.49 56.8867 219.31 56.42 218.95 56.06C218.59 55.7 218.123 55.52 217.55 55.52C217.177 55.52 216.843 55.6 216.55 55.76C216.257 55.92 216.023 56.1467 215.85 56.44C215.69 56.7333 215.61 57.0733 215.61 57.46L214.59 56.94C214.59 56.18 214.75 55.52 215.07 54.96C215.39 54.3867 215.83 53.94 216.39 53.62C216.963 53.3 217.617 53.14 218.35 53.14C219.083 53.14 219.73 53.3 220.29 53.62C220.863 53.94 221.31 54.38 221.63 54.94C221.95 55.5 222.11 56.1467 222.11 56.88V63H219.49ZM212.99 63V48.54H215.61V63H212.99Z" fill="black"/>
</svg>
