<svg width="171" height="16" viewBox="0 0 171 16" fill="none" xmlns="http://www.w3.org/2000/svg">
<path d="M7.73688 15.2C6.73688 15.2 5.79688 15.02 4.91688 14.66C4.05021 14.2867 3.28354 13.7667 2.61688 13.1C1.96354 12.4333 1.45021 11.6667 1.07688 10.8C0.716875 9.92 0.536875 8.97333 0.536875 7.96C0.536875 6.93333 0.723542 5.98667 1.09688 5.12C1.47021 4.24 1.99021 3.47333 2.65688 2.82C3.32354 2.15333 4.10354 1.64 4.99688 1.28C5.89021 0.906666 6.85688 0.719999 7.89688 0.719999C9.05688 0.719999 10.1235 0.939999 11.0969 1.38C12.0702 1.80667 12.8769 2.41333 13.5169 3.2L11.6769 5.04C11.2369 4.46667 10.6902 4.02667 10.0369 3.72C9.38354 3.41333 8.66354 3.26 7.87688 3.26C6.98354 3.26 6.19021 3.46 5.49688 3.86C4.81688 4.24667 4.28354 4.79333 3.89688 5.5C3.51021 6.19333 3.31688 7.00667 3.31688 7.94C3.31688 8.87333 3.50354 9.7 3.87688 10.42C4.26354 11.1267 4.78354 11.68 5.43688 12.08C6.10354 12.48 6.86354 12.68 7.71688 12.68C8.59688 12.68 9.35021 12.52 9.97688 12.2C10.6035 11.8667 11.0835 11.3867 11.4169 10.76C11.7502 10.12 11.9169 9.34 11.9169 8.42L13.6969 9.64L7.55688 9.58V7.22H14.7169V7.6C14.7169 9.28 14.4169 10.6867 13.8169 11.82C13.2169 12.94 12.3902 13.7867 11.3369 14.36C10.2969 14.92 9.09688 15.2 7.73688 15.2ZM21.1433 15.2C20.1299 15.2 19.2299 14.9867 18.4433 14.56C17.6566 14.12 17.0299 13.52 16.5633 12.76C16.1099 12 15.8833 11.1333 15.8833 10.16C15.8833 9.2 16.1033 8.34667 16.5433 7.6C16.9966 6.84 17.6099 6.24 18.3833 5.8C19.1566 5.34667 20.0166 5.12 20.9633 5.12C21.8966 5.12 22.7166 5.33333 23.4233 5.76C24.1433 6.17333 24.7033 6.74667 25.1033 7.48C25.5166 8.2 25.7233 9.02 25.7233 9.94C25.7233 10.1133 25.7099 10.2933 25.6833 10.48C25.6699 10.6533 25.6366 10.8533 25.5833 11.08L17.4633 11.1V9.14L24.3633 9.12L23.3033 9.94C23.2766 9.36667 23.1699 8.88667 22.9833 8.5C22.8099 8.11333 22.5499 7.82 22.2033 7.62C21.8699 7.40667 21.4566 7.3 20.9633 7.3C20.4433 7.3 19.9899 7.42 19.6033 7.66C19.2166 7.88667 18.9166 8.21333 18.7033 8.64C18.5033 9.05333 18.4033 9.54667 18.4033 10.12C18.4033 10.7067 18.5099 11.22 18.7233 11.66C18.9499 12.0867 19.2699 12.42 19.6833 12.66C20.0966 12.8867 20.5766 13 21.1233 13C21.6166 13 22.0633 12.92 22.4633 12.76C22.8633 12.5867 23.2099 12.3333 23.5033 12L25.0433 13.54C24.5766 14.0867 24.0033 14.5 23.3233 14.78C22.6566 15.06 21.9299 15.2 21.1433 15.2ZM28.5292 15V1.32H31.1492V15H28.5292ZM26.2692 7.64V5.34H33.4092V7.64H26.2692ZM42.2364 15V1.24H44.9764V15H42.2364ZM37.7564 3.36V0.94H49.4564V3.36H37.7564ZM57.5545 15V9.46C57.5545 8.88667 57.3745 8.42 57.0145 8.06C56.6545 7.7 56.1879 7.52 55.6145 7.52C55.2412 7.52 54.9079 7.6 54.6145 7.76C54.3212 7.92 54.0879 8.14667 53.9145 8.44C53.7545 8.73333 53.6745 9.07333 53.6745 9.46L52.6545 8.94C52.6545 8.18 52.8145 7.52 53.1345 6.96C53.4545 6.38667 53.8945 5.94 54.4545 5.62C55.0279 5.3 55.6812 5.14 56.4145 5.14C57.1479 5.14 57.7945 5.3 58.3545 5.62C58.9279 5.94 59.3745 6.38 59.6945 6.94C60.0145 7.5 60.1745 8.14667 60.1745 8.88V15H57.5545ZM51.0545 15V0.539999H53.6745V15H51.0545ZM66.905 15.2C65.8917 15.2 64.9917 14.9867 64.205 14.56C63.4183 14.12 62.7917 13.52 62.325 12.76C61.8717 12 61.645 11.1333 61.645 10.16C61.645 9.2 61.865 8.34667 62.305 7.6C62.7583 6.84 63.3717 6.24 64.145 5.8C64.9183 5.34667 65.7783 5.12 66.725 5.12C67.6583 5.12 68.4783 5.33333 69.185 5.76C69.905 6.17333 70.465 6.74667 70.865 7.48C71.2783 8.2 71.485 9.02 71.485 9.94C71.485 10.1133 71.4717 10.2933 71.445 10.48C71.4317 10.6533 71.3983 10.8533 71.345 11.08L63.225 11.1V9.14L70.125 9.12L69.065 9.94C69.0383 9.36667 68.9317 8.88667 68.745 8.5C68.5717 8.11333 68.3117 7.82 67.965 7.62C67.6317 7.40667 67.2183 7.3 66.725 7.3C66.205 7.3 65.7517 7.42 65.365 7.66C64.9783 7.88667 64.6783 8.21333 64.465 8.64C64.265 9.05333 64.165 9.54667 64.165 10.12C64.165 10.7067 64.2717 11.22 64.485 11.66C64.7117 12.0867 65.0317 12.42 65.445 12.66C65.8583 12.8867 66.3383 13 66.885 13C67.3783 13 67.825 12.92 68.225 12.76C68.625 12.5867 68.9717 12.3333 69.265 12L70.805 13.54C70.3383 14.0867 69.765 14.5 69.085 14.78C68.4183 15.06 67.6917 15.2 66.905 15.2ZM79.2916 15V12.78H82.9516C83.6049 12.78 84.1116 12.58 84.4716 12.18C84.8449 11.78 85.0316 11.3067 85.0316 10.76C85.0316 10.3867 84.9516 10.0467 84.7916 9.74C84.6316 9.43333 84.3916 9.19333 84.0716 9.02C83.7649 8.83333 83.3916 8.74 82.9516 8.74H79.2916V6.54H82.6516C83.2116 6.54 83.6582 6.4 83.9916 6.12C84.3382 5.84 84.5116 5.42 84.5116 4.86C84.5116 4.28667 84.3382 3.86 83.9916 3.58C83.6582 3.3 83.2116 3.16 82.6516 3.16H79.2916V0.94H82.9716C83.9049 0.94 84.6849 1.11333 85.3116 1.46C85.9516 1.79333 86.4316 2.24 86.7516 2.8C87.0716 3.34667 87.2316 3.94667 87.2316 4.6C87.2316 5.4 86.9849 6.09333 86.4916 6.68C86.0116 7.25333 85.3049 7.68 84.3716 7.96L84.4916 7.08C85.5316 7.37333 86.3316 7.86 86.8916 8.54C87.4649 9.20667 87.7516 10.0133 87.7516 10.96C87.7516 11.7067 87.5649 12.3867 87.1916 13C86.8316 13.6 86.2982 14.0867 85.5916 14.46C84.8982 14.82 84.0516 15 83.0516 15H79.2916ZM77.2916 15V0.94H79.9916V15H77.2916ZM94.2488 15.2C93.2354 15.2 92.3354 14.9867 91.5488 14.56C90.7621 14.12 90.1354 13.52 89.6688 12.76C89.2154 12 88.9888 11.1333 88.9888 10.16C88.9888 9.2 89.2088 8.34667 89.6488 7.6C90.1021 6.84 90.7154 6.24 91.4888 5.8C92.2621 5.34667 93.1221 5.12 94.0688 5.12C95.0021 5.12 95.8221 5.33333 96.5288 5.76C97.2488 6.17333 97.8088 6.74667 98.2088 7.48C98.6221 8.2 98.8288 9.02 98.8288 9.94C98.8288 10.1133 98.8154 10.2933 98.7888 10.48C98.7754 10.6533 98.7421 10.8533 98.6888 11.08L90.5688 11.1V9.14L97.4688 9.12L96.4088 9.94C96.3821 9.36667 96.2754 8.88667 96.0888 8.5C95.9154 8.11333 95.6554 7.82 95.3088 7.62C94.9754 7.40667 94.5621 7.3 94.0688 7.3C93.5488 7.3 93.0954 7.42 92.7088 7.66C92.3221 7.88667 92.0221 8.21333 91.8088 8.64C91.6088 9.05333 91.5088 9.54667 91.5088 10.12C91.5088 10.7067 91.6154 11.22 91.8288 11.66C92.0554 12.0867 92.3754 12.42 92.7888 12.66C93.2021 12.8867 93.6821 13 94.2288 13C94.7221 13 95.1688 12.92 95.5688 12.76C95.9688 12.5867 96.3154 12.3333 96.6088 12L98.1488 13.54C97.6821 14.0867 97.1088 14.5 96.4288 14.78C95.7621 15.06 95.0354 15.2 94.2488 15.2ZM103.769 15.22C103.222 15.22 102.682 15.1467 102.149 15C101.629 14.8533 101.149 14.6533 100.709 14.4C100.269 14.1333 99.8891 13.8133 99.5691 13.44L101.129 11.86C101.462 12.2333 101.849 12.5133 102.289 12.7C102.729 12.8867 103.216 12.98 103.749 12.98C104.176 12.98 104.496 12.92 104.709 12.8C104.936 12.68 105.049 12.5 105.049 12.26C105.049 11.9933 104.929 11.7867 104.689 11.64C104.462 11.4933 104.162 11.3733 103.789 11.28C103.416 11.1733 103.022 11.06 102.609 10.94C102.209 10.8067 101.822 10.64 101.449 10.44C101.076 10.2267 100.769 9.94 100.529 9.58C100.302 9.20667 100.189 8.72667 100.189 8.14C100.189 7.52667 100.336 6.99333 100.629 6.54C100.936 6.08667 101.369 5.73333 101.929 5.48C102.489 5.22667 103.149 5.1 103.909 5.1C104.709 5.1 105.429 5.24 106.069 5.52C106.722 5.8 107.262 6.22 107.689 6.78L106.109 8.36C105.816 8 105.482 7.74 105.109 7.58C104.749 7.42 104.356 7.34 103.929 7.34C103.542 7.34 103.242 7.4 103.029 7.52C102.829 7.64 102.729 7.80667 102.729 8.02C102.729 8.26 102.842 8.44667 103.069 8.58C103.309 8.71333 103.616 8.83333 103.989 8.94C104.362 9.03333 104.749 9.14667 105.149 9.28C105.562 9.4 105.949 9.57333 106.309 9.8C106.682 10.0267 106.982 10.3267 107.209 10.7C107.449 11.0733 107.569 11.5533 107.569 12.14C107.569 13.0867 107.229 13.84 106.549 14.4C105.869 14.9467 104.942 15.22 103.769 15.22ZM110.756 15V1.32H113.376V15H110.756ZM108.496 7.64V5.34H115.636V7.64H108.496ZM123.155 15V12.58H126.735C127.642 12.58 128.435 12.3933 129.115 12.02C129.795 11.6333 130.322 11.0933 130.695 10.4C131.082 9.70667 131.275 8.88667 131.275 7.94C131.275 7.02 131.082 6.22 130.695 5.54C130.309 4.84667 129.775 4.31333 129.095 3.94C128.415 3.55333 127.629 3.36 126.735 3.36H123.095V0.94H126.775C127.815 0.94 128.775 1.11333 129.655 1.46C130.549 1.80667 131.322 2.3 131.975 2.94C132.642 3.56667 133.155 4.30667 133.515 5.16C133.889 6.01333 134.075 6.94667 134.075 7.96C134.075 8.97333 133.889 9.91333 133.515 10.78C133.155 11.6333 132.649 12.38 131.995 13.02C131.342 13.6467 130.569 14.1333 129.675 14.48C128.795 14.8267 127.842 15 126.815 15H123.155ZM121.295 15V0.94H124.015V15H121.295ZM140.577 15.2C139.564 15.2 138.664 14.9867 137.877 14.56C137.09 14.12 136.464 13.52 135.997 12.76C135.544 12 135.317 11.1333 135.317 10.16C135.317 9.2 135.537 8.34667 135.977 7.6C136.43 6.84 137.044 6.24 137.817 5.8C138.59 5.34667 139.45 5.12 140.397 5.12C141.33 5.12 142.15 5.33333 142.857 5.76C143.577 6.17333 144.137 6.74667 144.537 7.48C144.95 8.2 145.157 9.02 145.157 9.94C145.157 10.1133 145.144 10.2933 145.117 10.48C145.104 10.6533 145.07 10.8533 145.017 11.08L136.897 11.1V9.14L143.797 9.12L142.737 9.94C142.71 9.36667 142.604 8.88667 142.417 8.5C142.244 8.11333 141.984 7.82 141.637 7.62C141.304 7.40667 140.89 7.3 140.397 7.3C139.877 7.3 139.424 7.42 139.037 7.66C138.65 7.88667 138.35 8.21333 138.137 8.64C137.937 9.05333 137.837 9.54667 137.837 10.12C137.837 10.7067 137.944 11.22 138.157 11.66C138.384 12.0867 138.704 12.42 139.117 12.66C139.53 12.8867 140.01 13 140.557 13C141.05 13 141.497 12.92 141.897 12.76C142.297 12.5867 142.644 12.3333 142.937 12L144.477 13.54C144.01 14.0867 143.437 14.5 142.757 14.78C142.09 15.06 141.364 15.2 140.577 15.2ZM150.817 15.2C149.937 15.2 149.144 14.98 148.437 14.54C147.731 14.1 147.177 13.5 146.777 12.74C146.377 11.98 146.177 11.1267 146.177 10.18C146.177 9.22 146.377 8.36 146.777 7.6C147.177 6.84 147.731 6.24 148.437 5.8C149.144 5.36 149.937 5.14 150.817 5.14C151.511 5.14 152.131 5.28 152.677 5.56C153.224 5.84 153.657 6.23333 153.977 6.74C154.311 7.23333 154.491 7.79333 154.517 8.42V11.9C154.491 12.54 154.311 13.1067 153.977 13.6C153.657 14.0933 153.224 14.4867 152.677 14.78C152.131 15.06 151.511 15.2 150.817 15.2ZM151.297 12.78C152.031 12.78 152.624 12.54 153.077 12.06C153.531 11.5667 153.757 10.9333 153.757 10.16C153.757 9.65333 153.651 9.20667 153.437 8.82C153.237 8.42 152.951 8.11333 152.577 7.9C152.217 7.67333 151.791 7.56 151.297 7.56C150.817 7.56 150.391 7.67333 150.017 7.9C149.657 8.11333 149.371 8.42 149.157 8.82C148.957 9.20667 148.857 9.65333 148.857 10.16C148.857 10.68 148.957 11.14 149.157 11.54C149.371 11.9267 149.657 12.2333 150.017 12.46C150.391 12.6733 150.817 12.78 151.297 12.78ZM153.617 15V12.4L154.037 10.04L153.617 7.72V5.34H156.217V15H153.617ZM158.535 15V0.539999H161.155V15H158.535ZM166.796 15.22C166.25 15.22 165.71 15.1467 165.176 15C164.656 14.8533 164.176 14.6533 163.736 14.4C163.296 14.1333 162.916 13.8133 162.596 13.44L164.156 11.86C164.49 12.2333 164.876 12.5133 165.316 12.7C165.756 12.8867 166.243 12.98 166.776 12.98C167.203 12.98 167.523 12.92 167.736 12.8C167.963 12.68 168.076 12.5 168.076 12.26C168.076 11.9933 167.956 11.7867 167.716 11.64C167.49 11.4933 167.19 11.3733 166.816 11.28C166.443 11.1733 166.05 11.06 165.636 10.94C165.236 10.8067 164.85 10.64 164.476 10.44C164.103 10.2267 163.796 9.94 163.556 9.58C163.33 9.20667 163.216 8.72667 163.216 8.14C163.216 7.52667 163.363 6.99333 163.656 6.54C163.963 6.08667 164.396 5.73333 164.956 5.48C165.516 5.22667 166.176 5.1 166.936 5.1C167.736 5.1 168.456 5.24 169.096 5.52C169.75 5.8 170.29 6.22 170.716 6.78L169.136 8.36C168.843 8 168.51 7.74 168.136 7.58C167.776 7.42 167.383 7.34 166.956 7.34C166.57 7.34 166.27 7.4 166.056 7.52C165.856 7.64 165.756 7.80667 165.756 8.02C165.756 8.26 165.87 8.44667 166.096 8.58C166.336 8.71333 166.643 8.83333 167.016 8.94C167.39 9.03333 167.776 9.14667 168.176 9.28C168.59 9.4 168.976 9.57333 169.336 9.8C169.71 10.0267 170.01 10.3267 170.236 10.7C170.476 11.0733 170.596 11.5533 170.596 12.14C170.596 13.0867 170.256 13.84 169.576 14.4C168.896 14.9467 167.97 15.22 166.796 15.22Z" fill="black"/>
</svg>
