<svg width="280" height="44" viewBox="0 0 280 44" fill="none" xmlns="http://www.w3.org/2000/svg">
<path d="M6.48977 15.2C5.3831 15.2 4.39643 14.96 3.52977 14.48C2.67643 13.9867 2.0031 13.3133 1.50977 12.46C1.01643 11.6067 0.769766 10.64 0.769766 9.56V0.94H3.48977V9.64C3.48977 10.2667 3.61643 10.8067 3.86977 11.26C4.13643 11.7133 4.49643 12.0667 4.94977 12.32C5.41643 12.56 5.92977 12.68 6.48977 12.68C7.0631 12.68 7.56977 12.56 8.00977 12.32C8.44977 12.0667 8.79643 11.7133 9.04977 11.26C9.31643 10.8067 9.44977 10.2733 9.44977 9.66V0.94H12.1898V9.58C12.1898 10.66 11.9431 11.6267 11.4498 12.48C10.9564 13.32 10.2831 13.9867 9.42977 14.48C8.58977 14.96 7.60977 15.2 6.48977 15.2ZM17.9155 15.22C17.3689 15.22 16.8289 15.1467 16.2955 15C15.7755 14.8533 15.2955 14.6533 14.8555 14.4C14.4155 14.1333 14.0355 13.8133 13.7155 13.44L15.2755 11.86C15.6089 12.2333 15.9955 12.5133 16.4355 12.7C16.8755 12.8867 17.3622 12.98 17.8955 12.98C18.3222 12.98 18.6422 12.92 18.8555 12.8C19.0822 12.68 19.1955 12.5 19.1955 12.26C19.1955 11.9933 19.0755 11.7867 18.8355 11.64C18.6089 11.4933 18.3089 11.3733 17.9355 11.28C17.5622 11.1733 17.1689 11.06 16.7555 10.94C16.3555 10.8067 15.9689 10.64 15.5955 10.44C15.2222 10.2267 14.9155 9.94 14.6755 9.58C14.4489 9.20667 14.3355 8.72667 14.3355 8.14C14.3355 7.52667 14.4822 6.99333 14.7755 6.54C15.0822 6.08667 15.5155 5.73333 16.0755 5.48C16.6355 5.22667 17.2955 5.1 18.0555 5.1C18.8555 5.1 19.5755 5.24 20.2155 5.52C20.8689 5.8 21.4089 6.22 21.8355 6.78L20.2555 8.36C19.9622 8 19.6289 7.74 19.2555 7.58C18.8955 7.42 18.5022 7.34 18.0755 7.34C17.6889 7.34 17.3889 7.4 17.1755 7.52C16.9755 7.64 16.8755 7.80667 16.8755 8.02C16.8755 8.26 16.9889 8.44667 17.2155 8.58C17.4555 8.71333 17.7622 8.83333 18.1355 8.94C18.5089 9.03333 18.8955 9.14667 19.2955 9.28C19.7089 9.4 20.0955 9.57333 20.4555 9.8C20.8289 10.0267 21.1289 10.3267 21.3555 10.7C21.5955 11.0733 21.7155 11.5533 21.7155 12.14C21.7155 13.0867 21.3755 13.84 20.6955 14.4C20.0155 14.9467 19.0889 15.22 17.9155 15.22ZM28.1023 15.2C27.0889 15.2 26.1889 14.9867 25.4023 14.56C24.6156 14.12 23.9889 13.52 23.5223 12.76C23.0689 12 22.8423 11.1333 22.8423 10.16C22.8423 9.2 23.0623 8.34667 23.5023 7.6C23.9556 6.84 24.5689 6.24 25.3423 5.8C26.1156 5.34667 26.9756 5.12 27.9223 5.12C28.8556 5.12 29.6756 5.33333 30.3823 5.76C31.1023 6.17333 31.6623 6.74667 32.0623 7.48C32.4756 8.2 32.6823 9.02 32.6823 9.94C32.6823 10.1133 32.6689 10.2933 32.6423 10.48C32.6289 10.6533 32.5956 10.8533 32.5423 11.08L24.4223 11.1V9.14L31.3223 9.12L30.2623 9.94C30.2356 9.36667 30.1289 8.88667 29.9423 8.5C29.7689 8.11333 29.5089 7.82 29.1623 7.62C28.8289 7.40667 28.4156 7.3 27.9223 7.3C27.4023 7.3 26.9489 7.42 26.5623 7.66C26.1756 7.88667 25.8756 8.21333 25.6623 8.64C25.4623 9.05333 25.3623 9.54667 25.3623 10.12C25.3623 10.7067 25.4689 11.22 25.6823 11.66C25.9089 12.0867 26.2289 12.42 26.6423 12.66C27.0556 12.8867 27.5356 13 28.0823 13C28.5756 13 29.0223 12.92 29.4223 12.76C29.8223 12.5867 30.1689 12.3333 30.4623 12L32.0023 13.54C31.5356 14.0867 30.9623 14.5 30.2823 14.78C29.6156 15.06 28.8889 15.2 28.1023 15.2ZM42.2824 9.58L36.8424 0.94H39.9824L44.2024 7.86H42.4024L46.6224 0.94H49.7224L44.2224 9.58H42.2824ZM41.9224 15V8.12H44.6624V15H41.9224ZM52.866 15.2C51.8927 15.2 51.0127 14.98 50.226 14.54C49.4527 14.0867 48.8327 13.48 48.366 12.72C47.9127 11.9467 47.686 11.0867 47.686 10.14C47.686 9.19333 47.9127 8.34667 48.366 7.6C48.8193 6.84 49.4393 6.24 50.226 5.8C51.0127 5.34667 51.886 5.12 52.846 5.12C53.8327 5.12 54.7127 5.34667 55.486 5.8C56.2727 6.24 56.8927 6.84 57.346 7.6C57.7993 8.34667 58.026 9.19333 58.026 10.14C58.026 11.0867 57.7993 11.9467 57.346 12.72C56.8927 13.48 56.2727 14.0867 55.486 14.54C54.7127 14.98 53.8393 15.2 52.866 15.2ZM52.846 12.76C53.3393 12.76 53.7727 12.6533 54.146 12.44C54.5327 12.2133 54.826 11.9067 55.026 11.52C55.2393 11.12 55.346 10.6667 55.346 10.16C55.346 9.65333 55.2393 9.20667 55.026 8.82C54.8127 8.43333 54.5193 8.13333 54.146 7.92C53.7727 7.69333 53.3393 7.58 52.846 7.58C52.366 7.58 51.9393 7.69333 51.566 7.92C51.1927 8.13333 50.8993 8.43333 50.686 8.82C50.4727 9.20667 50.366 9.65333 50.366 10.16C50.366 10.6667 50.4727 11.12 50.686 11.52C50.8993 11.9067 51.1927 12.2133 51.566 12.44C51.9393 12.6533 52.366 12.76 52.846 12.76ZM63.8327 15.2C62.9794 15.2 62.2194 15.02 61.5527 14.66C60.8994 14.3 60.3861 13.8 60.0127 13.16C59.6394 12.52 59.4527 11.78 59.4527 10.94V5.34H62.0927V10.88C62.0927 11.28 62.1594 11.6267 62.2927 11.92C62.4261 12.2 62.6261 12.4133 62.8927 12.56C63.1594 12.7067 63.4727 12.78 63.8327 12.78C64.3794 12.78 64.8061 12.6133 65.1127 12.28C65.4194 11.9467 65.5727 11.48 65.5727 10.88V5.34H68.1927V10.94C68.1927 11.7933 68.0061 12.54 67.6327 13.18C67.2727 13.82 66.7594 14.32 66.0927 14.68C65.4394 15.0267 64.6861 15.2 63.8327 15.2ZM70.2791 15V5.34H72.8991V15H70.2791ZM72.8991 9.66L71.8791 8.98C71.9991 7.79333 72.3458 6.86 72.9191 6.18C73.4925 5.48667 74.3191 5.14 75.3991 5.14C75.8658 5.14 76.2858 5.22 76.6591 5.38C77.0325 5.52667 77.3725 5.77333 77.6791 6.12L76.0391 8C75.8925 7.84 75.7125 7.72 75.4991 7.64C75.2991 7.56 75.0658 7.52 74.7991 7.52C74.2391 7.52 73.7791 7.7 73.4191 8.06C73.0725 8.40667 72.8991 8.94 72.8991 9.66ZM89.6573 15.2C88.6306 15.2 87.6773 15.02 86.7973 14.66C85.9173 14.2867 85.1439 13.7733 84.4773 13.12C83.8239 12.4533 83.3173 11.68 82.9573 10.8C82.6106 9.92 82.4373 8.97333 82.4373 7.96C82.4373 6.94667 82.6106 6 82.9573 5.12C83.3173 4.24 83.8239 3.47333 84.4773 2.82C85.1439 2.16667 85.9106 1.65333 86.7773 1.28C87.6573 0.906666 88.6173 0.719999 89.6573 0.719999C90.7773 0.719999 91.7639 0.906666 92.6173 1.28C93.4706 1.64 94.2239 2.14 94.8773 2.78L93.0373 4.62C92.6506 4.19333 92.1773 3.86 91.6173 3.62C91.0573 3.38 90.4039 3.26 89.6573 3.26C89.0039 3.26 88.4039 3.37333 87.8573 3.6C87.3239 3.81333 86.8573 4.13333 86.4573 4.56C86.0573 4.97333 85.7506 5.47333 85.5373 6.06C85.3239 6.63333 85.2173 7.26667 85.2173 7.96C85.2173 8.66667 85.3239 9.30667 85.5373 9.88C85.7506 10.4533 86.0573 10.9533 86.4573 11.38C86.8573 11.7933 87.3239 12.1133 87.8573 12.34C88.4039 12.5667 89.0039 12.68 89.6573 12.68C90.4439 12.68 91.1173 12.56 91.6773 12.32C92.2506 12.08 92.7306 11.74 93.1173 11.3L94.9573 13.14C94.3039 13.7933 93.5439 14.3 92.6773 14.66C91.8106 15.02 90.8039 15.2 89.6573 15.2ZM96.5682 15V5.34H99.1882V15H96.5682ZM99.1882 9.66L98.1682 8.98C98.2882 7.79333 98.6349 6.86 99.2082 6.18C99.7815 5.48667 100.608 5.14 101.688 5.14C102.155 5.14 102.575 5.22 102.948 5.38C103.322 5.52667 103.662 5.77333 103.968 6.12L102.328 8C102.182 7.84 102.002 7.72 101.788 7.64C101.588 7.56 101.355 7.52 101.088 7.52C100.528 7.52 100.068 7.7 99.7082 8.06C99.3615 8.40667 99.1882 8.94 99.1882 9.66ZM109.235 15.2C108.222 15.2 107.322 14.9867 106.535 14.56C105.748 14.12 105.122 13.52 104.655 12.76C104.202 12 103.975 11.1333 103.975 10.16C103.975 9.2 104.195 8.34667 104.635 7.6C105.088 6.84 105.702 6.24 106.475 5.8C107.248 5.34667 108.108 5.12 109.055 5.12C109.988 5.12 110.808 5.33333 111.515 5.76C112.235 6.17333 112.795 6.74667 113.195 7.48C113.608 8.2 113.815 9.02 113.815 9.94C113.815 10.1133 113.802 10.2933 113.775 10.48C113.762 10.6533 113.728 10.8533 113.675 11.08L105.555 11.1V9.14L112.455 9.12L111.395 9.94C111.368 9.36667 111.262 8.88667 111.075 8.5C110.902 8.11333 110.642 7.82 110.295 7.62C109.962 7.40667 109.548 7.3 109.055 7.3C108.535 7.3 108.082 7.42 107.695 7.66C107.308 7.88667 107.008 8.21333 106.795 8.64C106.595 9.05333 106.495 9.54667 106.495 10.12C106.495 10.7067 106.602 11.22 106.815 11.66C107.042 12.0867 107.362 12.42 107.775 12.66C108.188 12.8867 108.668 13 109.215 13C109.708 13 110.155 12.92 110.555 12.76C110.955 12.5867 111.302 12.3333 111.595 12L113.135 13.54C112.668 14.0867 112.095 14.5 111.415 14.78C110.748 15.06 110.022 15.2 109.235 15.2ZM119.475 15.2C118.595 15.2 117.802 14.98 117.095 14.54C116.389 14.1 115.835 13.5 115.435 12.74C115.035 11.98 114.835 11.1267 114.835 10.18C114.835 9.22 115.035 8.36 115.435 7.6C115.835 6.84 116.389 6.24 117.095 5.8C117.802 5.36 118.595 5.14 119.475 5.14C120.169 5.14 120.789 5.28 121.335 5.56C121.882 5.84 122.315 6.23333 122.635 6.74C122.969 7.23333 123.149 7.79333 123.175 8.42V11.9C123.149 12.54 122.969 13.1067 122.635 13.6C122.315 14.0933 121.882 14.4867 121.335 14.78C120.789 15.06 120.169 15.2 119.475 15.2ZM119.955 12.78C120.689 12.78 121.282 12.54 121.735 12.06C122.189 11.5667 122.415 10.9333 122.415 10.16C122.415 9.65333 122.309 9.20667 122.095 8.82C121.895 8.42 121.609 8.11333 121.235 7.9C120.875 7.67333 120.449 7.56 119.955 7.56C119.475 7.56 119.049 7.67333 118.675 7.9C118.315 8.11333 118.029 8.42 117.815 8.82C117.615 9.20667 117.515 9.65333 117.515 10.16C117.515 10.68 117.615 11.14 117.815 11.54C118.029 11.9267 118.315 12.2333 118.675 12.46C119.049 12.6733 119.475 12.78 119.955 12.78ZM122.275 15V12.4L122.695 10.04L122.275 7.72V5.34H124.875V15H122.275ZM128.613 15V1.32H131.233V15H128.613ZM126.353 7.64V5.34H133.493V7.64H126.353ZM134.967 15V5.34H137.607V15H134.967ZM136.287 3.78C135.86 3.78 135.507 3.64 135.227 3.36C134.947 3.06667 134.807 2.70667 134.807 2.28C134.807 1.86667 134.947 1.51333 135.227 1.22C135.507 0.926666 135.86 0.779999 136.287 0.779999C136.727 0.779999 137.08 0.926666 137.347 1.22C137.627 1.51333 137.767 1.86667 137.767 2.28C137.767 2.70667 137.627 3.06667 137.347 3.36C137.08 3.64 136.727 3.78 136.287 3.78ZM143.068 15L138.808 5.34H141.688L144.748 13.3H143.328L146.408 5.34H149.188L144.948 15H143.068ZM150.396 15V5.34H153.036V15H150.396ZM151.716 3.78C151.29 3.78 150.936 3.64 150.656 3.36C150.376 3.06667 150.236 2.70667 150.236 2.28C150.236 1.86667 150.376 1.51333 150.656 1.22C150.936 0.926666 151.29 0.779999 151.716 0.779999C152.156 0.779999 152.51 0.926666 152.776 1.22C153.056 1.51333 153.196 1.86667 153.196 2.28C153.196 2.70667 153.056 3.06667 152.776 3.36C152.51 3.64 152.156 3.78 151.716 3.78ZM156.777 15V1.32H159.397V15H156.777ZM154.517 7.64V5.34H161.657V7.64H154.517ZM166.171 15.08L162.131 5.34H164.971L167.651 12.78H166.691L169.471 5.34H172.331L168.031 15.06L166.171 15.08ZM163.491 19.04L166.431 12.82L168.031 15.06L166.271 19.04H163.491ZM181.012 15V1.24H183.752V15H181.012ZM176.532 3.36V0.94H188.232V3.36H176.532ZM191.968 15.2C190.994 15.2 190.114 14.98 189.328 14.54C188.554 14.0867 187.934 13.48 187.468 12.72C187.014 11.9467 186.788 11.0867 186.788 10.14C186.788 9.19333 187.014 8.34667 187.468 7.6C187.921 6.84 188.541 6.24 189.328 5.8C190.114 5.34667 190.988 5.12 191.948 5.12C192.934 5.12 193.814 5.34667 194.588 5.8C195.374 6.24 195.994 6.84 196.448 7.6C196.901 8.34667 197.128 9.19333 197.128 10.14C197.128 11.0867 196.901 11.9467 196.448 12.72C195.994 13.48 195.374 14.0867 194.588 14.54C193.814 14.98 192.941 15.2 191.968 15.2ZM191.948 12.76C192.441 12.76 192.874 12.6533 193.248 12.44C193.634 12.2133 193.928 11.9067 194.128 11.52C194.341 11.12 194.448 10.6667 194.448 10.16C194.448 9.65333 194.341 9.20667 194.128 8.82C193.914 8.43333 193.621 8.13333 193.248 7.92C192.874 7.69333 192.441 7.58 191.948 7.58C191.468 7.58 191.041 7.69333 190.668 7.92C190.294 8.13333 190.001 8.43333 189.788 8.82C189.574 9.20667 189.468 9.65333 189.468 10.16C189.468 10.6667 189.574 11.12 189.788 11.52C190.001 11.9067 190.294 12.2133 190.668 12.44C191.041 12.6533 191.468 12.76 191.948 12.76ZM203.001 15V0.94H205.721V15H203.001ZM205.001 15V12.6H212.781V15H205.001ZM205.001 8.98V6.66H212.081V8.98H205.001ZM205.001 3.34V0.94H212.681V3.34H205.001ZM221.252 15V9.46C221.252 8.88667 221.072 8.42 220.712 8.06C220.352 7.7 219.885 7.52 219.312 7.52C218.938 7.52 218.605 7.6 218.312 7.76C218.018 7.92 217.785 8.14667 217.612 8.44C217.452 8.73333 217.372 9.07333 217.372 9.46L216.352 8.94C216.352 8.18 216.512 7.52 216.832 6.96C217.165 6.38667 217.618 5.94 218.192 5.62C218.778 5.3 219.438 5.14 220.172 5.14C220.878 5.14 221.512 5.32 222.072 5.68C222.632 6.02667 223.072 6.48667 223.392 7.06C223.712 7.62 223.872 8.22667 223.872 8.88V15H221.252ZM214.752 15V5.34H217.372V15H214.752ZM232.482 15V9.46C232.482 8.88667 232.302 8.42 231.942 8.06C231.582 7.7 231.116 7.52 230.542 7.52C230.169 7.52 229.836 7.6 229.542 7.76C229.249 7.92 229.016 8.14667 228.842 8.44C228.682 8.73333 228.602 9.07333 228.602 9.46L227.582 8.94C227.582 8.18 227.742 7.52 228.062 6.96C228.382 6.38667 228.822 5.94 229.382 5.62C229.956 5.3 230.609 5.14 231.342 5.14C232.076 5.14 232.722 5.3 233.282 5.62C233.856 5.94 234.302 6.38 234.622 6.94C234.942 7.5 235.102 8.14667 235.102 8.88V15H232.482ZM225.982 15V0.539999H228.602V15H225.982ZM241.253 15.2C240.373 15.2 239.579 14.98 238.873 14.54C238.166 14.1 237.613 13.5 237.213 12.74C236.813 11.98 236.613 11.1267 236.613 10.18C236.613 9.22 236.813 8.36 237.213 7.6C237.613 6.84 238.166 6.24 238.873 5.8C239.579 5.36 240.373 5.14 241.253 5.14C241.946 5.14 242.566 5.28 243.113 5.56C243.659 5.84 244.093 6.23333 244.413 6.74C244.746 7.23333 244.926 7.79333 244.953 8.42V11.9C244.926 12.54 244.746 13.1067 244.413 13.6C244.093 14.0933 243.659 14.4867 243.113 14.78C242.566 15.06 241.946 15.2 241.253 15.2ZM241.733 12.78C242.466 12.78 243.059 12.54 243.513 12.06C243.966 11.5667 244.193 10.9333 244.193 10.16C244.193 9.65333 244.086 9.20667 243.873 8.82C243.673 8.42 243.386 8.11333 243.013 7.9C242.653 7.67333 242.226 7.56 241.733 7.56C241.253 7.56 240.826 7.67333 240.453 7.9C240.093 8.11333 239.806 8.42 239.593 8.82C239.393 9.20667 239.293 9.65333 239.293 10.16C239.293 10.68 239.393 11.14 239.593 11.54C239.806 11.9267 240.093 12.2333 240.453 12.46C240.826 12.6733 241.253 12.78 241.733 12.78ZM244.053 15V12.4L244.473 10.04L244.053 7.72V5.34H246.653V15H244.053ZM255.471 15V9.46C255.471 8.88667 255.291 8.42 254.931 8.06C254.571 7.7 254.104 7.52 253.531 7.52C253.157 7.52 252.824 7.6 252.531 7.76C252.237 7.92 252.004 8.14667 251.831 8.44C251.671 8.73333 251.591 9.07333 251.591 9.46L250.571 8.94C250.571 8.18 250.731 7.52 251.051 6.96C251.384 6.38667 251.837 5.94 252.411 5.62C252.997 5.3 253.657 5.14 254.391 5.14C255.097 5.14 255.731 5.32 256.291 5.68C256.851 6.02667 257.291 6.48667 257.611 7.06C257.931 7.62 258.091 8.22667 258.091 8.88V15H255.471ZM248.971 15V5.34H251.591V15H248.971ZM264.761 15.2C263.774 15.2 262.888 14.98 262.101 14.54C261.314 14.1 260.694 13.5 260.241 12.74C259.788 11.98 259.561 11.1267 259.561 10.18C259.561 9.22 259.788 8.36 260.241 7.6C260.694 6.84 261.314 6.24 262.101 5.8C262.901 5.34667 263.788 5.12 264.761 5.12C265.521 5.12 266.221 5.26 266.861 5.54C267.501 5.82 268.054 6.22 268.521 6.74L266.841 8.44C266.588 8.16 266.281 7.94667 265.921 7.8C265.574 7.65333 265.188 7.58 264.761 7.58C264.281 7.58 263.848 7.69333 263.461 7.92C263.088 8.13333 262.788 8.43333 262.561 8.82C262.348 9.19333 262.241 9.64 262.241 10.16C262.241 10.6667 262.348 11.12 262.561 11.52C262.788 11.9067 263.088 12.2133 263.461 12.44C263.848 12.6533 264.281 12.76 264.761 12.76C265.201 12.76 265.594 12.6867 265.941 12.54C266.301 12.38 266.608 12.1533 266.861 11.86L268.561 13.56C268.068 14.0933 267.501 14.5 266.861 14.78C266.221 15.06 265.521 15.2 264.761 15.2ZM274.45 15.2C273.437 15.2 272.537 14.9867 271.75 14.56C270.963 14.12 270.337 13.52 269.87 12.76C269.417 12 269.19 11.1333 269.19 10.16C269.19 9.2 269.41 8.34667 269.85 7.6C270.303 6.84 270.917 6.24 271.69 5.8C272.463 5.34667 273.323 5.12 274.27 5.12C275.203 5.12 276.023 5.33333 276.73 5.76C277.45 6.17333 278.01 6.74667 278.41 7.48C278.823 8.2 279.03 9.02 279.03 9.94C279.03 10.1133 279.017 10.2933 278.99 10.48C278.977 10.6533 278.943 10.8533 278.89 11.08L270.77 11.1V9.14L277.67 9.12L276.61 9.94C276.583 9.36667 276.477 8.88667 276.29 8.5C276.117 8.11333 275.857 7.82 275.51 7.62C275.177 7.40667 274.763 7.3 274.27 7.3C273.75 7.3 273.297 7.42 272.91 7.66C272.523 7.88667 272.223 8.21333 272.01 8.64C271.81 9.05333 271.71 9.54667 271.71 10.12C271.71 10.7067 271.817 11.22 272.03 11.66C272.257 12.0867 272.577 12.42 272.99 12.66C273.403 12.8867 273.883 13 274.43 13C274.923 13 275.37 12.92 275.77 12.76C276.17 12.5867 276.517 12.3333 276.81 12L278.35 13.54C277.883 14.0867 277.31 14.5 276.63 14.78C275.963 15.06 275.237 15.2 274.45 15.2ZM55.4172 33.58L49.9772 24.94H53.1172L57.3372 31.86H55.5372L59.7572 24.94H62.8572L57.3572 33.58H55.4172ZM55.0572 39V32.12H57.7972V39H55.0572ZM66.0008 39.2C65.0274 39.2 64.1474 38.98 63.3608 38.54C62.5874 38.0867 61.9674 37.48 61.5008 36.72C61.0474 35.9467 60.8208 35.0867 60.8208 34.14C60.8208 33.1933 61.0474 32.3467 61.5008 31.6C61.9541 30.84 62.5741 30.24 63.3608 29.8C64.1474 29.3467 65.0208 29.12 65.9808 29.12C66.9674 29.12 67.8474 29.3467 68.6208 29.8C69.4074 30.24 70.0274 30.84 70.4808 31.6C70.9341 32.3467 71.1608 33.1933 71.1608 34.14C71.1608 35.0867 70.9341 35.9467 70.4808 36.72C70.0274 37.48 69.4074 38.0867 68.6208 38.54C67.8474 38.98 66.9741 39.2 66.0008 39.2ZM65.9808 36.76C66.4741 36.76 66.9074 36.6533 67.2808 36.44C67.6674 36.2133 67.9608 35.9067 68.1608 35.52C68.3741 35.12 68.4808 34.6667 68.4808 34.16C68.4808 33.6533 68.3741 33.2067 68.1608 32.82C67.9474 32.4333 67.6541 32.1333 67.2808 31.92C66.9074 31.6933 66.4741 31.58 65.9808 31.58C65.5008 31.58 65.0741 31.6933 64.7008 31.92C64.3274 32.1333 64.0341 32.4333 63.8208 32.82C63.6074 33.2067 63.5008 33.6533 63.5008 34.16C63.5008 34.6667 63.6074 35.12 63.8208 35.52C64.0341 35.9067 64.3274 36.2133 64.7008 36.44C65.0741 36.6533 65.5008 36.76 65.9808 36.76ZM76.9675 39.2C76.1142 39.2 75.3542 39.02 74.6875 38.66C74.0342 38.3 73.5208 37.8 73.1475 37.16C72.7742 36.52 72.5875 35.78 72.5875 34.94V29.34H75.2275V34.88C75.2275 35.28 75.2942 35.6267 75.4275 35.92C75.5608 36.2 75.7608 36.4133 76.0275 36.56C76.2942 36.7067 76.6075 36.78 76.9675 36.78C77.5142 36.78 77.9408 36.6133 78.2475 36.28C78.5542 35.9467 78.7075 35.48 78.7075 34.88V29.34H81.3275V34.94C81.3275 35.7933 81.1408 36.54 80.7675 37.18C80.4075 37.82 79.8942 38.32 79.2275 38.68C78.5742 39.0267 77.8208 39.2 76.9675 39.2ZM83.4139 39V29.34H86.0339V39H83.4139ZM86.0339 33.66L85.0139 32.98C85.1339 31.7933 85.4806 30.86 86.0539 30.18C86.6272 29.4867 87.4539 29.14 88.5339 29.14C89.0006 29.14 89.4206 29.22 89.7939 29.38C90.1672 29.5267 90.5072 29.7733 90.8139 30.12L89.1739 32C89.0272 31.84 88.8472 31.72 88.6339 31.64C88.4339 31.56 88.2006 31.52 87.9339 31.52C87.3739 31.52 86.9139 31.7 86.5539 32.06C86.2072 32.4067 86.0339 32.94 86.0339 33.66ZM102.792 39.2C101.765 39.2 100.812 39.02 99.932 38.66C99.052 38.2867 98.2787 37.7733 97.612 37.12C96.9587 36.4533 96.452 35.68 96.092 34.8C95.7454 33.92 95.572 32.9733 95.572 31.96C95.572 30.9467 95.7454 30 96.092 29.12C96.452 28.24 96.9587 27.4733 97.612 26.82C98.2787 26.1667 99.0454 25.6533 99.912 25.28C100.792 24.9067 101.752 24.72 102.792 24.72C103.912 24.72 104.899 24.9067 105.752 25.28C106.605 25.64 107.359 26.14 108.012 26.78L106.172 28.62C105.785 28.1933 105.312 27.86 104.752 27.62C104.192 27.38 103.539 27.26 102.792 27.26C102.139 27.26 101.539 27.3733 100.992 27.6C100.459 27.8133 99.992 28.1333 99.592 28.56C99.192 28.9733 98.8854 29.4733 98.672 30.06C98.4587 30.6333 98.352 31.2667 98.352 31.96C98.352 32.6667 98.4587 33.3067 98.672 33.88C98.8854 34.4533 99.192 34.9533 99.592 35.38C99.992 35.7933 100.459 36.1133 100.992 36.34C101.539 36.5667 102.139 36.68 102.792 36.68C103.579 36.68 104.252 36.56 104.812 36.32C105.385 36.08 105.865 35.74 106.252 35.3L108.092 37.14C107.439 37.7933 106.679 38.3 105.812 38.66C104.945 39.02 103.939 39.2 102.792 39.2ZM109.703 39V24.54H112.323V39H109.703ZM114.644 39V29.34H117.284V39H114.644ZM115.964 27.78C115.538 27.78 115.184 27.64 114.904 27.36C114.624 27.0667 114.484 26.7067 114.484 26.28C114.484 25.8667 114.624 25.5133 114.904 25.22C115.184 24.9267 115.538 24.78 115.964 24.78C116.404 24.78 116.758 24.9267 117.024 25.22C117.304 25.5133 117.444 25.8667 117.444 26.28C117.444 26.7067 117.304 27.0667 117.024 27.36C116.758 27.64 116.404 27.78 115.964 27.78ZM124.225 39.2C123.212 39.2 122.312 38.9867 121.525 38.56C120.739 38.12 120.112 37.52 119.645 36.76C119.192 36 118.965 35.1333 118.965 34.16C118.965 33.2 119.185 32.3467 119.625 31.6C120.079 30.84 120.692 30.24 121.465 29.8C122.239 29.3467 123.099 29.12 124.045 29.12C124.979 29.12 125.799 29.3333 126.505 29.76C127.225 30.1733 127.785 30.7467 128.185 31.48C128.599 32.2 128.805 33.02 128.805 33.94C128.805 34.1133 128.792 34.2933 128.765 34.48C128.752 34.6533 128.719 34.8533 128.665 35.08L120.545 35.1V33.14L127.445 33.12L126.385 33.94C126.359 33.3667 126.252 32.8867 126.065 32.5C125.892 32.1133 125.632 31.82 125.285 31.62C124.952 31.4067 124.539 31.3 124.045 31.3C123.525 31.3 123.072 31.42 122.685 31.66C122.299 31.8867 121.999 32.2133 121.785 32.64C121.585 33.0533 121.485 33.5467 121.485 34.12C121.485 34.7067 121.592 35.22 121.805 35.66C122.032 36.0867 122.352 36.42 122.765 36.66C123.179 36.8867 123.659 37 124.205 37C124.699 37 125.145 36.92 125.545 36.76C125.945 36.5867 126.292 36.3333 126.585 36L128.125 37.54C127.659 38.0867 127.085 38.5 126.405 38.78C125.739 39.06 125.012 39.2 124.225 39.2ZM136.926 39V33.46C136.926 32.8867 136.746 32.42 136.386 32.06C136.026 31.7 135.559 31.52 134.986 31.52C134.612 31.52 134.279 31.6 133.986 31.76C133.692 31.92 133.459 32.1467 133.286 32.44C133.126 32.7333 133.046 33.0733 133.046 33.46L132.026 32.94C132.026 32.18 132.186 31.52 132.506 30.96C132.839 30.3867 133.292 29.94 133.866 29.62C134.452 29.3 135.112 29.14 135.846 29.14C136.552 29.14 137.186 29.32 137.746 29.68C138.306 30.0267 138.746 30.4867 139.066 31.06C139.386 31.62 139.546 32.2267 139.546 32.88V39H136.926ZM130.426 39V29.34H133.046V39H130.426ZM142.959 39V25.32H145.579V39H142.959ZM140.699 31.64V29.34H147.839V31.64H140.699ZM149.502 30.22L150.902 27.6L151.742 27.36C151.649 27.5467 151.542 27.7 151.422 27.82C151.302 27.9267 151.162 27.98 151.002 27.98C150.655 27.98 150.335 27.84 150.042 27.56C149.762 27.2667 149.622 26.9 149.622 26.46C149.622 25.98 149.782 25.5733 150.102 25.24C150.422 24.9067 150.815 24.74 151.282 24.74C151.735 24.74 152.129 24.9067 152.462 25.24C152.795 25.5733 152.962 25.98 152.962 26.46C152.962 26.6467 152.922 26.8733 152.842 27.14C152.762 27.3933 152.615 27.72 152.402 28.12L150.862 30.96L149.502 30.22ZM157.007 39.22C156.461 39.22 155.921 39.1467 155.387 39C154.867 38.8533 154.387 38.6533 153.947 38.4C153.507 38.1333 153.127 37.8133 152.807 37.44L154.367 35.86C154.701 36.2333 155.087 36.5133 155.527 36.7C155.967 36.8867 156.454 36.98 156.987 36.98C157.414 36.98 157.734 36.92 157.947 36.8C158.174 36.68 158.287 36.5 158.287 36.26C158.287 35.9933 158.167 35.7867 157.927 35.64C157.701 35.4933 157.401 35.3733 157.027 35.28C156.654 35.1733 156.261 35.06 155.847 34.94C155.447 34.8067 155.061 34.64 154.687 34.44C154.314 34.2267 154.007 33.94 153.767 33.58C153.541 33.2067 153.427 32.7267 153.427 32.14C153.427 31.5267 153.574 30.9933 153.867 30.54C154.174 30.0867 154.607 29.7333 155.167 29.48C155.727 29.2267 156.387 29.1 157.147 29.1C157.947 29.1 158.667 29.24 159.307 29.52C159.961 29.8 160.501 30.22 160.927 30.78L159.347 32.36C159.054 32 158.721 31.74 158.347 31.58C157.987 31.42 157.594 31.34 157.167 31.34C156.781 31.34 156.481 31.4 156.267 31.52C156.067 31.64 155.967 31.8067 155.967 32.02C155.967 32.26 156.081 32.4467 156.307 32.58C156.547 32.7133 156.854 32.8333 157.227 32.94C157.601 33.0333 157.987 33.1467 158.387 33.28C158.801 33.4 159.187 33.5733 159.547 33.8C159.921 34.0267 160.221 34.3267 160.447 34.7C160.687 35.0733 160.807 35.5533 160.807 36.14C160.807 37.0867 160.467 37.84 159.787 38.4C159.107 38.9467 158.181 39.22 157.007 39.22ZM168.76 39V36.78H172.42C173.074 36.78 173.58 36.58 173.94 36.18C174.314 35.78 174.5 35.3067 174.5 34.76C174.5 34.3867 174.42 34.0467 174.26 33.74C174.1 33.4333 173.86 33.1933 173.54 33.02C173.234 32.8333 172.86 32.74 172.42 32.74H168.76V30.54H172.12C172.68 30.54 173.127 30.4 173.46 30.12C173.807 29.84 173.98 29.42 173.98 28.86C173.98 28.2867 173.807 27.86 173.46 27.58C173.127 27.3 172.68 27.16 172.12 27.16H168.76V24.94H172.44C173.374 24.94 174.154 25.1133 174.78 25.46C175.42 25.7933 175.9 26.24 176.22 26.8C176.54 27.3467 176.7 27.9467 176.7 28.6C176.7 29.4 176.454 30.0933 175.96 30.68C175.48 31.2533 174.774 31.68 173.84 31.96L173.96 31.08C175 31.3733 175.8 31.86 176.36 32.54C176.934 33.2067 177.22 34.0133 177.22 34.96C177.22 35.7067 177.034 36.3867 176.66 37C176.3 37.6 175.767 38.0867 175.06 38.46C174.367 38.82 173.52 39 172.52 39H168.76ZM166.76 39V24.94H169.46V39H166.76ZM183.718 39.2C182.704 39.2 181.804 38.9867 181.018 38.56C180.231 38.12 179.604 37.52 179.138 36.76C178.684 36 178.458 35.1333 178.458 34.16C178.458 33.2 178.678 32.3467 179.118 31.6C179.571 30.84 180.184 30.24 180.958 29.8C181.731 29.3467 182.591 29.12 183.538 29.12C184.471 29.12 185.291 29.3333 185.998 29.76C186.718 30.1733 187.278 30.7467 187.678 31.48C188.091 32.2 188.298 33.02 188.298 33.94C188.298 34.1133 188.284 34.2933 188.258 34.48C188.244 34.6533 188.211 34.8533 188.158 35.08L180.038 35.1V33.14L186.938 33.12L185.878 33.94C185.851 33.3667 185.744 32.8867 185.558 32.5C185.384 32.1133 185.124 31.82 184.778 31.62C184.444 31.4067 184.031 31.3 183.538 31.3C183.018 31.3 182.564 31.42 182.178 31.66C181.791 31.8867 181.491 32.2133 181.278 32.64C181.078 33.0533 180.978 33.5467 180.978 34.12C180.978 34.7067 181.084 35.22 181.298 35.66C181.524 36.0867 181.844 36.42 182.258 36.66C182.671 36.8867 183.151 37 183.698 37C184.191 37 184.638 36.92 185.038 36.76C185.438 36.5867 185.784 36.3333 186.078 36L187.618 37.54C187.151 38.0867 186.578 38.5 185.898 38.78C185.231 39.06 184.504 39.2 183.718 39.2ZM193.958 39.2C193.078 39.2 192.284 38.98 191.578 38.54C190.871 38.1 190.318 37.5 189.918 36.74C189.518 35.98 189.318 35.1267 189.318 34.18C189.318 33.22 189.518 32.36 189.918 31.6C190.318 30.84 190.871 30.24 191.578 29.8C192.284 29.36 193.078 29.14 193.958 29.14C194.651 29.14 195.271 29.28 195.818 29.56C196.364 29.84 196.798 30.2333 197.118 30.74C197.451 31.2333 197.631 31.7933 197.658 32.42V35.9C197.631 36.54 197.451 37.1067 197.118 37.6C196.798 38.0933 196.364 38.4867 195.818 38.78C195.271 39.06 194.651 39.2 193.958 39.2ZM194.438 36.78C195.171 36.78 195.764 36.54 196.218 36.06C196.671 35.5667 196.898 34.9333 196.898 34.16C196.898 33.6533 196.791 33.2067 196.578 32.82C196.378 32.42 196.091 32.1133 195.718 31.9C195.358 31.6733 194.931 31.56 194.438 31.56C193.958 31.56 193.531 31.6733 193.158 31.9C192.798 32.1133 192.511 32.42 192.298 32.82C192.098 33.2067 191.998 33.6533 191.998 34.16C191.998 34.68 192.098 35.14 192.298 35.54C192.511 35.9267 192.798 36.2333 193.158 36.46C193.531 36.6733 193.958 36.78 194.438 36.78ZM196.758 39V36.4L197.178 34.04L196.758 31.72V29.34H199.358V39H196.758ZM205.796 39.2C204.942 39.2 204.182 39.02 203.516 38.66C202.862 38.3 202.349 37.8 201.976 37.16C201.602 36.52 201.416 35.78 201.416 34.94V29.34H204.056V34.88C204.056 35.28 204.122 35.6267 204.256 35.92C204.389 36.2 204.589 36.4133 204.856 36.56C205.122 36.7067 205.436 36.78 205.796 36.78C206.342 36.78 206.769 36.6133 207.076 36.28C207.382 35.9467 207.536 35.48 207.536 34.88V29.34H210.156V34.94C210.156 35.7933 209.969 36.54 209.596 37.18C209.236 37.82 208.722 38.32 208.056 38.68C207.402 39.0267 206.649 39.2 205.796 39.2ZM213.662 39V25.32H216.282V39H213.662ZM211.402 31.64V29.34H218.542V31.64H211.402ZM223.055 39.08L219.015 29.34H221.855L224.535 36.78H223.575L226.355 29.34H229.215L224.915 39.06L223.055 39.08ZM220.375 43.04L223.315 36.82L224.915 39.06L223.155 43.04H220.375Z" fill="black"/>
</svg>
