<svg width="220" height="16" viewBox="0 0 220 16" fill="none" xmlns="http://www.w3.org/2000/svg">
<path d="M0.920469 15V0.94H3.64047V15H0.920469ZM2.92047 9.24V6.82H10.0005V9.24H2.92047ZM2.92047 3.34V0.94H10.3405V3.34H2.92047ZM12.203 15V5.34H14.843V15H12.203ZM13.523 3.78C13.0963 3.78 12.743 3.64 12.463 3.36C12.183 3.06667 12.043 2.70667 12.043 2.28C12.043 1.86667 12.183 1.51333 12.463 1.22C12.743 0.926666 13.0963 0.779999 13.523 0.779999C13.963 0.779999 14.3163 0.926666 14.583 1.22C14.863 1.51333 15.003 1.86667 15.003 2.28C15.003 2.70667 14.863 3.06667 14.583 3.36C14.3163 3.64 13.963 3.78 13.523 3.78ZM23.6639 15V9.46C23.6639 8.88667 23.4839 8.42 23.1239 8.06C22.7639 7.7 22.2972 7.52 21.7239 7.52C21.3506 7.52 21.0172 7.6 20.7239 7.76C20.4306 7.92 20.1972 8.14667 20.0239 8.44C19.8639 8.73333 19.7839 9.07333 19.7839 9.46L18.7639 8.94C18.7639 8.18 18.9239 7.52 19.2439 6.96C19.5772 6.38667 20.0306 5.94 20.6039 5.62C21.1906 5.3 21.8506 5.14 22.5839 5.14C23.2906 5.14 23.9239 5.32 24.4839 5.68C25.0439 6.02667 25.4839 6.48667 25.8039 7.06C26.1239 7.62 26.2839 8.22667 26.2839 8.88V15H23.6639ZM17.1639 15V5.34H19.7839V15H17.1639ZM32.4744 15.2C31.581 15.2 30.781 14.98 30.0744 14.54C29.3677 14.1 28.8077 13.5 28.3944 12.74C27.9944 11.98 27.7944 11.1267 27.7944 10.18C27.7944 9.22 27.9944 8.36 28.3944 7.6C28.8077 6.84 29.361 6.24 30.0544 5.8C30.761 5.36 31.5677 5.14 32.4744 5.14C33.1677 5.14 33.7877 5.28 34.3344 5.56C34.8944 5.84 35.341 6.23333 35.6744 6.74C36.021 7.23333 36.2077 7.79333 36.2344 8.42V11.86C36.2077 12.4867 36.0277 13.0533 35.6944 13.56C35.361 14.0667 34.9144 14.4667 34.3544 14.76C33.7944 15.0533 33.1677 15.2 32.4744 15.2ZM32.9144 12.78C33.4077 12.78 33.8344 12.6733 34.1944 12.46C34.5677 12.2333 34.8544 11.9267 35.0544 11.54C35.2677 11.14 35.3744 10.68 35.3744 10.16C35.3744 9.65333 35.2677 9.20667 35.0544 8.82C34.8544 8.42 34.5677 8.11333 34.1944 7.9C33.8344 7.67333 33.4144 7.56 32.9344 7.56C32.441 7.56 32.0077 7.67333 31.6344 7.9C31.2744 8.12667 30.9877 8.43333 30.7744 8.82C30.5744 9.20667 30.4744 9.65333 30.4744 10.16C30.4744 10.68 30.5744 11.14 30.7744 11.54C30.9877 11.9267 31.281 12.2333 31.6544 12.46C32.0277 12.6733 32.4477 12.78 32.9144 12.78ZM37.8344 15H35.2344V12.4L35.6544 10.04L35.2144 7.72V0.539999H37.8344V15ZM42.732 15L48.392 0.94H50.612L56.252 15H53.352L48.992 3.46H49.992L45.572 15H42.732ZM45.732 12.38V10.1H53.292V12.38H45.732ZM61.4088 15V0.94H64.1288V15H61.4088ZM63.4088 15V12.58H70.5688V15H63.4088ZM76.5281 15.2C75.5548 15.2 74.6748 14.98 73.8881 14.54C73.1148 14.0867 72.4948 13.48 72.0281 12.72C71.5748 11.9467 71.3481 11.0867 71.3481 10.14C71.3481 9.19333 71.5748 8.34667 72.0281 7.6C72.4815 6.84 73.1015 6.24 73.8881 5.8C74.6748 5.34667 75.5481 5.12 76.5081 5.12C77.4948 5.12 78.3748 5.34667 79.1481 5.8C79.9348 6.24 80.5548 6.84 81.0081 7.6C81.4615 8.34667 81.6881 9.19333 81.6881 10.14C81.6881 11.0867 81.4615 11.9467 81.0081 12.72C80.5548 13.48 79.9348 14.0867 79.1481 14.54C78.3748 14.98 77.5015 15.2 76.5281 15.2ZM76.5081 12.76C77.0015 12.76 77.4348 12.6533 77.8081 12.44C78.1948 12.2133 78.4881 11.9067 78.6881 11.52C78.9015 11.12 79.0081 10.6667 79.0081 10.16C79.0081 9.65333 78.9015 9.20667 78.6881 8.82C78.4748 8.43333 78.1815 8.13333 77.8081 7.92C77.4348 7.69333 77.0015 7.58 76.5081 7.58C76.0281 7.58 75.6015 7.69333 75.2281 7.92C74.8548 8.13333 74.5615 8.43333 74.3481 8.82C74.1348 9.20667 74.0281 9.65333 74.0281 10.16C74.0281 10.6667 74.1348 11.12 74.3481 11.52C74.5615 11.9067 74.8548 12.2133 75.2281 12.44C75.6015 12.6533 76.0281 12.76 76.5081 12.76ZM87.9348 15.2C86.9482 15.2 86.0615 14.98 85.2748 14.54C84.4882 14.1 83.8682 13.5 83.4148 12.74C82.9615 11.98 82.7348 11.1267 82.7348 10.18C82.7348 9.22 82.9615 8.36 83.4148 7.6C83.8682 6.84 84.4882 6.24 85.2748 5.8C86.0748 5.34667 86.9615 5.12 87.9348 5.12C88.6948 5.12 89.3948 5.26 90.0348 5.54C90.6748 5.82 91.2282 6.22 91.6948 6.74L90.0148 8.44C89.7615 8.16 89.4548 7.94667 89.0948 7.8C88.7482 7.65333 88.3615 7.58 87.9348 7.58C87.4548 7.58 87.0215 7.69333 86.6348 7.92C86.2615 8.13333 85.9615 8.43333 85.7348 8.82C85.5215 9.19333 85.4148 9.64 85.4148 10.16C85.4148 10.6667 85.5215 11.12 85.7348 11.52C85.9615 11.9067 86.2615 12.2133 86.6348 12.44C87.0215 12.6533 87.4548 12.76 87.9348 12.76C88.3748 12.76 88.7682 12.6867 89.1148 12.54C89.4748 12.38 89.7815 12.1533 90.0348 11.86L91.7348 13.56C91.2415 14.0933 90.6748 14.5 90.0348 14.78C89.3948 15.06 88.6948 15.2 87.9348 15.2ZM97.0438 15.2C96.1638 15.2 95.3704 14.98 94.6638 14.54C93.9571 14.1 93.4038 13.5 93.0038 12.74C92.6038 11.98 92.4038 11.1267 92.4038 10.18C92.4038 9.22 92.6038 8.36 93.0038 7.6C93.4038 6.84 93.9571 6.24 94.6638 5.8C95.3704 5.36 96.1638 5.14 97.0438 5.14C97.7371 5.14 98.3571 5.28 98.9038 5.56C99.4504 5.84 99.8838 6.23333 100.204 6.74C100.537 7.23333 100.717 7.79333 100.744 8.42V11.9C100.717 12.54 100.537 13.1067 100.204 13.6C99.8838 14.0933 99.4504 14.4867 98.9038 14.78C98.3571 15.06 97.7371 15.2 97.0438 15.2ZM97.5238 12.78C98.2571 12.78 98.8504 12.54 99.3038 12.06C99.7571 11.5667 99.9838 10.9333 99.9838 10.16C99.9838 9.65333 99.8771 9.20667 99.6638 8.82C99.4638 8.42 99.1771 8.11333 98.8038 7.9C98.4438 7.67333 98.0171 7.56 97.5238 7.56C97.0438 7.56 96.6171 7.67333 96.2438 7.9C95.8838 8.11333 95.5971 8.42 95.3838 8.82C95.1838 9.20667 95.0838 9.65333 95.0838 10.16C95.0838 10.68 95.1838 11.14 95.3838 11.54C95.5971 11.9267 95.8838 12.2333 96.2438 12.46C96.6171 12.6733 97.0438 12.78 97.5238 12.78ZM99.8438 15V12.4L100.264 10.04L99.8438 7.72V5.34H102.444V15H99.8438ZM104.762 15V0.539999H107.382V15H104.762ZM113.889 15V0.94H116.609V15H113.889ZM122.709 15V0.94H125.429V15H122.709ZM115.609 8.94V6.54H123.469V8.94H115.609ZM132.063 15.2C131.183 15.2 130.39 14.98 129.683 14.54C128.977 14.1 128.423 13.5 128.023 12.74C127.623 11.98 127.423 11.1267 127.423 10.18C127.423 9.22 127.623 8.36 128.023 7.6C128.423 6.84 128.977 6.24 129.683 5.8C130.39 5.36 131.183 5.14 132.063 5.14C132.757 5.14 133.377 5.28 133.923 5.56C134.47 5.84 134.903 6.23333 135.223 6.74C135.557 7.23333 135.737 7.79333 135.763 8.42V11.9C135.737 12.54 135.557 13.1067 135.223 13.6C134.903 14.0933 134.47 14.4867 133.923 14.78C133.377 15.06 132.757 15.2 132.063 15.2ZM132.543 12.78C133.277 12.78 133.87 12.54 134.323 12.06C134.777 11.5667 135.003 10.9333 135.003 10.16C135.003 9.65333 134.897 9.20667 134.683 8.82C134.483 8.42 134.197 8.11333 133.823 7.9C133.463 7.67333 133.037 7.56 132.543 7.56C132.063 7.56 131.637 7.67333 131.263 7.9C130.903 8.11333 130.617 8.42 130.403 8.82C130.203 9.20667 130.103 9.65333 130.103 10.16C130.103 10.68 130.203 11.14 130.403 11.54C130.617 11.9267 130.903 12.2333 131.263 12.46C131.637 12.6733 132.063 12.78 132.543 12.78ZM134.863 15V12.4L135.283 10.04L134.863 7.72V5.34H137.463V15H134.863ZM139.781 15V5.34H142.421V15H139.781ZM141.101 3.78C140.674 3.78 140.321 3.64 140.041 3.36C139.761 3.06667 139.621 2.70667 139.621 2.28C139.621 1.86667 139.761 1.51333 140.041 1.22C140.321 0.926666 140.674 0.779999 141.101 0.779999C141.541 0.779999 141.894 0.926666 142.161 1.22C142.441 1.51333 142.581 1.86667 142.581 2.28C142.581 2.70667 142.441 3.06667 142.161 3.36C141.894 3.64 141.541 3.78 141.101 3.78ZM144.742 15V5.34H147.362V15H144.742ZM147.362 9.66L146.342 8.98C146.462 7.79333 146.809 6.86 147.382 6.18C147.955 5.48667 148.782 5.14 149.862 5.14C150.329 5.14 150.749 5.22 151.122 5.38C151.495 5.52667 151.835 5.77333 152.142 6.12L150.502 8C150.355 7.84 150.175 7.72 149.962 7.64C149.762 7.56 149.529 7.52 149.262 7.52C148.702 7.52 148.242 7.7 147.882 8.06C147.535 8.40667 147.362 8.94 147.362 9.66ZM156.869 15.2C155.976 15.2 155.176 14.98 154.469 14.54C153.762 14.1 153.202 13.5 152.789 12.74C152.389 11.98 152.189 11.1267 152.189 10.18C152.189 9.22 152.389 8.36 152.789 7.6C153.202 6.84 153.756 6.24 154.449 5.8C155.156 5.36 155.962 5.14 156.869 5.14C157.562 5.14 158.182 5.28 158.729 5.56C159.289 5.84 159.736 6.23333 160.069 6.74C160.416 7.23333 160.602 7.79333 160.629 8.42V11.86C160.602 12.4867 160.422 13.0533 160.089 13.56C159.756 14.0667 159.309 14.4667 158.749 14.76C158.189 15.0533 157.562 15.2 156.869 15.2ZM157.309 12.78C157.802 12.78 158.229 12.6733 158.589 12.46C158.962 12.2333 159.249 11.9267 159.449 11.54C159.662 11.14 159.769 10.68 159.769 10.16C159.769 9.65333 159.662 9.20667 159.449 8.82C159.249 8.42 158.962 8.11333 158.589 7.9C158.229 7.67333 157.809 7.56 157.329 7.56C156.836 7.56 156.402 7.67333 156.029 7.9C155.669 8.12667 155.382 8.43333 155.169 8.82C154.969 9.20667 154.869 9.65333 154.869 10.16C154.869 10.68 154.969 11.14 155.169 11.54C155.382 11.9267 155.676 12.2333 156.049 12.46C156.422 12.6733 156.842 12.78 157.309 12.78ZM162.229 15H159.629V12.4L160.049 10.04L159.609 7.72V0.539999H162.229V15ZM164.547 15V5.34H167.167V15H164.547ZM167.167 9.66L166.147 8.98C166.267 7.79333 166.613 6.86 167.187 6.18C167.76 5.48667 168.587 5.14 169.667 5.14C170.133 5.14 170.553 5.22 170.927 5.38C171.3 5.52667 171.64 5.77333 171.947 6.12L170.307 8C170.16 7.84 169.98 7.72 169.767 7.64C169.567 7.56 169.333 7.52 169.067 7.52C168.507 7.52 168.047 7.7 167.687 8.06C167.34 8.40667 167.167 8.94 167.167 9.66ZM177.214 15.2C176.2 15.2 175.3 14.9867 174.514 14.56C173.727 14.12 173.1 13.52 172.634 12.76C172.18 12 171.954 11.1333 171.954 10.16C171.954 9.2 172.174 8.34667 172.614 7.6C173.067 6.84 173.68 6.24 174.454 5.8C175.227 5.34667 176.087 5.12 177.034 5.12C177.967 5.12 178.787 5.33333 179.494 5.76C180.214 6.17333 180.774 6.74667 181.174 7.48C181.587 8.2 181.794 9.02 181.794 9.94C181.794 10.1133 181.78 10.2933 181.754 10.48C181.74 10.6533 181.707 10.8533 181.654 11.08L173.534 11.1V9.14L180.434 9.12L179.374 9.94C179.347 9.36667 179.24 8.88667 179.054 8.5C178.88 8.11333 178.62 7.82 178.274 7.62C177.94 7.40667 177.527 7.3 177.034 7.3C176.514 7.3 176.06 7.42 175.674 7.66C175.287 7.88667 174.987 8.21333 174.774 8.64C174.574 9.05333 174.474 9.54667 174.474 10.12C174.474 10.7067 174.58 11.22 174.794 11.66C175.02 12.0867 175.34 12.42 175.754 12.66C176.167 12.8867 176.647 13 177.194 13C177.687 13 178.134 12.92 178.534 12.76C178.934 12.5867 179.28 12.3333 179.574 12L181.114 13.54C180.647 14.0867 180.074 14.5 179.394 14.78C178.727 15.06 178 15.2 177.214 15.2ZM186.734 15.22C186.187 15.22 185.647 15.1467 185.114 15C184.594 14.8533 184.114 14.6533 183.674 14.4C183.234 14.1333 182.854 13.8133 182.534 13.44L184.094 11.86C184.427 12.2333 184.814 12.5133 185.254 12.7C185.694 12.8867 186.181 12.98 186.714 12.98C187.141 12.98 187.461 12.92 187.674 12.8C187.901 12.68 188.014 12.5 188.014 12.26C188.014 11.9933 187.894 11.7867 187.654 11.64C187.427 11.4933 187.127 11.3733 186.754 11.28C186.381 11.1733 185.987 11.06 185.574 10.94C185.174 10.8067 184.787 10.64 184.414 10.44C184.041 10.2267 183.734 9.94 183.494 9.58C183.267 9.20667 183.154 8.72667 183.154 8.14C183.154 7.52667 183.301 6.99333 183.594 6.54C183.901 6.08667 184.334 5.73333 184.894 5.48C185.454 5.22667 186.114 5.1 186.874 5.1C187.674 5.1 188.394 5.24 189.034 5.52C189.687 5.8 190.227 6.22 190.654 6.78L189.074 8.36C188.781 8 188.447 7.74 188.074 7.58C187.714 7.42 187.321 7.34 186.894 7.34C186.507 7.34 186.207 7.4 185.994 7.52C185.794 7.64 185.694 7.80667 185.694 8.02C185.694 8.26 185.807 8.44667 186.034 8.58C186.274 8.71333 186.581 8.83333 186.954 8.94C187.327 9.03333 187.714 9.14667 188.114 9.28C188.527 9.4 188.914 9.57333 189.274 9.8C189.647 10.0267 189.947 10.3267 190.174 10.7C190.414 11.0733 190.534 11.5533 190.534 12.14C190.534 13.0867 190.194 13.84 189.514 14.4C188.834 14.9467 187.907 15.22 186.734 15.22ZM195.621 15.22C195.074 15.22 194.534 15.1467 194.001 15C193.481 14.8533 193.001 14.6533 192.561 14.4C192.121 14.1333 191.741 13.8133 191.421 13.44L192.981 11.86C193.314 12.2333 193.701 12.5133 194.141 12.7C194.581 12.8867 195.067 12.98 195.601 12.98C196.027 12.98 196.347 12.92 196.561 12.8C196.787 12.68 196.901 12.5 196.901 12.26C196.901 11.9933 196.781 11.7867 196.541 11.64C196.314 11.4933 196.014 11.3733 195.641 11.28C195.267 11.1733 194.874 11.06 194.461 10.94C194.061 10.8067 193.674 10.64 193.301 10.44C192.927 10.2267 192.621 9.94 192.381 9.58C192.154 9.20667 192.041 8.72667 192.041 8.14C192.041 7.52667 192.187 6.99333 192.481 6.54C192.787 6.08667 193.221 5.73333 193.781 5.48C194.341 5.22667 195.001 5.1 195.761 5.1C196.561 5.1 197.281 5.24 197.921 5.52C198.574 5.8 199.114 6.22 199.541 6.78L197.961 8.36C197.667 8 197.334 7.74 196.961 7.58C196.601 7.42 196.207 7.34 195.781 7.34C195.394 7.34 195.094 7.4 194.881 7.52C194.681 7.64 194.581 7.80667 194.581 8.02C194.581 8.26 194.694 8.44667 194.921 8.58C195.161 8.71333 195.467 8.83333 195.841 8.94C196.214 9.03333 196.601 9.14667 197.001 9.28C197.414 9.4 197.801 9.57333 198.161 9.8C198.534 10.0267 198.834 10.3267 199.061 10.7C199.301 11.0733 199.421 11.5533 199.421 12.14C199.421 13.0867 199.081 13.84 198.401 14.4C197.721 14.9467 196.794 15.22 195.621 15.22ZM205.807 15.2C204.794 15.2 203.894 14.9867 203.107 14.56C202.321 14.12 201.694 13.52 201.227 12.76C200.774 12 200.547 11.1333 200.547 10.16C200.547 9.2 200.767 8.34667 201.207 7.6C201.661 6.84 202.274 6.24 203.047 5.8C203.821 5.34667 204.681 5.12 205.627 5.12C206.561 5.12 207.381 5.33333 208.087 5.76C208.807 6.17333 209.367 6.74667 209.767 7.48C210.181 8.2 210.387 9.02 210.387 9.94C210.387 10.1133 210.374 10.2933 210.347 10.48C210.334 10.6533 210.301 10.8533 210.247 11.08L202.127 11.1V9.14L209.027 9.12L207.967 9.94C207.941 9.36667 207.834 8.88667 207.647 8.5C207.474 8.11333 207.214 7.82 206.867 7.62C206.534 7.40667 206.121 7.3 205.627 7.3C205.107 7.3 204.654 7.42 204.267 7.66C203.881 7.88667 203.581 8.21333 203.367 8.64C203.167 9.05333 203.067 9.54667 203.067 10.12C203.067 10.7067 203.174 11.22 203.387 11.66C203.614 12.0867 203.934 12.42 204.347 12.66C204.761 12.8867 205.241 13 205.787 13C206.281 13 206.727 12.92 207.127 12.76C207.527 12.5867 207.874 12.3333 208.167 12L209.707 13.54C209.241 14.0867 208.667 14.5 207.987 14.78C207.321 15.06 206.594 15.2 205.807 15.2ZM212.008 15V5.34H214.628V15H212.008ZM214.628 9.66L213.608 8.98C213.728 7.79333 214.074 6.86 214.648 6.18C215.221 5.48667 216.048 5.14 217.128 5.14C217.594 5.14 218.014 5.22 218.388 5.38C218.761 5.52667 219.101 5.77333 219.408 6.12L217.768 8C217.621 7.84 217.441 7.72 217.228 7.64C217.028 7.56 216.794 7.52 216.528 7.52C215.968 7.52 215.508 7.7 215.148 8.06C214.801 8.40667 214.628 8.94 214.628 9.66Z" fill="black"/>
</svg>
